<svg width="686" height="2521" viewBox="0 0 686 2521" fill="none" xmlns="http://www.w3.org/2000/svg">
<path opacity="0.4" d="M271.826 2520C290.615 2300.64 192.46 2153.39 109.109 2085.26M109.109 2085.26C48.0025 2035.32 -5.147 2027.9 1.57567 2065.79C10.7978 2117.76 52.0201 2171.08 109.109 2085.26ZM109.109 2085.26C150.401 2023.19 199.994 1888.34 251.782 1627.54C301.645 1376.44 388.358 1260.31 471.09 1219.03M487.376 1C563.711 88.4837 527.686 254.556 480.59 350.758M480.59 350.758C449.182 414.913 412.851 447.996 401.634 405.979C388.631 357.275 431.683 336.76 480.59 350.758ZM480.59 350.758C537.141 366.945 601.52 429.278 596.111 547.536C586.026 768.065 498.103 851.122 437.73 1022.81C416.12 1084.26 435.402 1156.78 471.09 1219.03M471.09 1219.03C535.106 1330.71 651.911 1409.36 680.184 1331.92C706.423 1260.05 593.085 1158.17 471.09 1219.03Z" stroke="#EAD8CD" stroke-width="2"/>
</svg>
