<svg width="65" height="77" viewBox="0 0 65 77" fill="none" xmlns="http://www.w3.org/2000/svg">
<path d="M47.4412 26.8856L29.8345 44.7057L20.7111 35.7956M32.4728 1.95641C32.3728 1.9742 32.2746 2.00083 32.1793 2.03598L5.49629 11.3791C5.24271 11.4682 5.01387 11.6156 4.8284 11.8094C4.64293 12.0031 4.50607 12.2376 4.42897 12.4939C0.936775 23.8741 1.12454 36.9145 5.54957 48.433C9.97468 59.9515 18.7213 69.9596 32.1526 74.8963C32.5316 75.0343 32.9476 75.0343 33.3266 74.8963C46.7579 69.9596 55.5046 59.9515 59.9297 48.433C64.3547 36.9145 64.5425 23.8741 61.0503 12.4939C60.9732 12.2376 60.8363 12.0031 60.6508 11.8094C60.4654 11.6156 60.2365 11.4682 59.983 11.3791L33.2999 2.03598C33.035 1.94212 32.7509 1.91479 32.4728 1.95641Z" stroke="#B68C6E" stroke-width="3"/>
</svg>
