<svg width="94" height="78" viewBox="0 0 94 78" fill="none" xmlns="http://www.w3.org/2000/svg">
<path d="M74.9909 70.2951C73.5804 70.2951 72.1699 70.2 70.5714 69.9146C70.0072 69.8195 69.7251 69.3439 69.8191 68.7732C69.9131 68.2024 70.3833 67.9171 70.9475 68.0122C82.7016 70.0098 89.2838 63.0658 91.4466 60.1171C79.4104 57.6439 77.6238 44.5171 76.0253 32.9122C75.273 27.1098 74.5207 21.6878 72.6401 17.5024C68.5026 7.89512 58.6292 1.90244 47.0632 1.90244C35.4973 1.90244 25.6238 7.89512 21.3924 17.4073C19.5117 21.878 18.7595 27.3951 17.9132 33.3878C16.3146 45.3732 14.622 57.739 2.67992 60.1171C4.84267 63.0658 11.4249 70.0098 23.179 68.0122C23.7432 67.9171 24.2134 68.2976 24.3074 68.7732C24.4014 69.3439 24.0253 69.8195 23.5551 69.9146C7.75768 72.578 0.235081 60.022 0.141049 59.8317C-0.0470162 59.5463 -0.0470162 59.1659 0.141049 58.8805C0.329114 58.5951 0.611211 58.4049 0.893308 58.3098C12.8354 56.9781 14.3399 45.3732 16.0325 33.1024C16.7848 27.3 17.6311 21.3073 19.6998 16.6463C24.2134 6.37317 34.745 0 47.0632 0C59.3815 0 69.9131 6.37317 74.4267 16.7415C76.4014 21.1171 77.1536 26.7293 77.9059 32.6268C79.5044 44.6122 81.197 56.9781 93.1392 58.4049C93.4212 58.4049 93.7034 58.6902 93.8914 58.9756C94.0795 59.261 93.9855 59.6415 93.8914 59.9268C93.8914 59.9268 87.7793 70.2951 74.9909 70.2951Z" fill="#B68C6E"/>
<path d="M68.6907 39.4756C68.5967 39.4756 68.5026 39.4756 68.5026 39.4756C65.2115 38.7146 61.8263 37.0024 58.1591 34.2439C57.6889 33.9585 57.6889 33.2927 57.971 32.9122C58.2531 32.4366 58.9113 32.4366 59.2875 32.722C62.7667 35.2902 65.8697 36.9073 68.8788 37.6683C69.443 37.7634 69.7251 38.3341 69.631 38.8098C69.537 39.1902 69.1609 39.4756 68.6907 39.4756Z" fill="#B68C6E"/>
<path d="M48.8499 26.7293C48.6618 26.7293 48.5678 26.7293 48.3797 26.6341C46.9692 25.8732 45.4647 25.3024 44.0542 24.9219C43.49 24.8268 43.2079 24.2561 43.3019 23.7805C43.396 23.2098 43.9602 22.9244 44.4303 23.0195C46.0289 23.4 47.6274 24.0658 49.226 24.8268C49.6962 25.1122 49.8842 25.6829 49.6021 26.1585C49.6021 26.539 49.226 26.7293 48.8499 26.7293Z" fill="#B68C6E"/>
<path d="M47.0632 78C41.0452 78 35.3092 74.6707 31.736 69.1537C25.9059 59.7366 24.6835 44.6122 24.4014 38.6195C24.2134 33.0073 26.8463 27.8707 31.4539 24.922C31.924 24.6366 32.4882 24.7317 32.7703 25.2073C33.0524 25.6829 32.9584 26.2537 32.4882 26.539C28.4448 29.1073 26.188 33.578 26.3761 38.4293C26.6582 44.3268 27.7866 58.9756 33.3345 68.0122C36.5316 73.1488 41.7034 76.0976 47.0632 76.0976C52.4231 76.0976 57.5009 73.1488 60.792 68.1073C61.6383 66.7756 62.4846 65.3488 63.1428 63.9219C63.4249 63.4463 63.9891 63.2561 64.4593 63.4463C64.9294 63.7317 65.1175 64.3024 64.9294 64.778C64.1772 66.2049 63.4249 67.7268 62.4846 69.1537C58.8173 74.7658 53.0813 78 47.0632 78Z" fill="#B68C6E"/>
<path d="M67.8444 52.8878C67.7504 52.8878 67.7504 52.8878 67.6564 52.8878C67.0922 52.7927 66.8101 52.3171 66.8101 51.7463C67.3743 48.0366 67.6564 43.9463 67.6564 38.4293C67.6564 37.8585 68.1265 37.4781 68.5967 37.4781C69.1609 37.4781 69.537 37.9537 69.537 38.4293C69.537 44.0415 69.2549 48.2268 68.6907 52.0317C68.7847 52.5073 68.3146 52.8878 67.8444 52.8878Z" fill="#B68C6E"/>
<path d="M54.8679 32.8171C54.5858 32.8171 54.3978 32.722 54.2097 32.5317L50.9186 29.2024C50.5424 28.822 50.5424 28.1561 50.9186 27.7756L56.9367 21.6878C58.2531 20.3561 60.3218 20.3561 61.5443 21.6878C62.2025 22.3537 62.4846 23.1146 62.4846 24.0659C62.4846 24.9219 62.1084 25.778 61.5443 26.4439L55.5262 32.5317C55.4321 32.722 55.15 32.8171 54.8679 32.8171ZM52.9873 28.5366L54.8679 30.439L60.2278 25.0171C60.5099 24.7317 60.6039 24.4463 60.6039 24.0659C60.6039 23.6854 60.5099 23.4 60.2278 23.1146C59.6636 22.5439 58.8173 22.5439 58.3471 23.1146L52.9873 28.5366Z" fill="#B68C6E"/>
<path d="M48.5678 35.9561C48.2857 35.9561 48.0976 35.861 47.9095 35.6707C47.5334 35.2902 47.5334 34.6244 47.9095 34.2439L52.6112 29.4878C52.9873 29.1073 53.6455 29.1073 54.0216 29.4878C54.3978 29.8683 54.3978 30.5341 54.0216 30.9146L49.32 35.6707C49.0379 35.861 48.7558 35.9561 48.5678 35.9561Z" fill="#B68C6E"/>
<path d="M75.1789 61.4488H66.622C66.0578 61.4488 65.6817 60.9732 65.6817 60.4976V55.8366C65.6817 55.2659 66.1518 54.8854 66.622 54.8854H75.1789C76.9656 54.8854 78.4701 56.4073 78.4701 58.2146C78.4701 60.0219 76.9656 61.4488 75.1789 61.4488ZM67.6563 59.5463H75.273C76.0252 59.5463 76.5894 58.9756 76.5894 58.2146C76.5894 57.4537 76.0252 56.8829 75.273 56.8829H67.6563V59.5463Z" fill="#B68C6E"/>
<path d="M66.622 59.1659H59.9457C59.3815 59.1659 59.0054 58.6902 59.0054 58.2146C59.0054 57.739 59.4755 57.2634 59.9457 57.2634H66.622C67.1862 57.2634 67.5623 57.739 67.5623 58.2146C67.5623 58.6902 67.1862 59.1659 66.622 59.1659Z" fill="#B68C6E"/>
<path d="M40.481 29.2024H35.8734C35.3092 29.2024 34.9331 28.7268 34.9331 28.2512V19.5951C34.9331 17.7878 36.4376 16.2659 38.2242 16.2659C40.0108 16.2659 41.5153 17.7878 41.5153 19.5951V28.2512C41.4213 28.7268 41.0452 29.2024 40.481 29.2024ZM36.8137 27.2049H39.5406V19.5C39.5406 18.739 38.9765 18.1683 38.2242 18.1683C37.4719 18.1683 36.9077 18.739 36.9077 19.5V27.2049H36.8137Z" fill="#B68C6E"/>
<path d="M38.1302 35.9561C37.566 35.9561 37.1898 35.4805 37.1898 35.0049V28.2512C37.1898 27.6805 37.66 27.3 38.1302 27.3C38.6944 27.3 39.0705 27.7756 39.0705 28.2512V35.0049C39.1645 35.4805 38.6944 35.9561 38.1302 35.9561Z" fill="#B68C6E"/>
</svg>
