<svg width="96" height="73" viewBox="0 0 96 73" fill="none" xmlns="http://www.w3.org/2000/svg">
<path d="M10.2635 53.4159C11.9712 53.4159 13.3555 52.0887 13.3555 50.4515C13.3555 48.8143 11.9712 47.4871 10.2635 47.4871C8.55589 47.4871 7.17157 48.8143 7.17157 50.4515C7.17157 52.0887 8.55589 53.4159 10.2635 53.4159Z" fill="#B68C6E"/>
<path d="M95.5058 56.3029C93.3079 52.4349 87.1304 54.0378 82.1664 55.3313C80.4817 55.7707 78.8873 56.1822 77.8545 56.2658C76.6312 56.3431 75.0917 56.0925 73.3069 55.7892C72.4096 55.6345 71.4543 55.4674 70.4441 55.3374C71.1767 54.3349 71.1735 53.4715 71.1702 53.4437C71.2832 52.0574 70.8669 50.8475 69.9599 49.9502C68.0912 48.0936 64.8443 48.1771 64.5732 48.1988L54.9487 47.8832L47.9256 46.8527C36.91 41.5892 27.8439 47.8275 25.6911 49.5201L19.7137 48.8146L19.6847 45.9863C19.6782 45.3643 19.1909 44.8414 18.5454 44.7671L1.44271 42.8301C1.07799 42.7837 0.710056 42.8982 0.432489 43.1364C0.154921 43.3747 0 43.7089 0 44.0616V71.7623C0 72.0903 0.135556 72.4059 0.377621 72.638C0.619686 72.867 0.948894 73 1.29101 73H18.6551C19.0005 73 19.3297 72.8669 19.5717 72.6318C19.8138 72.3997 19.9494 72.0779 19.9461 71.7499L19.8945 66.5885L30.3969 66.802C30.5001 66.8051 40.7572 67.1269 45.818 68.8505C50.9917 70.6112 54.7098 71.459 57.7631 71.459C59.8674 71.459 61.6555 71.0567 63.3822 70.2708C64.1052 69.9428 64.6668 69.6612 65.1703 69.4137C67.5845 68.2099 68.4882 67.7613 81.9373 65.3972C90.1417 63.9552 94.6602 61.9253 95.7511 59.193C96.4224 57.5221 95.5252 56.3029 95.5058 56.3029ZM2.58202 70.5245L2.58525 45.451L17.1124 47.1003L17.2382 59.5117V65.326C17.2382 65.4312 17.2737 65.5271 17.2996 65.6262L17.348 70.5276L2.58202 70.5245ZM93.3401 58.3111C93.0819 58.9578 91.4585 61.2105 81.4693 62.965C67.6393 65.3941 66.642 65.8923 63.9761 67.2198C63.4984 67.458 62.9659 67.7241 62.272 68.0398C58.7636 69.6426 54.6743 69.2466 46.6798 66.5235C41.2414 64.6731 30.91 64.3482 30.4614 64.3327L19.8687 64.1161L19.8203 59.4932V51.321L25.9397 52.0451C26.3173 52.0884 26.7078 51.9677 26.9886 51.714C27.3469 51.3891 35.9321 43.7553 46.938 49.1487C47.0606 49.2106 47.1929 49.2478 47.3285 49.2694L54.7066 50.3432L64.5861 50.6681C65.2219 50.6588 67.2004 50.7702 68.1041 51.6706C68.3526 51.9151 68.6721 52.3452 68.5947 53.3199C68.5915 53.3354 68.4849 54.3689 66.5549 55.1394C66.5355 55.1456 66.5194 55.1518 66.5 55.158C65.5253 55.5386 64.0987 55.8511 62.0041 55.9377C54.145 56.2596 48.5453 56.8351 48.4872 56.8413C48.3774 56.8537 48.2677 56.8784 48.1644 56.9125C48.1354 56.9218 45.1886 57.9831 42.8487 57.3642L40.3828 56.7113C39.6954 56.5319 38.9853 56.9156 38.7949 57.5747C38.6045 58.2338 39.0079 58.9176 39.6954 59.0971L42.1644 59.75C44.9918 60.4864 48.1483 59.5427 48.9197 59.2827C49.8621 59.193 55.0649 58.701 62.1203 58.407C64.3021 58.3173 65.9578 57.9862 67.2165 57.5375C69.2337 57.6025 71.1509 57.9305 72.8486 58.2245C74.8174 58.5618 76.5247 58.8557 78.0675 58.7319C79.3359 58.6329 80.9593 58.209 82.841 57.7201C86.714 56.7113 92.0136 55.3344 93.3498 57.6551C93.3498 57.6551 93.4983 57.9181 93.3401 58.3111Z" fill="#B68C6E"/>
<path fill-rule="evenodd" clip-rule="evenodd" d="M82.6022 18.3785C82.0277 18.9912 80.117 20.789 77.7512 22.9829L75.3273 25.2201C70.5441 29.6265 65.1638 34.5248 64.783 34.8714C64.7749 34.8791 64.7636 34.8815 64.7523 34.8838C64.741 34.8861 64.7297 34.8884 64.7216 34.8962C64.4183 35.1499 64.0503 35.2984 63.6695 35.2984C63.2918 35.2984 62.9207 35.1499 62.6173 34.8962C62.6092 34.8884 62.5979 34.8861 62.5866 34.8838C62.5753 34.8815 62.564 34.8791 62.556 34.8714C61.904 34.2804 46.5668 20.3218 44.7336 18.3754C42.4678 15.9742 41.5254 12.8953 42.0773 9.71432C42.2225 8.87575 42.4775 8.05575 42.8099 7.26669L44.4043 4.56842C45.4404 3.22547 46.7249 2.06818 48.2193 1.27293C51.0046 -0.221639 54.3129 -0.404206 57.5372 0.746893C59.9159 1.59784 62.0267 3.11098 63.6662 5.09446C65.3091 3.11098 67.4199 1.59784 69.7953 0.746893C73.0196 -0.401112 76.3278 -0.218545 79.1132 1.27293C82.2988 2.97483 84.6549 6.21152 85.2584 9.72051C85.8071 12.9015 84.8647 15.9773 82.6022 18.3785ZM49.7943 3.98668C48.8228 4.50653 47.9772 5.27083 47.2543 6.14035L45.6824 8.85719C45.6675 8.89904 45.6525 8.9409 45.6374 8.98277C45.4902 9.39278 45.3425 9.80374 45.2693 10.2249C44.9982 11.803 45.1015 14.1392 47.1348 16.2991C48.4517 17.6947 57.9567 26.4083 63.6662 31.61C66.1934 29.3078 69.4145 26.3619 72.4032 23.6111L74.8335 21.3677C77.4994 18.8984 79.6328 16.8994 80.2009 16.296C82.2374 14.1331 82.3375 11.803 82.0664 10.2249C81.6242 7.66277 79.8491 5.21514 77.5414 3.98358C75.5952 2.94079 73.2423 2.82011 70.9282 3.65249C68.5204 4.51272 66.4419 6.2765 65.0831 8.61892C65.0712 8.63848 65.0557 8.65288 65.0405 8.66711C65.0267 8.6799 65.0131 8.69255 65.0024 8.70866C64.9411 8.7984 64.8669 8.87266 64.7862 8.95002C64.712 9.02119 64.641 9.08927 64.5538 9.14187C64.5344 9.1527 64.5191 9.1674 64.5038 9.1821C64.4885 9.19679 64.4731 9.21149 64.4538 9.22232C64.4198 9.23947 64.3848 9.24712 64.3499 9.25474C64.3219 9.26087 64.2939 9.26698 64.2666 9.27802C64.1697 9.31825 64.0761 9.34919 63.9729 9.36776C63.8696 9.38632 63.7695 9.39251 63.6662 9.39251C63.5597 9.39251 63.4629 9.38632 63.3596 9.36776C63.2531 9.34919 63.1563 9.31515 63.0562 9.27492C63.0325 9.26607 63.0082 9.26084 62.984 9.25563C62.9491 9.24809 62.9144 9.24062 62.882 9.22232C62.8607 9.21211 62.8452 9.19722 62.8297 9.18228C62.817 9.17006 62.8043 9.15781 62.7884 9.14806C62.6948 9.08926 62.6173 9.01809 62.5366 8.94073C62.4624 8.86957 62.3914 8.7984 62.3333 8.71485C62.3226 8.69882 62.3091 8.68553 62.2955 8.67209C62.2801 8.65698 62.2645 8.64166 62.2526 8.62202C60.8938 6.27959 58.8153 4.51581 56.4075 3.65558C54.0966 2.8263 51.747 2.94388 49.7943 3.98668Z" fill="#B68C6E"/>
</svg>
