<svg width="96" height="65" viewBox="0 0 96 65" fill="none" xmlns="http://www.w3.org/2000/svg">
<path d="M89.5594 39.4436H4.32422C1.92188 39.4436 0 37.5148 0 35.1039V14.0801C0 10.5119 2.88281 7.6187 6.43828 7.6187H9.80156C10.3781 7.6187 10.8586 8.10089 10.8586 8.67953C10.8586 9.25816 10.3781 9.74036 9.80156 9.74036H6.43828C4.03594 9.74036 2.01797 11.7656 2.01797 14.1766V35.2967C2.01797 36.5504 2.97891 37.5148 4.22813 37.5148H89.5594C92.0578 37.5148 94.0758 35.4896 94.0758 32.9822C94.0758 30.4748 92.0578 28.4496 89.5594 28.4496H16.6242C14.1258 28.4496 12.1078 30.4748 12.1078 32.9822C12.1078 33.5608 11.6273 34.043 11.0508 34.043C10.4742 34.043 9.99375 33.5608 9.99375 32.9822C9.99375 29.4139 12.8766 26.4243 16.5281 26.4243H89.4633C93.0188 26.4243 95.9977 29.3175 95.9977 32.9822C96.0938 36.5504 93.2109 39.4436 89.5594 39.4436Z" fill="#B68C6E"/>
<path d="M19.7953 16.1053H12.4922C10.4742 16.1053 8.84063 14.4659 8.84063 12.4407V3.66469C8.84063 1.63947 10.4742 0 12.4922 0H19.7953V16.1053ZM12.4922 2.02522C11.6273 2.02522 10.8586 2.7003 10.8586 3.66469V12.4407C10.8586 13.3086 11.5313 14.0801 12.4922 14.0801H17.7773V2.02522H12.4922Z" fill="#B68C6E"/>
<path d="M48.4313 56.1276C47.8547 56.1276 47.3742 55.6454 47.3742 55.0668V38.4792C47.3742 37.9006 47.8547 37.4184 48.4313 37.4184C49.0078 37.4184 49.4883 37.9006 49.4883 38.4792V55.1632C49.4883 55.6454 49.0078 56.1276 48.4313 56.1276Z" fill="#B68C6E"/>
<path d="M57.7523 56.1276C57.1758 56.1276 56.6953 55.6454 56.6953 55.0668V38.4792C56.6953 37.9006 57.1758 37.4184 57.7523 37.4184C58.3289 37.4184 58.8094 37.9006 58.8094 38.4792V55.1632C58.8094 55.6454 58.3289 56.1276 57.7523 56.1276Z" fill="#B68C6E"/>
<path d="M82.0641 65H24.2156V59.7923C24.2156 56.6098 26.8102 54.1024 29.8852 54.1024H76.2984C79.4695 54.1024 81.968 56.7062 81.968 59.7923V65H82.0641ZM26.2336 62.9748H79.95V59.7923C79.95 57.7671 78.3164 56.1276 76.2984 56.1276H29.8852C27.8672 56.1276 26.2336 57.7671 26.2336 59.7923V62.9748Z" fill="#B68C6E"/>
<path d="M76.2984 56.1276C75.7219 56.1276 75.2414 55.6454 75.2414 55.0668V49.4733C75.2414 47.8338 73.8961 46.5801 72.3586 46.5801H57.7523C57.1758 46.5801 56.6953 46.0979 56.6953 45.5193C56.6953 44.9407 57.1758 44.4585 57.7523 44.4585H72.3586C75.0492 44.4585 77.3555 46.6766 77.3555 49.4733V55.0668C77.3555 55.6454 76.875 56.1276 76.2984 56.1276Z" fill="#B68C6E"/>
</svg>
