<svg width="91" height="76" viewBox="0 0 91 76" fill="none" xmlns="http://www.w3.org/2000/svg">
<path d="M89.908 76H1.092C0.546 76 0 75.5431 0 74.9035V45.3898C0 42.4659 2.366 40.0902 5.278 40.0902H28.574C29.12 40.0902 29.666 40.547 29.666 41.1867C29.666 49.9585 36.764 57.0857 45.5 57.0857C54.236 57.0857 61.334 49.8671 61.334 41.0953C61.334 40.547 61.789 39.9988 62.426 39.9988H85.722C88.634 39.9988 91 42.3745 91 45.2985V74.9035C91 75.5431 90.545 76 89.908 76ZM2.093 73.8984H88.907V45.3898C88.907 43.5624 87.451 42.1918 85.722 42.1918H63.427C62.881 51.5119 55.055 59.0959 45.5 59.0959C35.945 59.0959 28.119 51.6032 27.573 42.1004H5.278C3.458 42.1004 2.093 43.5624 2.093 45.2985V73.8984Z" fill="#B68C6E"/>
<path d="M45.5 52.6083C39.13 52.6083 33.943 47.4001 33.943 41.0039C33.943 34.8819 44.226 21.9982 44.681 21.45C45.045 20.9931 45.955 20.9931 46.319 21.45C46.774 21.9982 57.057 34.8819 57.057 41.0039C57.057 47.4001 51.87 52.6083 45.5 52.6083ZM45.5 23.917C42.224 28.1202 36.036 36.9835 36.036 41.0953C36.036 46.3036 40.313 50.5981 45.5 50.5981C50.687 50.5981 54.964 46.3036 54.964 41.0953C54.964 36.9835 48.776 28.1202 45.5 23.917Z" fill="#B68C6E"/>
<path d="M64.337 24.648C59.332 24.648 55.237 20.5362 55.237 15.5107C55.237 10.7592 62.699 1.34776 63.518 0.342651C63.882 -0.114217 64.792 -0.114217 65.156 0.342651C65.975 1.43913 73.437 10.8506 73.437 15.5107C73.437 20.5362 69.342 24.648 64.337 24.648ZM64.337 2.71836C61.789 6.00781 57.33 12.4953 57.33 15.5107C57.33 19.4397 60.515 22.5464 64.337 22.5464C68.159 22.5464 71.344 19.3484 71.344 15.5107C71.344 12.4953 66.885 6.00781 64.337 2.71836Z" fill="#B68C6E"/>
<path d="M28.756 24.648C24.57 24.648 21.203 21.2672 21.203 17.064C21.203 13.2263 27.209 5.55095 27.937 4.72858C28.301 4.27172 29.211 4.27172 29.575 4.72858C30.303 5.55095 36.309 13.2263 36.309 17.064C36.309 21.2672 32.942 24.648 28.756 24.648ZM28.756 7.1043C26.39 10.211 23.296 14.9624 23.296 17.064C23.296 20.0793 25.753 22.5464 28.756 22.5464C31.759 22.5464 34.216 20.0793 34.216 17.064C34.216 14.9624 31.122 10.3024 28.756 7.1043Z" fill="#B68C6E"/>
</svg>
