<svg width="66" height="72" viewBox="0 0 66 72" fill="none" xmlns="http://www.w3.org/2000/svg">
<path d="M34.0645 15.2727H31.9355V18.5455H34.0645V15.2727Z" fill="#B68C6E"/>
<path d="M24.3384 20.6321L22.742 17.7976L20.898 18.8883L22.4945 21.7228L24.3384 20.6321Z" fill="#B68C6E"/>
<path d="M16.9346 27.4204L14.1684 25.7828L13.104 27.6711L15.8702 29.3087L16.9346 27.4204Z" fill="#B68C6E"/>
<path d="M13.8387 37.0909H10.6452V39.2727H13.8387V37.0909Z" fill="#B68C6E"/>
<path d="M16.9352 48.945L15.8709 47.0553L13.105 48.6914L14.1693 50.581L16.9352 48.945Z" fill="#B68C6E"/>
<path d="M24.3444 55.7346L22.5004 54.6439L20.904 57.4784L22.7479 58.5691L24.3444 55.7346Z" fill="#B68C6E"/>
<path d="M34.0645 57.8182H31.9355V61.0909H34.0645V57.8182Z" fill="#B68C6E"/>
<path d="M45.1014 57.4808L43.5043 54.6466L41.6606 55.7377L43.2577 58.5719L45.1014 57.4808Z" fill="#B68C6E"/>
<path d="M52.8905 48.6868L50.1255 47.0517L49.0614 48.9413L51.8264 50.5765L52.8905 48.6868Z" fill="#B68C6E"/>
<path d="M55.3548 37.0909H52.1613V39.2727H55.3548V37.0909Z" fill="#B68C6E"/>
<path d="M52.8883 27.6734L51.824 25.7837L49.0581 27.4197L50.1224 29.3094L52.8883 27.6734Z" fill="#B68C6E"/>
<path d="M45.1024 18.8876L43.2585 17.7969L41.662 20.6314L43.506 21.7221L45.1024 18.8876Z" fill="#B68C6E"/>
<path d="M34.0645 33.9731V22.9091H31.9355V33.9731C30.1045 34.4607 28.7419 36.1549 28.7419 38.1818C28.7419 40.5884 30.6517 42.5455 33 42.5455C35.3483 42.5455 37.2581 40.5884 37.2581 38.1818C37.2581 36.1549 35.8965 34.4607 34.0645 33.9731ZM33 40.3636C31.8258 40.3636 30.871 39.3851 30.871 38.1818C30.871 36.9785 31.8258 36 33 36C34.1742 36 35.129 36.9785 35.129 38.1818C35.129 39.3851 34.1742 40.3636 33 40.3636Z" fill="#B68C6E"/>
<path d="M34.0645 4.39091V2.18182H36.1936V0H29.8065V2.18182H31.9355V4.39091C14.2315 4.97018 0 19.9004 0 38.1818C0 56.8298 14.8042 72 33 72C51.1968 72 66 56.8298 66 38.1818C66 19.9004 51.7696 4.97018 34.0645 4.39091ZM33 69.8182C15.9773 69.8182 2.12903 55.6255 2.12903 38.1818C2.12903 20.7371 15.9773 6.54545 33 6.54545C50.0216 6.54545 63.871 20.7371 63.871 38.1818C63.871 55.6255 50.0216 69.8182 33 69.8182Z" fill="#B68C6E"/>
</svg>
