<svg width="60" height="65" viewBox="0 0 60 65" fill="none" xmlns="http://www.w3.org/2000/svg">
<path d="M4.27904 49.6889C4.20715 49.4 3.99145 49.1111 3.63196 49.1111H3.56006C3.27247 49.1111 2.98488 49.3278 2.91298 49.6889C2.76918 50.7722 2.1221 52.2889 0.756041 55.1056C-0.394327 57.4167 -0.0348367 58.9333 0.540347 59.8722C1.33123 61.1722 2.76919 61.6778 3.56006 61.6778H3.70386C4.49474 61.6778 5.9327 61.1722 6.72358 59.8722C7.22686 59.0056 7.65825 57.4889 6.50788 55.1056C5.06992 52.2889 4.49474 50.7 4.27904 49.6889ZM5.64511 59.15C5.14182 59.9444 4.20714 60.3778 3.63196 60.3778C3.12867 60.3778 2.1221 60.0167 1.61882 59.15C1.11553 58.2833 1.18743 57.0556 1.90641 55.6833C2.76919 54.0222 3.27247 52.8667 3.63196 51.9278C3.99145 52.7944 4.49474 54.0222 5.35751 55.6833C6.07649 57.1278 6.14839 58.2833 5.64511 59.15Z" fill="#B68C6E"/>
<path d="M56.3332 33.2222C56.9084 32.7889 57.3398 32.0667 57.3398 31.2722V27.5167C58.2025 27.3 58.8496 26.5056 58.8496 25.5667V24.2667C58.8496 23.1111 57.915 22.2444 56.8365 22.2444H41.3065C40.1561 22.2444 39.2934 23.1833 39.2934 24.2667V25.5667C39.2934 26.5056 39.9404 27.3 40.8032 27.5167V31.2722C40.8032 32.0667 41.1627 32.7889 41.8098 33.2222C40.2999 33.8722 38.2149 35.3167 38.2149 38.35V60.6667C38.2149 62.1111 39.0777 63.4111 40.4437 63.9167C42.3131 64.6389 45.189 65 48.9996 65C48.9996 65 48.9996 65 49.0715 65H49.1434C49.1434 65 49.1434 65 49.2153 65C53.0259 65 55.9018 64.6389 57.7712 63.9167C59.1372 63.4111 60 62.1111 60 60.6667V38.35C59.8562 35.3167 57.7712 33.8722 56.3332 33.2222ZM44.5419 36.9056V35.8944H53.6011V36.9056H44.5419ZM53.4573 38.2056C53.3135 38.6389 53.0259 39 52.8821 39H45.2609C45.1171 39 44.8295 38.6389 44.6857 38.2056H53.4573ZM53.6011 34.5944H44.5419V33.7278H53.6011V34.5944ZM43.1759 32.4278C42.5288 32.4278 42.0255 31.9222 42.0255 31.2722V27.6611H55.9737V31.2722C55.9737 31.9222 55.4704 32.4278 54.8233 32.4278H43.1759ZM40.5875 24.3389C40.5875 23.9056 40.947 23.6167 41.3065 23.6167H56.7646C57.196 23.6167 57.4836 23.9778 57.4836 24.3389V25.6389C57.4836 26.0722 57.1241 26.3611 56.7646 26.3611H41.3065C40.8751 26.3611 40.5875 26 40.5875 25.6389V24.3389ZM43.104 34.0889C43.1759 34.0889 43.1759 34.0889 43.2478 34.0889V37.5556C43.2478 38.4944 43.9667 40.3 45.189 40.3H52.8821C54.1044 40.3 54.8233 38.5667 54.8233 37.6278V34.1611C54.9671 34.1611 55.039 34.2333 55.1828 34.2333C56.477 34.6667 58.562 35.75 58.562 38.4222V41.7444H39.5091V38.4222C39.5091 35.6056 41.7379 34.5222 43.104 34.0889ZM57.196 62.6889C55.4704 63.3389 52.7383 63.7 49.0715 63.7H48.9996C45.3328 63.7 42.6007 63.3389 40.8751 62.6889C40.0123 62.3278 39.5091 61.5333 39.5091 60.6667V42.9722H58.6339V60.6667C58.562 61.6056 58.0588 62.4 57.196 62.6889Z" fill="#B68C6E"/>
<path d="M53.7449 45.1389H44.3262C43.4635 45.1389 42.7445 45.8611 42.7445 46.7278V50.9889C42.7445 51.8556 43.4635 52.5778 44.3262 52.5778H53.8168C54.6795 52.5778 55.3985 51.8556 55.3985 50.9889V46.7278C55.3266 45.7889 54.6076 45.1389 53.7449 45.1389ZM54.0325 50.9167C54.0325 51.0611 53.8887 51.2056 53.7449 51.2056H44.3262C44.1824 51.2056 44.0386 51.0611 44.0386 50.9167V46.6556C44.0386 46.5111 44.1824 46.3667 44.3262 46.3667H53.8168C53.9606 46.3667 54.1044 46.5111 54.1044 46.6556V50.9167H54.0325Z" fill="#B68C6E"/>
<path d="M39.7248 18.0556L40.228 17.55C40.8751 16.9 40.8751 15.8167 40.228 15.2389L39.4372 14.4444L46.6989 7.07778C46.9146 7.22222 47.2022 7.22222 47.4897 7.22222C47.993 7.22222 48.4963 7.00556 48.8558 6.64444L49.0715 6.42778C49.431 6.06667 49.6467 5.56111 49.6467 5.05556C49.6467 4.55 49.431 4.04444 49.0715 3.68333L45.8361 0.433333C45.4766 0.216667 45.0452 0 44.5419 0C44.0386 0 43.5354 0.216667 43.1759 0.577778L42.9602 0.794444C42.6007 1.15556 42.385 1.66111 42.385 2.16667C42.385 2.45556 42.4569 2.67222 42.5288 2.88889L35.2671 10.2556L34.4043 9.38889C33.7572 8.73889 32.6788 8.73889 32.1036 9.38889L31.6003 9.89444C31.097 10.4 30.9532 11.1944 31.3127 11.7722L14.7043 28.4556C14.5605 28.6 13.482 29.6111 13.1225 30.0444C12.2597 31.1278 12.5473 32.1389 12.8349 33.0056C12.8349 33.15 12.9068 33.2222 12.9068 33.3667C12.8349 33.3667 12.6911 33.4389 12.6192 33.5111L12.044 34.0889C11.8283 34.3056 11.8283 34.7389 12.044 34.9556C11.4688 35.6056 10.3185 36.9778 9.5995 37.9167C9.3119 38.2778 9.3119 39.0722 9.3838 39.5778L2.76918 46.2222C2.55349 46.4389 2.55349 46.8722 2.76918 47.1611C2.91298 47.3056 3.05678 47.3778 3.20057 47.3778C3.34437 47.3778 3.56006 47.3056 3.63196 47.1611L10.2466 40.5167C10.7499 40.5889 11.4688 40.5167 11.8283 40.2278C12.763 39.5056 14.0572 38.4222 14.7762 37.7722C14.9918 37.9889 15.4232 37.9889 15.6389 37.7722L16.2141 37.1944C16.3579 37.05 16.3579 36.9778 16.4298 36.8333L16.5736 36.7611L17.9397 36.9778C18.7305 37.1222 19.4495 36.9056 20.0247 36.3278L37.8554 18.4167C38.4306 18.7056 39.2215 18.5611 39.7248 18.0556ZM43.8948 3.39444C44.0386 3.25 44.1105 3.10556 44.1105 2.88889C44.1105 2.74444 44.0386 2.52778 43.8948 2.45556C43.8229 2.38333 43.751 2.23889 43.751 2.09444C43.751 1.95 43.8229 1.80556 43.8948 1.66111L44.1105 1.44444C44.3262 1.22778 44.7576 1.22778 44.9733 1.44444L48.2087 4.69444C48.3525 4.83889 48.3525 4.98333 48.3525 5.12778C48.3525 5.27222 48.2806 5.41667 48.2087 5.56111L47.993 5.77778C47.7773 5.99444 47.346 5.99444 47.1303 5.77778C46.9865 5.63333 46.8427 5.56111 46.6989 5.56111C46.5551 5.56111 46.3394 5.63333 46.2675 5.77778L38.5744 13.5778L36.2018 11.1944L43.8948 3.39444ZM14.201 36.5444C13.6258 37.05 12.1878 38.35 11.1813 39.0722C11.1094 39.1444 10.8937 39.1444 10.678 39.1444C10.678 38.9278 10.678 38.7111 10.678 38.5667C11.3969 37.5556 12.6911 36.1111 13.1944 35.5333C13.1944 35.5333 13.2663 35.4611 13.2663 35.3889L13.4101 35.1L14.5605 36.2556L14.2729 36.4C14.2729 36.4722 14.2729 36.4722 14.201 36.5444ZM19.1619 35.3167C18.9462 35.5333 18.5867 35.6778 18.2273 35.6056L16.5736 35.3167C16.4298 35.3167 16.286 35.3167 16.1422 35.3889L15.7108 35.6056L14.1291 34.0167L14.201 33.8722C14.2729 33.7278 14.2729 33.5833 14.2729 33.4389C14.201 33.15 14.1291 32.8611 14.0572 32.6444C13.7696 31.7778 13.6977 31.4167 14.1291 30.9111C14.3448 30.6222 15.1356 29.9 15.567 29.4667L27.4302 17.55L32.1755 22.3167L19.1619 35.3167ZM38.2868 17.1889C37.9992 16.9 37.5678 16.9 37.3521 17.1167L33.182 21.3056L28.4368 16.5389L32.6069 12.35C32.8226 12.1333 32.8226 11.7 32.6069 11.4111L32.535 11.3389C32.3912 11.1944 32.3912 10.9778 32.535 10.8333L33.0382 10.3278C33.182 10.1833 33.3977 10.1833 33.5415 10.3278L39.3653 16.1778C39.5091 16.3222 39.5091 16.5389 39.3653 16.6833L38.862 17.1889C38.7182 17.3333 38.4306 17.3333 38.2868 17.1889Z" fill="#B68C6E"/>
</svg>
