<svg width="59" height="64" viewBox="0 0 59 64" fill="none" xmlns="http://www.w3.org/2000/svg">
<path d="M30.4516 13.5758H28.5484V16.4848H30.4516V13.5758Z" fill="#B68C6E"/>
<path d="M21.7571 18.3397L20.3299 15.8201L18.6815 16.7896L20.1087 19.3092L21.7571 18.3397Z" fill="#B68C6E"/>
<path d="M15.1385 24.3737L12.6657 22.9181L11.7141 24.5966L14.187 26.0522L15.1385 24.3737Z" fill="#B68C6E"/>
<path d="M12.371 32.9697H9.51613V34.9091H12.371V32.9697Z" fill="#B68C6E"/>
<path d="M15.1391 43.5067L14.1877 41.827L11.7151 43.2812L12.6665 44.9609L15.1391 43.5067Z" fill="#B68C6E"/>
<path d="M21.7624 49.5418L20.114 48.5723L18.6869 51.0919L20.3353 52.0614L21.7624 49.5418Z" fill="#B68C6E"/>
<path d="M30.4516 51.3939H28.5484V54.303H30.4516V51.3939Z" fill="#B68C6E"/>
<path d="M40.318 51.094L38.8902 48.5747L37.2421 49.5446L38.6698 52.0639L40.318 51.094Z" fill="#B68C6E"/>
<path d="M47.2809 43.2772L44.8092 41.8237L43.8579 43.5034L46.3297 44.9569L47.2809 43.2772Z" fill="#B68C6E"/>
<path d="M49.4839 32.9697H46.629V34.9091H49.4839V32.9697Z" fill="#B68C6E"/>
<path d="M47.2789 24.5986L46.3275 22.9188L43.8549 24.3731L44.8063 26.0528L47.2789 24.5986Z" fill="#B68C6E"/>
<path d="M40.3188 16.789L38.6704 15.8195L37.2433 18.339L38.8917 19.3086L40.3188 16.789Z" fill="#B68C6E"/>
<path d="M30.4516 30.1983V20.3636H28.5484V30.1983C26.9116 30.6318 25.6935 32.1377 25.6935 33.9394C25.6935 36.0785 27.4007 37.8182 29.5 37.8182C31.5993 37.8182 33.3064 36.0785 33.3064 33.9394C33.3064 32.1377 32.0893 30.6318 30.4516 30.1983ZM29.5 35.8788C28.4504 35.8788 27.5968 35.009 27.5968 33.9394C27.5968 32.8698 28.4504 32 29.5 32C30.5496 32 31.4032 32.8698 31.4032 33.9394C31.4032 35.009 30.5496 35.8788 29.5 35.8788Z" fill="#B68C6E"/>
<path d="M30.4516 3.90303V1.93939H32.3548V0H26.6452V1.93939H28.5484V3.90303C12.7221 4.41794 0 17.6892 0 33.9394C0 50.5154 13.2341 64 29.5 64C45.7669 64 59 50.5154 59 33.9394C59 17.6892 46.2788 4.41794 30.4516 3.90303ZM29.5 62.0606C14.2828 62.0606 1.90323 49.4449 1.90323 33.9394C1.90323 18.433 14.2828 5.81818 29.5 5.81818C44.7163 5.81818 57.0968 18.433 57.0968 33.9394C57.0968 49.4449 44.7163 62.0606 29.5 62.0606Z" fill="#B68C6E"/>
</svg>
