<svg width="69" height="65" viewBox="0 0 69 65" fill="none" xmlns="http://www.w3.org/2000/svg">
<path d="M30.2935 30.1786C30.3701 30.256 30.5233 30.3333 30.6765 30.3333C30.8296 30.3333 31.0594 30.256 31.136 30.1012C31.3658 29.7917 31.2892 29.4048 30.9828 29.25C28.532 27.3929 27.4597 25.381 28.149 24.2202C28.3022 23.9107 28.2256 23.5238 27.9192 23.3691C27.6129 23.2143 27.2299 23.2917 27.0768 23.6012C26.0045 25.3036 27.2299 27.8571 30.2935 30.1786Z" fill="#B68C6E"/>
<path d="M32.2082 28.7083C33.1273 28.5536 34.0464 28.631 34.5825 28.7083C34.8123 28.7857 35.1186 28.5536 35.1186 28.3214C35.1186 27.9345 34.8889 27.3929 33.5868 27.3929C32.438 27.3929 31.9019 27.7024 31.7487 28.0119C31.5189 28.3988 31.8253 28.7857 32.2082 28.7083Z" fill="#B68C6E"/>
<path d="M39.1778 36.2143C38.8715 35.9821 35.9611 33.8929 35.1186 33.4286C33.9698 32.7321 32.6678 32.8095 31.136 33.506C29.6042 32.7321 28.3022 32.7321 27.1534 33.4286C26.3109 33.9702 23.4005 35.9821 23.1707 36.1369C23.1707 36.1369 23.0941 36.1369 23.0941 36.2143C23.0941 36.2143 23.0175 36.2917 23.0175 36.369C22.941 36.4464 22.941 36.5238 22.941 36.6786C22.941 36.756 22.941 36.756 22.941 36.8333C22.941 36.9107 22.941 36.9107 23.0175 36.9881C23.1707 37.375 25.2386 41.7857 30.9062 41.7857C30.9828 41.7857 31.0594 41.7857 31.2126 41.7857C37.1099 41.9405 39.2544 37.375 39.4076 36.9881C39.4076 36.9107 39.4076 36.9107 39.4842 36.8333C39.4842 36.756 39.4842 36.756 39.4842 36.6786C39.4842 36.6012 39.4842 36.4464 39.4076 36.369C39.331 36.2917 39.2544 36.2143 39.1778 36.2143ZM27.8427 34.4345C28.6085 33.9702 29.6808 34.0476 30.9062 34.744C31.0594 34.8214 31.2892 34.8214 31.4423 34.744C32.6678 34.0476 33.6634 33.9702 34.5059 34.4345C34.8889 34.6667 35.8079 35.2857 36.6504 35.9048C35.1186 35.8274 33.5102 35.8274 33.3571 35.8274C33.2805 35.8274 33.2805 35.8274 33.2039 35.8274C33.2039 35.8274 32.1316 36.1369 31.136 36.1369C30.1403 36.0595 29.0681 35.8274 29.0681 35.8274C28.9915 35.8274 28.9915 35.8274 28.9149 35.8274C28.8383 35.8274 27.1534 35.9048 25.6216 35.9048C26.5406 35.3631 27.4597 34.6667 27.8427 34.4345ZM31.136 40.4702C27.3065 40.5476 25.3152 38.381 24.5493 37.2202C26.0811 37.1429 28.4554 37.0655 28.9149 37.0655C29.2213 37.1429 30.2169 37.375 31.136 37.4524H31.2126C32.1316 37.375 33.2039 37.1429 33.4337 37.0655C33.8932 37.0655 36.2675 37.1429 37.7992 37.2202C36.9568 38.381 34.9654 40.5476 31.136 40.4702Z" fill="#B68C6E"/>
<path d="M35.8845 8.97619C38.029 8.04762 41.2457 7.19643 45.4581 6.42262C45.8411 6.34524 46.224 6.34524 46.607 6.5C50.4364 7.7381 51.3555 10.6786 51.3555 10.8333C51.4321 11.1429 51.6619 11.2976 51.9682 11.2976C52.0448 11.2976 52.0448 11.2976 52.1214 11.2976C52.4277 11.2202 52.6575 10.8333 52.5809 10.5238C52.5043 10.369 51.5087 6.80952 46.9899 5.33929C46.4538 5.18452 45.8411 5.10714 45.305 5.26191C41.016 5.95833 37.6461 6.88691 35.5016 7.89286C35.1952 8.04762 35.042 8.35714 35.1952 8.74405C35.2718 8.97619 35.5782 9.05357 35.8845 8.97619Z" fill="#B68C6E"/>
<path d="M14.5162 6.5C14.8991 6.42262 15.2821 6.34524 15.665 6.42262C19.8774 7.11905 23.0941 7.97024 25.2386 8.97619C25.545 9.13095 25.9279 8.97619 26.0811 8.66667C26.2343 8.35714 26.0811 7.97024 25.7748 7.81548C23.5537 6.80952 20.2603 5.95833 15.9714 5.18452C15.3586 5.10714 14.8225 5.10714 14.2864 5.26191C9.76764 6.73214 8.77199 10.2917 8.6954 10.4464C8.61881 10.756 8.77199 11.1429 9.15493 11.2202C9.23152 11.2202 9.23152 11.2202 9.30811 11.2202C9.53788 11.2202 9.84423 11.0655 9.92082 10.756C9.76764 10.756 10.6101 7.7381 14.5162 6.5Z" fill="#B68C6E"/>
<path d="M48.1388 31.2619C47.909 31.4167 47.6792 31.5714 47.526 31.7262C47.2197 31.9583 47.2197 32.2679 47.3729 32.5774C47.526 32.7321 47.6792 32.8095 47.909 32.8095C48.0622 32.8095 48.1388 32.8095 48.2919 32.7321C48.5217 32.5774 48.7515 32.4226 48.9812 32.2679C49.211 32.0357 49.2876 31.6488 49.0578 31.4167C48.7515 31.0298 48.3685 31.0298 48.1388 31.2619Z" fill="#B68C6E"/>
<path d="M42.6243 34.3571C42.1648 34.5119 41.935 34.5893 41.8585 34.5893C41.5521 34.6667 41.3989 35.0536 41.4755 35.3631C41.5521 35.5952 41.7819 35.8274 42.0882 35.8274C42.1648 35.8274 42.2414 35.8274 42.2414 35.8274C42.2414 35.8274 42.5478 35.75 43.0073 35.5179C43.3136 35.3631 43.4668 35.0536 43.3902 34.744C43.3136 34.3571 42.9307 34.2024 42.6243 34.3571Z" fill="#B68C6E"/>
<path d="M45.4581 32.9643C45.2284 33.119 44.9986 33.1964 44.7688 33.3512C44.4625 33.506 44.3859 33.8929 44.5391 34.2024C44.6157 34.4345 44.8454 34.5119 45.0752 34.5119C45.1518 34.5119 45.2284 34.5119 45.3815 34.4345C45.6113 34.2798 45.8411 34.2024 46.1474 34.0476C46.4538 33.8929 46.5304 33.506 46.3772 33.1964C46.1474 32.8869 45.7645 32.8095 45.4581 32.9643Z" fill="#B68C6E"/>
<path d="M16.7372 31.881C16.5075 31.7262 16.2777 31.6488 16.0479 31.494C15.7416 31.3393 15.3586 31.4167 15.2055 31.7262C15.0523 32.0357 15.1289 32.4226 15.4352 32.5774C15.665 32.7321 15.8948 32.8869 16.2011 32.9643C16.2777 33.0417 16.3543 33.0417 16.5075 33.0417C16.7372 33.0417 16.967 32.8869 17.0436 32.7321C17.1968 32.4226 17.0436 32.0357 16.7372 31.881Z" fill="#B68C6E"/>
<path d="M14.0566 30.256C13.8269 30.1012 13.5971 29.9464 13.4439 29.7917C13.2142 29.5595 12.8312 29.6369 12.6014 29.869C12.3717 30.1012 12.4483 30.4881 12.678 30.7202C12.9078 30.875 13.1376 31.0298 13.3673 31.1845C13.4439 31.2619 13.5971 31.2619 13.7503 31.2619C13.9035 31.2619 14.1332 31.1845 14.2864 31.0298C14.363 30.7976 14.2864 30.4107 14.0566 30.256Z" fill="#B68C6E"/>
<path d="M19.6476 33.119C19.6476 33.119 19.3413 33.0417 18.8817 32.8869C18.5754 32.7321 18.1924 32.8869 18.1159 33.2738C17.9627 33.5833 18.1159 33.9702 18.4988 34.0476C19.0349 34.2798 19.2647 34.3571 19.2647 34.3571C19.3413 34.3571 19.4179 34.3571 19.4179 34.3571C19.6476 34.3571 19.8774 34.2024 20.0306 33.8929C20.1838 33.5833 19.954 33.2738 19.6476 33.119Z" fill="#B68C6E"/>
<path d="M30.5999 14.7798C30.9062 14.7798 31.2126 14.4702 31.2126 14.1607V13.3095C31.2126 13 30.9062 12.6905 30.5999 12.6905C30.2935 12.6905 29.9872 13 29.9872 13.3095V14.1607C29.9872 14.5476 30.2935 14.7798 30.5999 14.7798Z" fill="#B68C6E"/>
<path d="M30.5999 11.5298C30.9062 11.5298 31.2126 11.2202 31.2126 10.9107V10.0595C31.2126 9.75 30.9062 9.44048 30.5999 9.44048C30.2935 9.44048 29.9872 9.75 29.9872 10.0595V10.9107C29.9872 11.2202 30.2935 11.5298 30.5999 11.5298Z" fill="#B68C6E"/>
<path d="M30.5999 21.3571C30.9062 21.3571 31.2126 21.0476 31.2126 20.7381V19.8869C31.2126 19.5774 30.9062 19.2679 30.5999 19.2679C30.2935 19.2679 29.9872 19.5774 29.9872 19.8869V20.7381C29.9872 21.0476 30.2935 21.3571 30.5999 21.3571Z" fill="#B68C6E"/>
<path d="M30.5999 18.1071C30.9062 18.1071 31.2126 17.7976 31.2126 17.4881V16.6369C31.2126 16.3274 30.9062 16.0179 30.5999 16.0179C30.2935 16.0179 29.9872 16.3274 29.9872 16.6369V17.4881C29.9872 17.7976 30.2935 18.1071 30.5999 18.1071Z" fill="#B68C6E"/>
<path d="M36.727 17.1786C36.4206 17.3333 36.2675 17.6429 36.4206 17.9524C36.4206 17.9524 36.5738 18.2619 36.8036 18.7262C36.8802 18.9583 37.1099 19.0357 37.3397 19.0357C37.4163 19.0357 37.5695 19.0357 37.6461 18.9583C37.9524 18.8036 38.029 18.4167 37.8758 18.1071C37.6461 17.7976 37.5695 17.5655 37.5695 17.5655C37.4163 17.256 37.0333 17.1012 36.727 17.1786Z" fill="#B68C6E"/>
<path d="M39.2544 20.0417C39.0247 19.8095 38.6417 19.8095 38.4119 20.0417C38.1822 20.2738 38.1822 20.6607 38.4119 20.8929C38.6417 21.125 38.8715 21.2798 39.0247 21.5119C39.1012 21.5893 39.2544 21.6667 39.4076 21.6667C39.5608 21.6667 39.7906 21.5893 39.8671 21.4345C40.0969 21.2024 40.0203 20.8155 39.7906 20.5833C39.6374 20.3512 39.4076 20.1964 39.2544 20.0417Z" fill="#B68C6E"/>
<path d="M42.0882 23.1369C42.1648 23.1369 42.1648 23.1369 42.2414 23.1369C42.4712 23.1369 42.7775 22.9821 42.8541 22.6726C42.9307 22.3631 42.7775 21.9762 42.4712 21.8988C42.2414 21.8214 42.0116 21.744 41.7819 21.6667C41.4755 21.5119 41.0926 21.6667 41.016 21.9762C40.8628 22.2857 41.016 22.6726 41.3223 22.75C41.5521 22.9048 41.8585 23.0595 42.0882 23.1369Z" fill="#B68C6E"/>
<path d="M48.2919 21.2798C48.0622 21.3571 47.8324 21.5119 47.6026 21.5893C47.2963 21.744 47.1431 22.0536 47.2963 22.3631C47.3729 22.5952 47.6026 22.75 47.8324 22.75C47.909 22.75 47.9856 22.75 48.0622 22.6726C48.2919 22.5952 48.5983 22.4405 48.8281 22.2857C49.1344 22.131 49.2876 21.744 49.1344 21.4345C48.9812 21.2798 48.5983 21.125 48.2919 21.2798Z" fill="#B68C6E"/>
<path d="M44.6922 23.4464C44.9986 23.4464 45.305 23.4464 45.5347 23.369C45.8411 23.369 46.1474 23.0595 46.0709 22.6726C46.0709 22.3631 45.7645 22.0536 45.3815 22.131C45.1518 22.131 44.8454 22.2083 44.6157 22.2083C44.3093 22.2083 44.0029 22.5179 44.0029 22.8274C44.0795 23.2143 44.3859 23.4464 44.6922 23.4464Z" fill="#B68C6E"/>
<path d="M50.896 19.5774C50.7428 19.7321 50.513 19.8869 50.2832 20.0417C50.0535 20.2738 49.9769 20.6607 50.2067 20.8929C50.3598 21.0476 50.513 21.125 50.6662 21.125C50.8194 21.125 50.896 21.0476 51.0491 20.9702C51.2789 20.8155 51.5087 20.5833 51.7384 20.4286C51.9682 20.1964 52.0448 19.8095 51.815 19.5774C51.5087 19.3452 51.1257 19.3452 50.896 19.5774Z" fill="#B68C6E"/>
<path d="M20.6433 21.6667C20.4135 21.744 20.1838 21.8214 19.954 21.8988C19.6476 21.9762 19.4179 22.3631 19.571 22.6726C19.6476 22.9048 19.8774 23.1369 20.1838 23.1369C20.2603 23.1369 20.2603 23.1369 20.3369 23.1369C20.6433 23.0595 20.8731 22.9821 21.1794 22.8274C21.4858 22.6726 21.6389 22.3631 21.4858 22.0536C21.256 21.744 20.9496 21.5893 20.6433 21.6667Z" fill="#B68C6E"/>
<path d="M14.7459 21.5893C14.5162 21.5119 14.2864 21.3571 14.0566 21.2798C13.7503 21.125 13.3673 21.2798 13.2142 21.5893C13.061 21.8988 13.2142 22.2857 13.5205 22.4405C13.7503 22.5952 14.0566 22.6726 14.2864 22.8274C14.363 22.8274 14.4396 22.9048 14.5162 22.9048C14.7459 22.9048 14.9757 22.75 15.0523 22.5179C15.2055 22.131 15.0523 21.744 14.7459 21.5893Z" fill="#B68C6E"/>
<path d="M12.0653 20.0417C11.8355 19.8869 11.6824 19.7321 11.4526 19.5774C11.2228 19.3452 10.8399 19.3452 10.6101 19.6548C10.3804 19.8869 10.3804 20.2738 10.6867 20.506C10.9165 20.6607 11.1462 20.8929 11.376 21.0476C11.4526 21.125 11.6058 21.2024 11.759 21.2024C11.9121 21.2024 12.1419 21.125 12.2185 20.9702C12.3717 20.6607 12.3717 20.2738 12.0653 20.0417Z" fill="#B68C6E"/>
<path d="M18.269 22.8274C18.269 22.5179 18.0393 22.2083 17.6563 22.2083C17.4265 22.2083 17.1202 22.2083 16.8904 22.131C16.5841 22.131 16.2777 22.3631 16.2011 22.6726C16.2011 22.9821 16.4309 23.2917 16.7372 23.369C17.0436 23.369 17.35 23.4464 17.5797 23.4464C18.0393 23.4464 18.269 23.2143 18.269 22.8274Z" fill="#B68C6E"/>
<path d="M23.3239 21.5119C23.5537 21.3571 23.7834 21.125 23.9366 20.8929C24.1664 20.6607 24.1664 20.2738 23.9366 20.0417C23.7069 19.8095 23.3239 19.8095 23.0941 20.0417C22.941 20.1964 22.7112 20.4286 22.558 20.5833C22.3282 20.8155 22.2517 21.2024 22.4814 21.4345C22.6346 21.5893 22.7878 21.6667 22.941 21.6667C23.0941 21.5893 23.1707 21.5893 23.3239 21.5119Z" fill="#B68C6E"/>
<path d="M25.6216 17.1786C25.3152 17.0238 24.9323 17.1786 24.8557 17.4881C24.8557 17.4881 24.7791 17.7202 24.5493 18.1071C24.3962 18.4167 24.4727 18.8036 24.7791 18.9583C24.8557 19.0357 25.0089 19.0357 25.0855 19.0357C25.3152 19.0357 25.4684 18.9583 25.6216 18.7262C25.9279 18.2619 26.0045 17.9524 26.0045 17.9524C26.0811 17.7202 25.9279 17.3333 25.6216 17.1786Z" fill="#B68C6E"/>
<path d="M68.0519 49.6786C68.0519 49.6786 67.9753 49.6786 67.9753 49.6012L47.3729 37.7619C48.9812 35.5179 50.2832 33.119 51.4321 30.6429V30.5655C51.5853 30.256 51.7384 29.869 51.8916 29.4821C56.3338 27.7798 61.0823 22.6726 62.1545 19.3452C63.0736 16.4048 62.9204 13.7738 61.7716 12.1488C60.6994 10.756 59.5505 10.0595 58.3251 10.0595C57.8656 10.0595 57.0231 10.369 56.3338 10.6012C56.487 9.44048 56.6401 8.43452 56.7167 7.50595C56.8699 6.26786 57.0231 4.10119 57.0231 4.10119C57.0231 3.79167 56.7933 3.48214 56.487 3.48214C56.1806 3.48214 55.8743 3.71429 55.8743 4.02381C55.8743 4.10119 55.7977 5.33929 55.6445 6.42262C52.198 4.33333 43.3136 0 29.7574 0C16.3543 0 9.3847 4.33333 6.85726 6.34524C6.78067 5.41667 6.62749 4.4881 6.62749 4.41071C6.62749 4.10119 6.32114 3.79167 5.93819 3.86905C5.63184 3.86905 5.32548 4.17857 5.40207 4.56548C5.40207 4.64286 5.63184 6.80952 5.70843 7.66071C5.78501 8.43452 5.93819 9.44048 6.09137 10.6012C5.47866 10.369 4.78936 10.1369 4.483 10.1369C3.25758 10.0595 2.10874 10.756 1.03649 12.2262C-0.188931 13.9286 -0.342109 16.7143 0.653549 19.8095C1.64921 23.0595 5.47866 27.3929 9.69106 29.0179C10.7633 32.4226 13.061 37.9167 18.269 42.869C18.652 46.0417 18.4988 52.8512 15.7416 57.1845C13.5205 60.5893 9.92082 62.8333 5.09571 63.7619C4.78936 63.8393 4.55959 64.1488 4.63618 64.4583C4.71277 64.7679 5.01912 65 5.32548 64.9226C10.5335 63.9167 14.363 61.5179 16.7372 57.8036C19.6476 53.3155 19.7242 46.9702 19.571 44.0298C21.3326 45.5774 23.4771 47.125 25.8513 48.4405C27.3065 49.2917 29.3744 49.756 31.2892 49.756C33.0507 49.6786 34.8123 49.1369 36.2675 48.2857C37.4163 47.5893 39.9437 45.9643 42.7775 43.1012C42.5478 47.0476 43.0073 53.5476 45.8411 57.881C48.2919 61.6726 52.1214 64.0714 57.0997 65H57.1763C57.4826 65 57.7124 64.7679 57.789 64.5357C57.8656 64.2262 57.6358 63.9167 57.3294 63.8393C52.5809 62.9107 49.0578 60.744 46.8367 57.3393C43.7732 52.619 43.6966 45.2679 44.0795 41.8631C44.3093 41.631 44.5391 41.3214 44.7688 41.0893L65.9074 53.3155C65.9074 53.3155 65.9074 53.3155 65.984 53.3155C65.984 53.3155 65.984 53.3155 66.0606 53.3155C66.2904 53.3929 66.5967 53.4702 66.9797 53.4702C67.5924 53.4702 68.3583 53.2381 68.8178 52.4643C69.3539 51.3036 68.588 50.1429 68.0519 49.6786ZM56.104 12.0714C56.104 12.0714 56.1806 12.0714 56.1806 11.994C56.4104 11.7619 57.8656 11.2202 58.3251 11.2202C59.091 11.2202 59.9335 11.6845 60.776 12.7679C61.695 14.006 61.7716 16.25 61.0057 18.881C60.0866 21.6667 56.2572 26 52.5043 27.8571C52.9639 26.619 53.4234 25.3036 53.6532 24.2976C54.802 19.8869 55.5679 15.631 56.104 12.0714ZM1.80238 19.2679C0.959905 16.5595 1.03649 14.1607 2.03215 12.7679C2.79804 11.7619 3.56393 11.2202 4.40641 11.2202H4.483C4.71277 11.2202 5.8616 11.6845 6.39773 11.9167C6.93385 15.3988 7.69974 19.9643 8.84858 24.6071C8.84858 24.6071 8.92517 25.6131 9.30811 27.3155C5.78501 25.6905 2.72145 22.0536 1.80238 19.2679ZM43.1605 41.0893C39.9437 44.5714 36.9568 46.5833 35.7313 47.2798C34.4293 48.0536 32.8975 48.5179 31.2892 48.5952C31.2892 48.5952 31.2892 48.5952 31.2126 48.5952C29.1447 48.5952 27.3831 47.9762 26.3875 47.4345C16.6607 42.0179 12.678 34.125 11.0697 29.3274C11.1462 29.4048 11.2994 29.4048 11.376 29.4048C11.5292 29.4048 11.6824 29.3274 11.8355 29.25C12.0653 29.0179 12.0653 28.631 11.8355 28.3988C11.6824 28.244 11.4526 28.0119 11.2994 27.8571C11.1462 27.625 10.8399 27.5476 10.5335 27.7024C9.99741 25.7679 9.92082 24.6071 9.92082 24.6071C9.92082 24.5298 9.92082 24.4524 9.92082 24.375C9.3847 22.2857 9.00175 20.2738 8.61881 18.3393C8.6954 18.4167 8.77199 18.5714 8.84858 18.6488C9.00175 18.8036 9.15493 18.881 9.30811 18.881C9.46129 18.881 9.61447 18.8036 9.69106 18.7262C9.92082 18.494 9.99741 18.1071 9.76764 17.875C9.53788 17.5655 9.3847 17.4107 9.30811 17.256C9.07834 16.9464 8.77199 16.9464 8.46563 17.1012L8.38904 17.1786C7.69974 13.3095 7.24021 9.90476 6.93385 7.7381C8.54222 6.26786 15.1289 1.16071 29.6042 1.16071C43.62 1.16071 52.5043 5.88095 55.3381 7.66071C55.0318 10.2143 54.5722 13.5417 53.8829 17.1786C53.8063 17.1012 53.8063 17.0238 53.7298 16.9464C53.4234 16.7143 53.0405 16.7917 52.8873 17.1012C52.8107 17.256 52.6575 17.4881 52.4277 17.7202C52.198 17.9524 52.2746 18.3393 52.5043 18.5714C52.5809 18.6488 52.7341 18.7262 52.8873 18.7262C53.0405 18.7262 53.2702 18.6488 53.3468 18.494C53.5 18.2619 53.6532 18.1071 53.7298 18.0298C53.3468 19.8869 52.8873 21.8214 52.3512 23.8333C52.0448 24.994 51.4321 26.8512 50.8194 28.3988C50.6662 28.3988 50.513 28.4762 50.4364 28.631C50.2833 28.8631 50.1301 29.0179 49.9003 29.1726C49.6705 29.4048 49.6705 29.7917 49.9003 30.0238C49.9769 30.1012 50.0535 30.1012 50.1301 30.1786C49.0578 32.6548 47.6792 34.9762 46.1474 37.1429H46.0709L41.8585 36.2917C41.6287 36.2143 41.3223 36.369 41.2457 36.6012C41.0926 36.8333 41.0926 37.1429 41.3223 37.2976L42.318 38.5357L43.7732 40.2381C43.62 40.5476 43.3902 40.8571 43.1605 41.0893ZM43.62 38.0714L43.6966 37.9167L45.9177 38.381C45.9943 38.381 46.0708 38.4583 46.1474 38.4583L66.7499 50.375L65.9074 51.8452L45.0752 39.7738L43.62 38.0714ZM67.669 51.9226C67.5924 52.1548 67.3626 52.2321 67.2094 52.2321L67.7456 51.3036C67.7456 51.4583 67.7456 51.6905 67.669 51.9226Z" fill="#B68C6E"/>
<path d="M30.8296 45.5774C30.5233 45.5774 30.2169 45.8869 30.2169 46.1964V47.0476C30.2169 47.3571 30.5233 47.6667 30.8296 47.6667C31.136 47.6667 31.4423 47.3571 31.4423 47.0476V46.1964C31.4423 45.8095 31.136 45.5774 30.8296 45.5774Z" fill="#B68C6E"/>
<path d="M30.8296 42.25C30.5233 42.25 30.2169 42.5595 30.2169 42.869V43.7202C30.2169 44.0298 30.5233 44.3393 30.8296 44.3393C31.136 44.3393 31.4423 44.0298 31.4423 43.7202V42.869C31.4423 42.5595 31.136 42.25 30.8296 42.25Z" fill="#B68C6E"/>
<path d="M51.5087 13.8512C51.6618 13.5417 51.5087 13.1548 51.2023 13C50.896 12.8452 50.513 13 50.4364 13.3095C50.4364 13.3095 50.2067 13.619 49.5939 13.8512C49.5174 13.7738 49.4408 13.6964 49.3642 13.6964C49.3642 13.6964 49.3642 13.6964 49.2876 13.6964C49.211 13.619 49.211 13.619 49.1344 13.5417C49.1344 13.5417 49.0578 13.4643 48.9812 13.4643C49.0578 13.3869 49.1344 13.3095 49.211 13.2321L49.3642 13.0774C49.8237 12.381 49.8237 11.8393 49.7471 11.6845C49.7471 11.375 49.4408 11.0655 49.0578 11.1429C48.7515 11.1429 48.4451 11.4524 48.5217 11.8393C48.5217 11.8393 48.5217 12.0714 48.2919 12.4583C48.2919 12.4583 48.2919 12.4583 48.2919 12.5357C48.2919 12.5357 48.2919 12.5357 48.2153 12.6131C48.1388 12.6905 48.0622 12.8452 47.909 12.9226C47.526 12.6905 47.1431 12.5357 46.7602 12.381C46.8367 12.3036 46.8367 12.2262 46.9133 12.0714V11.9167C46.9899 11.2976 46.9133 10.756 46.9133 10.6786C46.8367 10.369 46.5304 10.1369 46.224 10.1369C45.9177 10.2143 45.6879 10.5238 45.6879 10.8333C45.6879 10.8333 45.7645 11.2202 45.6879 11.6071C45.6113 11.8393 45.5347 11.9167 45.4581 11.994H45.305C45.2284 11.994 45.0752 11.9167 44.922 11.9167C44.7688 11.9167 44.6922 11.8393 44.6157 11.8393C44.6157 11.6845 44.6157 11.6071 44.6922 11.4524V11.2202C44.6922 10.9881 44.6922 10.6786 44.6922 10.5238C44.6922 10.2143 44.3859 9.90476 44.0029 9.98214C43.6966 9.98214 43.3902 10.2917 43.4668 10.6786C43.4668 10.756 43.4668 11.0655 43.4668 11.2202V11.4524C43.4668 11.6071 43.4668 11.6845 43.3902 11.8393C41.4755 11.8393 40.3267 12.4583 39.714 12.8452H39.6374C39.2544 13.0774 38.4119 13.4643 38.1056 13.619C38.029 13.619 37.9524 13.6964 37.8758 13.6964C37.6461 13.7738 37.4163 13.9286 37.2631 14.0833C36.727 14.5476 36.727 15.0119 36.8802 15.3214C37.1099 16.0952 37.8758 16.25 38.4885 16.4048H38.6417C39.0247 16.4821 39.2544 16.6369 39.331 16.6369C40.5564 17.7976 42.0116 18.2619 43.2371 18.4167C43.2371 18.5714 43.2371 18.6488 43.2371 18.8036C43.1605 19.1131 43.3902 19.4226 43.7732 19.5H43.8498C44.1561 19.5 44.3859 19.2679 44.4625 18.9583C44.4625 18.881 44.4625 18.6488 44.5391 18.4167C44.8454 18.4167 45.2284 18.3393 45.3815 18.3393C45.6113 18.2619 45.9177 18.1845 46.1474 18.1071C46.1474 18.1845 46.1474 18.2619 46.224 18.3393C46.3006 18.6488 46.607 18.881 46.9133 18.881C47.2197 18.8036 47.4495 18.494 47.4495 18.1845C47.4495 18.1071 47.3729 17.9524 47.3729 17.6429C47.7558 17.4107 48.0622 17.1786 48.0622 17.1786C48.2919 17.0238 48.5217 16.7143 48.6749 16.4821C48.7515 16.5595 48.8281 16.6369 48.8281 16.7143C49.0578 17.0238 49.3642 17.0238 49.6705 16.869C49.9769 16.6369 49.9769 16.3274 49.8237 16.0179C49.7471 15.8631 49.5174 15.631 49.3642 15.3988C49.3642 15.3988 49.3642 15.3988 49.3642 15.3214C50.9726 14.9345 51.4321 14.006 51.5087 13.8512ZM43.1605 14.006C43.2371 14.006 43.2371 14.006 43.1605 14.006C43.0839 14.0833 43.2371 14.0833 43.1605 14.006ZM40.0969 15.631C39.7905 15.3214 39.2544 15.1667 38.8715 15.0893H38.7183C38.4885 15.0119 38.1822 14.9345 38.029 14.8571C38.029 14.8571 38.029 14.8571 38.1056 14.7798C38.1822 14.7024 38.2588 14.625 38.4119 14.625C38.4119 14.625 38.4885 14.625 38.5651 14.5476C38.8715 14.3929 39.5608 14.0833 40.1735 13.6964L40.2501 13.619C40.4799 13.5417 40.7096 13.3869 41.016 13.2321C40.8628 13.5417 40.8628 13.9286 40.8628 14.2381C40.8628 15.244 41.3989 16.1726 42.2414 16.7143C41.4755 16.6369 40.7096 16.25 40.0969 15.631ZM43.8498 16.0952C42.8541 16.0952 42.0882 15.3214 42.0882 14.3929V14.3155C42.2414 14.8571 42.7009 15.244 43.2371 15.244C43.8498 15.244 44.3859 14.7024 44.3859 14.0833C44.3859 13.4643 43.9264 13 43.3902 12.9226C43.5434 12.9226 43.6966 12.9226 43.9264 12.9226C43.9264 12.9226 44.0029 12.9226 44.0795 12.9226H44.1561C44.2327 12.9226 44.5391 13 44.8454 13.0774C44.922 13.0774 45.0752 13.0774 45.1518 13.1548C45.2284 13.2321 45.4581 13.3869 45.5347 13.6964V13.7738C45.6113 14.006 45.6879 14.2381 45.6879 14.4702C45.6113 15.3214 44.7688 16.0952 43.8498 16.0952ZM48.2919 14.4702C48.2153 14.7024 48.0622 14.8571 47.9856 15.0119C47.7558 15.3214 47.3729 15.7857 47.1431 16.0179C46.8367 16.25 46.4538 16.5595 46.224 16.6369C45.9943 16.7143 45.6879 16.869 45.3815 16.9464C46.224 16.4048 46.8367 15.4762 46.8367 14.3929C46.8367 14.0833 46.7602 13.7738 46.6836 13.5417C46.9899 13.6964 47.3729 13.8512 47.6792 14.0833C47.6792 14.0833 47.6792 14.0833 47.7558 14.0833C47.8324 14.1607 48.0622 14.3155 48.2919 14.3929C48.2919 14.3929 48.2919 14.3929 48.3685 14.3929C48.2919 14.3929 48.2919 14.4702 48.2919 14.4702Z" fill="#B68C6E"/>
<path d="M16.1245 18.4167C16.1245 18.3393 16.1245 18.2619 16.2011 18.1845C16.4309 18.2619 16.7372 18.3393 16.967 18.4167C17.1968 18.4167 17.5031 18.494 17.8095 18.494C17.8095 18.7262 17.8095 18.9583 17.8861 19.0357C17.9627 19.3452 18.1924 19.5774 18.4988 19.5774H18.5754C18.8817 19.5 19.1115 19.1905 19.1115 18.881C19.1115 18.8036 19.1115 18.6488 19.1115 18.494C20.2603 18.4167 21.7921 17.875 23.0175 16.7143C23.0941 16.6369 23.3239 16.5595 23.7069 16.4821H23.86C24.4727 16.3274 25.2386 16.1726 25.4684 15.3988C25.545 15.0893 25.545 14.625 25.0855 14.1607C24.9323 14.006 24.7025 13.8512 24.4727 13.7738C24.3962 13.7738 24.3196 13.6964 24.3196 13.6964C24.0132 13.5417 23.1707 13.1548 22.7878 12.9226H22.7112C22.0985 12.5357 20.9496 11.9167 19.0349 11.9167C19.0349 11.8393 19.0349 11.6845 18.9583 11.5298V11.2976C18.9583 11.0655 18.9583 10.8333 18.9583 10.756C18.9583 10.4464 18.7286 10.1369 18.4222 10.0595C18.1159 10.0595 17.8095 10.2917 17.7329 10.6012C17.7329 10.6786 17.7329 11.0655 17.7329 11.2976V11.5298C17.7329 11.6845 17.7329 11.8393 17.8095 11.9167C17.7329 11.9167 17.5797 11.9167 17.5031 11.994C17.35 11.994 17.1968 12.0714 17.1202 12.0714C17.1202 12.0714 17.1202 12.0714 17.0436 12.0714C16.967 12.0714 16.967 12.0714 16.967 12.0714H16.8904C16.8138 11.994 16.6607 11.8393 16.6607 11.6845C16.5841 11.2202 16.6607 10.8333 16.6607 10.8333C16.7372 10.5238 16.5075 10.2143 16.1245 10.1369C15.8182 10.0595 15.5118 10.2917 15.4352 10.6786C15.4352 10.756 15.3586 11.2976 15.4352 11.9167C15.5118 12.0714 15.5118 12.2262 15.5884 12.381C15.5118 12.4583 15.3586 12.4583 15.2821 12.5357C15.1289 12.6131 14.8225 12.7679 14.4396 12.9226C14.2864 12.8452 14.2098 12.6905 14.1332 12.5357C14.1332 12.5357 14.1332 12.5357 14.0566 12.4583C14.0566 12.4583 14.0566 12.4583 14.0566 12.381C13.8269 12.0714 13.8269 11.8393 13.8269 11.7619C13.8269 11.4524 13.5971 11.1429 13.2907 11.1429C12.9844 11.1429 12.678 11.375 12.6014 11.6845C12.6014 11.7619 12.6014 12.381 12.9844 13.0774L13.061 13.1548C13.061 13.1548 13.061 13.2321 13.1376 13.2321C13.2142 13.3095 13.2907 13.3869 13.3673 13.4643C13.2907 13.5417 13.2907 13.5417 13.2142 13.5417C13.2142 13.5417 13.2142 13.5417 13.1376 13.5417C13.1376 13.5417 13.061 13.5417 13.061 13.619C13.061 13.619 12.9844 13.619 12.9844 13.6964L12.9078 13.7738C12.8312 13.7738 12.8312 13.8512 12.8312 13.8512C12.2185 13.6964 12.0653 13.3869 11.9887 13.3095C11.8355 13 11.5292 12.8452 11.2228 13C10.9165 13.1548 10.7633 13.5417 10.9165 13.8512C10.9931 14.006 11.4526 14.9345 13.1376 15.1667C13.1376 15.1667 13.1376 15.1667 13.1376 15.244C12.9078 15.4762 12.7546 15.7083 12.678 15.8631C12.4483 16.1726 12.5248 16.5595 12.8312 16.7143C13.1376 16.9464 13.5205 16.869 13.6737 16.5595C13.7503 16.4821 13.8269 16.4048 13.8269 16.3274C13.98 16.5595 14.2098 16.7917 14.4396 17.0238C14.5162 17.0238 14.8225 17.3333 15.1289 17.4881C15.0523 17.7202 15.0523 17.9524 15.0523 18.0298C14.9757 18.3393 15.2055 18.6488 15.5884 18.7262C15.8182 18.9583 16.1245 18.7262 16.1245 18.4167ZM21.1794 13.5417C21.4858 13.6964 21.7155 13.7738 21.9453 13.9286H22.0219C22.6346 14.2381 23.3239 14.625 23.7069 14.7798C23.7069 14.7798 23.7834 14.7798 23.7834 14.8571C23.86 14.9345 24.0132 14.9345 24.0898 15.0119C24.0898 15.0119 24.0898 15.0119 24.1664 15.0893C24.0132 15.1667 23.7068 15.244 23.4771 15.3214H23.3239C22.941 15.3988 22.4048 15.5536 22.0985 15.8631C21.4858 16.4048 20.7199 16.7917 20.0306 17.0238C20.8731 16.4821 21.4092 15.5536 21.4092 14.5476C21.4092 14.2381 21.3326 13.8512 21.1794 13.5417ZM19.0349 14.1607C19.1115 14.1607 19.1115 14.1607 19.0349 14.1607C19.0349 14.3155 19.1115 14.3155 19.0349 14.1607ZM16.8138 13.8512C16.967 13.5417 17.1202 13.3095 17.1968 13.2321C17.2734 13.2321 17.35 13.2321 17.5031 13.1548C17.8095 13.0774 18.1159 13.0774 18.1924 13.0774H18.269C18.3456 13.0774 18.4222 13.0774 18.4222 13.0774C18.5754 13.0774 18.7286 13.0774 18.9583 13.0774C18.4222 13.1548 17.9627 13.619 17.9627 14.2381C17.9627 14.8571 18.4988 15.3988 19.1115 15.3988C19.6476 15.3988 20.1072 15.0119 20.2603 14.4702V14.5476C20.2603 15.4762 19.4945 16.25 18.4988 16.25C17.5031 16.25 16.7372 15.4762 16.7372 14.5476C16.6607 14.3155 16.6607 14.0833 16.8138 13.8512ZM15.0523 16.1726C14.8225 15.9405 14.4396 15.5536 14.2098 15.1667C14.1332 15.0119 14.0566 14.8571 13.9035 14.625C13.9035 14.625 13.9035 14.625 13.9035 14.5476C13.9035 14.5476 13.9035 14.5476 13.98 14.5476C14.2098 14.3929 14.4396 14.2381 14.5162 14.2381L14.6693 14.1607C14.8991 14.0833 15.3586 13.8512 15.5118 13.7738C15.4352 14.006 15.4352 14.3155 15.4352 14.5476C15.4352 15.631 16.0479 16.5595 16.8904 17.1012C16.5841 17.0238 16.2777 16.869 16.0479 16.7917C15.8182 16.7143 15.3586 16.4048 15.0523 16.1726Z" fill="#B68C6E"/>
</svg>
