<svg width="73" height="65" viewBox="0 0 73 65" fill="none" xmlns="http://www.w3.org/2000/svg">
<path d="M5.43115 18.1929C5.59327 18.1929 5.7554 18.1929 5.83646 18.1929C7.53876 18.0293 13.4563 16.3108 20.914 14.1014C31.2088 11.0737 44.0977 7.30945 47.6644 7.30945C47.8265 7.30945 47.9886 7.30945 48.0697 7.30945L48.7182 7.39128C53.2577 8.20958 60.8775 9.51887 68.092 21.3843C68.2541 21.6298 68.4162 21.7116 68.6594 21.7116C69.0647 21.7116 69.389 21.3843 69.389 20.9752C69.389 20.8933 69.389 20.8115 69.3079 20.6478C68.9026 19.1749 64.9306 6.40931 48.394 0.68117C46.4485 0.026525 44.3409 -0.137136 42.2333 0.108356C24.886 2.6451 11.5919 5.8365 2.67504 9.6007C1.7023 10.2553 0.891681 11.2373 0.567433 12.4648C0.243186 13.6104 0.486371 14.8379 1.21593 15.8198C2.3508 17.3746 3.89097 18.1929 5.43115 18.1929ZM1.94549 12.8739C2.18867 12.0556 2.67504 11.401 3.48566 11.1555C12.2403 7.39128 25.4534 4.28172 42.7196 1.74497C43.2871 1.66314 43.9356 1.58131 44.503 1.58131C45.8 1.58131 47.0159 1.74497 48.2318 2.15412C56.6623 5.01819 61.7692 9.92803 64.6874 14.1014C58.7699 7.7186 53.0145 6.73663 49.2856 6.00016L48.6371 5.91833C48.475 5.91833 48.2318 5.8365 47.9076 5.8365C44.0977 5.8365 31.6952 9.51887 20.7518 12.7103C13.7805 14.756 7.37663 16.6381 5.7554 16.8018C5.67433 16.8018 5.51221 16.8018 5.43115 16.8018C4.29628 16.8018 3.24248 16.229 2.26973 15.0015C1.86442 14.3469 1.7023 13.6104 1.94549 12.8739Z" fill="#B68C6E"/>
<path d="M7.13345 28.8309C7.21451 28.8309 7.37663 28.8309 7.4577 28.7491C7.78194 28.5854 7.94407 28.0944 7.70088 27.7671L4.53947 22.3663C4.37734 22.1208 4.13416 22.0389 3.89097 22.0389H3.80991C3.56672 22.0389 3.4046 22.2026 3.24248 22.3663L0.0810619 27.7671C-0.081062 28.0944 1.20792e-07 28.5036 0.324248 28.7491C0.40531 28.8309 0.567433 28.8309 0.648495 28.8309C0.891681 28.8309 1.13487 28.6672 1.21593 28.5036L3.08035 25.3122V35.7047C3.08035 36.1138 3.4046 36.4411 3.80991 36.4411C4.21522 36.4411 4.53947 36.1138 4.53947 35.7047V25.3122L6.56601 28.5036C6.64708 28.7491 6.89026 28.8309 7.13345 28.8309Z" fill="#B68C6E"/>
<path d="M72.7125 46.2608C72.3883 46.0971 71.983 46.179 71.7398 46.5063L69.8754 49.6977V39.3052C69.8754 38.8961 69.5511 38.5687 69.1458 38.5687C68.7405 38.5687 68.4163 38.8961 68.4163 39.3052V49.6977L66.5518 46.5063C66.3897 46.179 65.9033 46.0153 65.5791 46.2608C65.2548 46.4245 65.0927 46.9155 65.3359 47.2428L68.4973 52.6436C68.6594 52.8891 68.9026 52.9709 69.0647 52.9709C69.3079 52.9709 69.5511 52.8072 69.6322 52.6436L72.7936 47.2428C73.1178 46.9155 73.0368 46.4245 72.7125 46.2608Z" fill="#B68C6E"/>
<path d="M30.8846 63.1997C29.8308 63.0361 28.6959 62.8724 27.7232 62.7087C27.3179 62.6269 26.9936 62.8724 26.9125 63.2816C26.8315 63.6907 27.0747 64.018 27.48 64.0999C28.5338 64.3454 29.6687 64.509 30.8035 64.6727H30.8846C31.2088 64.6727 31.5331 64.4272 31.6141 64.018C31.5331 63.6089 31.2088 63.2816 30.8846 63.1997Z" fill="#B68C6E"/>
<path d="M8.75469 47.4064C8.67362 46.9973 8.26831 46.7518 7.94407 46.8336C7.53876 46.9155 7.29557 47.3246 7.37663 47.6519C7.37663 47.7338 7.70088 49.043 8.59256 50.9251C8.75469 51.1706 8.99787 51.3343 9.24106 51.3343C9.32212 51.3343 9.48424 51.3343 9.5653 51.2525C9.88955 51.0888 10.0517 50.6797 9.88955 50.2705C9.07893 48.6339 8.75469 47.4064 8.75469 47.4064Z" fill="#B68C6E"/>
<path d="M24.5618 61.8904C23.508 61.5631 22.5352 61.2358 21.5625 60.8266C21.2382 60.663 20.7518 60.8266 20.6708 61.2358C20.5087 61.5631 20.6708 62.0541 21.0761 62.1359C22.0488 62.5451 23.1026 62.9542 24.2375 63.2816C24.3186 63.2816 24.3996 63.2816 24.4807 63.2816C24.8049 63.2816 25.0481 63.1179 25.1292 62.7906C25.1292 62.3814 24.886 62.0541 24.5618 61.8904Z" fill="#B68C6E"/>
<path d="M11.5108 53.0527C11.2676 52.7254 10.8623 52.6436 10.538 52.8891C10.2138 53.1346 10.1327 53.5437 10.3759 53.871C11.0244 54.7712 11.754 55.6713 12.5646 56.4896C12.7267 56.6533 12.8888 56.7351 13.051 56.7351C13.2131 56.7351 13.3752 56.6533 13.5373 56.4896C13.7805 56.2441 13.7805 55.7531 13.5373 55.5077C12.8078 54.7712 12.1593 53.9529 11.5108 53.0527Z" fill="#B68C6E"/>
<path d="M18.6442 59.3537C17.6715 58.7809 16.7798 58.2081 15.9692 57.5534C15.6449 57.3079 15.2396 57.3898 14.9965 57.7171C14.7533 58.0444 14.8343 58.4536 15.1586 58.6991C16.0503 59.3537 17.023 60.0083 17.9957 60.5812C18.0768 60.663 18.2389 60.663 18.32 60.663C18.5632 60.663 18.8064 60.4993 18.9685 60.3357C19.1306 60.0083 18.9685 59.5992 18.6442 59.3537Z" fill="#B68C6E"/>
<path d="M43.6924 63.0361C42.6386 63.1997 41.5848 63.3634 40.531 63.4452C40.1256 63.4452 39.8825 63.8544 39.8825 64.1817C39.8825 64.5909 40.2067 64.8363 40.612 64.8363C40.612 64.8363 40.612 64.8363 40.6931 64.8363C41.8279 64.7545 42.9628 64.5909 44.0166 64.3454C44.4219 64.2635 44.6651 63.9362 44.584 63.5271C44.4219 63.1997 44.0977 62.9542 43.6924 63.0361Z" fill="#B68C6E"/>
<path d="M59.6616 52.0708C59.3373 51.9071 58.932 51.9889 58.6888 52.3981C58.2024 53.3801 57.635 54.2802 56.9865 55.0985C56.7433 55.4258 56.8244 55.835 57.1486 56.0805C57.3108 56.1623 57.3918 56.2441 57.554 56.2441C57.7971 56.2441 57.9593 56.1623 58.1214 55.9168C58.7699 55.0167 59.4184 54.0347 59.9048 53.0527C60.1479 52.6436 59.9858 52.2344 59.6616 52.0708Z" fill="#B68C6E"/>
<path d="M54.96 57.4716C54.2304 58.2081 53.4198 58.8627 52.5281 59.5174C52.2039 59.7628 52.1228 60.172 52.366 60.4993C52.5281 60.663 52.6902 60.8266 52.9334 60.8266C53.0955 60.8266 53.1766 60.8266 53.3387 60.663C54.2304 60.0083 55.1221 59.2719 55.9327 58.4536C56.1759 58.2081 56.257 57.7171 55.9327 57.4716C55.6895 57.2261 55.2032 57.2261 54.96 57.4716Z" fill="#B68C6E"/>
<path d="M37.2885 63.6089C36.1536 63.6089 35.0998 63.6089 34.046 63.5271C33.6407 63.5271 33.3164 63.7725 33.3164 64.1817C33.3164 64.5909 33.5596 64.9182 33.9649 64.9182C35.0187 65 36.1536 65 37.2885 65C37.6938 65 38.018 64.6727 38.018 64.2635C38.018 63.9362 37.6938 63.6089 37.2885 63.6089Z" fill="#B68C6E"/>
<path d="M62.3366 39.7144C61.9313 39.7144 61.607 40.0417 61.6881 40.4508C61.6881 40.4508 61.6881 40.5327 61.6881 40.6145C61.6881 40.9418 61.6881 41.842 61.526 43.0694C61.4449 43.4786 61.7692 43.8059 62.1745 43.8877H62.2555C62.5798 43.8877 62.904 43.6422 62.9851 43.2331C63.1472 42.0056 63.1472 41.0236 63.1472 40.6145C63.1472 40.4508 63.1472 40.369 63.1472 40.369C63.0662 40.0417 62.7419 39.7962 62.3366 39.7144Z" fill="#B68C6E"/>
<path d="M49.772 61.0721C48.8803 61.5631 47.8265 61.8904 46.8538 62.2178C46.4485 62.2996 46.2863 62.7087 46.3674 63.1179C46.4485 63.4452 46.7727 63.6089 47.0159 63.6089C47.097 63.6089 47.178 63.6089 47.2591 63.6089C48.3129 63.2816 49.4478 62.8724 50.4205 62.3814C50.7447 62.2178 50.9069 61.8086 50.7447 61.3995C50.5016 61.0721 50.0963 60.9085 49.772 61.0721Z" fill="#B68C6E"/>
<path d="M61.7692 45.7698C61.3639 45.688 61.0396 45.9335 60.9585 46.2608C60.7154 47.3246 60.3911 48.3884 60.0669 49.3704C59.9047 49.7795 60.1479 50.1068 60.4722 50.2705C60.5532 50.2705 60.6343 50.3523 60.7154 50.3523C61.0396 50.3523 61.2828 50.1887 61.3639 49.8613C61.7692 48.7976 62.0934 47.7338 62.3366 46.5881C62.4177 46.2608 62.1745 45.8517 61.7692 45.7698Z" fill="#B68C6E"/>
<path d="M58.8509 43.4786C59.0941 43.8059 59.4994 43.8877 59.8237 43.6422C60.1479 43.3967 60.229 42.9876 59.9858 42.6603C59.8237 42.4148 58.3646 40.2872 56.9865 39.2234C57.4729 38.4051 57.7971 37.6686 58.0403 37.1776C58.1214 37.0139 58.2024 36.8503 58.2835 36.7685C65.5791 36.032 67.4435 32.1041 67.5246 31.9405C67.6867 31.6131 67.5246 31.204 67.2003 31.0403C66.8761 30.8766 66.4708 31.0403 66.2276 31.3676C66.2276 31.4495 65.7412 32.3496 64.4442 33.2497C64.2821 33.0861 63.3904 32.2678 62.2555 31.2858C64.12 29.4037 64.3632 27.7671 64.4442 27.6853C64.5253 27.2761 64.2821 26.9488 63.8768 26.867C63.4715 26.7851 63.1472 27.0306 63.0662 27.4398C63.0662 27.5216 62.7419 28.8309 61.2017 30.3857C60.1479 29.4855 58.932 28.5854 58.0403 27.9307C59.7426 25.3122 59.5805 23.3482 59.5805 23.1846C59.5805 22.7754 59.1752 22.5299 58.8509 22.5299C58.4456 22.5299 58.2024 22.9391 58.2024 23.2664C58.2024 23.2664 58.2835 24.903 56.9055 27.0306V27.1124C55.7706 26.5396 54.1493 25.6395 52.8524 25.0667C54.3115 21.7116 53.9872 19.584 53.9062 19.5022C53.8251 19.0931 53.5009 18.8476 53.0955 18.9294C52.6902 19.0112 52.447 19.3385 52.5281 19.7477C52.5281 19.7477 52.8524 21.6298 51.5554 24.4939C49.8531 23.8392 47.3402 22.9391 45.6379 22.4481C45.9621 20.2387 45.6379 18.2747 45.6379 18.1929C45.5568 17.7838 45.2325 17.5383 44.8272 17.6201C44.4219 17.7019 44.1787 18.0293 44.2598 18.4384C44.2598 18.4384 44.503 20.1568 44.2598 22.1208C42.3954 21.7116 39.315 21.1388 37.0453 20.8933C37.0453 20.8115 37.0453 20.7297 37.0453 20.6478C37.0453 19.3385 37.0453 18.2747 37.0453 17.8656C37.0453 17.4564 36.721 17.1291 36.3157 17.2109C35.9104 17.2109 35.6672 17.6201 35.6672 17.9474C35.6672 18.3566 35.6672 19.7477 35.6672 20.6478C35.6672 20.7297 35.6672 20.8115 35.6672 20.8115C32.9922 20.7297 29.4255 20.8115 27.0747 21.1388C26.6694 21.1388 22.4541 21.548 8.91681 26.2941C8.5115 26.4578 8.34938 26.7851 8.5115 27.1943C8.67362 27.6034 8.99787 27.7671 9.40318 27.6034C23.1026 22.8573 27.1557 22.5299 27.2368 22.5299C27.2368 22.5299 27.2368 22.5299 27.3179 22.5299C29.5876 22.2026 33.0733 22.1208 35.7483 22.2026C35.5862 23.4301 35.424 24.412 35.1809 25.0667C33.4786 24.9848 31.9384 25.1485 30.5603 25.3122C30.3982 25.2303 30.155 25.2303 29.9929 25.394L29.9118 25.4758C25.3724 26.2941 22.1299 28.2581 19.698 29.6492C19.1306 29.9765 18.6442 30.3038 18.1579 30.5493L17.8336 30.713C16.0503 31.6131 12.3214 33.5771 10.9434 34.2317C10.7002 34.3135 10.457 34.3954 10.2138 34.559C9.40318 34.9682 8.67362 35.3773 8.10619 35.9501C7.61982 36.3593 6.24177 37.6686 6.8092 39.4689C7.53876 41.8419 10.0517 42.4148 12.4835 42.9876L13.051 43.1512C13.9426 43.3967 14.9965 43.7241 15.8881 44.0514C15.8881 44.0514 15.9692 44.0514 15.9692 44.1332C16.3745 44.2969 16.6177 44.5424 16.8609 44.706C22.9405 50.4342 30.8035 50.6797 34.6945 50.5978C34.8566 52.1526 34.6134 54.362 34.6134 54.362C34.5324 54.7712 34.8566 55.0985 35.1809 55.1803H35.2619C35.5862 55.1803 35.9104 54.9348 35.9915 54.5257C35.9915 54.4439 36.3157 52.2344 36.1536 50.5978C37.5317 50.5978 39.6393 50.3523 41.0984 50.1887C41.2605 51.6616 40.9363 53.7074 40.9363 53.7074C40.8552 54.1165 41.1794 54.4439 41.5037 54.5257C41.909 54.6075 42.2332 54.2802 42.3143 53.9529C42.3143 53.871 42.6386 51.6616 42.4764 49.9432C43.9356 49.6159 45.7189 48.9612 46.8538 48.5521C47.3402 49.9432 47.6644 51.8253 47.6644 51.8253C47.7455 52.2344 48.0697 52.4799 48.475 52.3981C48.8803 52.3163 49.1235 51.9889 49.0425 51.5798C49.0425 51.498 48.7182 49.534 48.1508 47.9792C49.4478 47.3246 50.9879 46.179 52.0417 45.4425C53.0145 46.5881 53.9062 48.4702 53.9062 48.4702C54.0683 48.7976 54.4736 48.9612 54.8789 48.7976C55.2032 48.6339 55.3653 48.2247 55.2032 47.8156C55.1221 47.7337 54.2304 45.7698 53.1766 44.4605C54.4736 43.2331 55.8517 41.351 56.5812 40.369C57.1486 41.1873 58.3646 42.8239 58.8509 43.4786ZM57.2297 29.0764C58.0403 29.6492 59.0941 30.4675 60.1479 31.2858C59.4994 31.7768 58.6888 32.2678 57.7161 32.7588C57.4729 32.5951 57.2297 32.4314 56.9055 32.2678C56.257 31.8586 55.6085 31.4495 55.2032 31.204C55.9327 30.5493 56.6623 29.8129 57.2297 29.0764ZM52.2039 26.4578C53.4198 27.0306 54.8789 27.8489 56.0138 28.4217C55.3653 29.1582 54.6357 29.8129 53.8251 30.4675L53.4198 30.3038C52.4471 29.8129 51.1501 29.24 50.1773 28.8309C50.9879 28.0944 51.6364 27.2761 52.2039 26.4578ZM45.3947 23.9211C46.9348 24.412 49.2856 25.2303 50.9069 25.885C50.3394 26.7033 49.6099 27.4398 48.7182 28.1762C47.2591 27.6034 45.2325 27.0306 43.7734 26.6215C44.4219 25.8032 44.9894 24.903 45.3947 23.9211ZM37.0453 22.3663C39.234 22.6118 42.1522 23.1846 44.0166 23.5937C43.6113 24.6575 42.9628 25.4758 42.0711 26.2123C41.6658 26.1305 40.7741 25.9668 39.9635 25.885C37.937 25.5577 36.9642 25.394 36.8021 25.3122L36.5589 25.2303C36.721 24.4939 36.9642 23.5119 37.0453 22.3663ZM30.2361 26.867C31.8573 26.6215 33.5596 26.4578 35.5051 26.6215C35.5862 26.6215 35.8294 26.6215 36.3157 26.7033H36.64C36.8021 26.7033 38.5044 27.0306 39.7203 27.2761C40.4499 27.4398 41.0173 27.5216 41.4226 27.6034C41.8279 27.8489 43.5302 28.9945 44.3409 31.204V31.2858C44.9083 32.5133 45.2325 33.9044 45.2325 35.2955C45.2325 40.6145 40.8552 44.9515 35.424 44.9515C29.9929 44.9515 25.6156 40.6145 25.6156 35.2955C25.6156 33.8226 25.9398 32.3496 26.5883 31.0403C26.5883 30.8766 27.9664 28.2581 30.2361 26.867ZM13.132 41.6783L12.5646 41.5965C10.3759 41.1055 8.43044 40.6145 7.94407 39.0597C7.78194 38.6506 7.78194 37.9959 8.91681 37.0139C9.40318 36.523 9.97061 36.1956 10.7002 35.8683C10.9434 35.7865 11.1055 35.7047 11.3487 35.6228C11.835 35.4592 12.4025 35.1318 13.132 34.8045C12.4835 36.4411 11.754 39.0597 13.6184 41.8419C13.3752 41.7601 13.2131 41.7601 13.132 41.6783ZM56.8244 36.6048C56.5001 37.1776 56.0138 38.1596 55.4463 39.1415C54.5547 40.369 52.6902 42.8239 51.3932 43.9695C50.1773 44.8697 47.9886 46.4245 46.6917 46.9973C45.3136 47.4883 42.8007 48.3884 41.2605 48.7157C39.9635 48.8794 37.2885 49.2067 35.6672 49.2067C35.6672 49.2067 35.4241 49.2067 34.9377 49.2067C29.2633 49.2885 22.7784 48.6339 17.5094 43.7241C17.1851 43.3967 16.7798 43.1512 16.2934 42.9057C12.4025 39.5507 13.8616 36.4411 14.7533 34.559C14.9154 34.3135 14.9965 34.068 15.0775 33.8226C16.2934 33.1679 17.5094 32.5133 18.4011 32.1041L18.7253 31.9405C19.2117 31.695 19.7791 31.3676 20.3465 31.0403C22.211 29.9765 24.3996 28.5854 27.2368 27.6853C26.1019 28.9945 25.3724 30.222 25.3724 30.3038C24.5618 31.8586 24.2375 33.4952 24.2375 35.2137C24.2375 41.351 29.2633 46.2608 35.5051 46.2608C41.7469 46.2608 46.7727 41.2691 46.7727 35.2137C46.7727 33.6589 46.4485 32.1041 45.8 30.6312C45.4757 29.6492 44.9894 28.9127 44.503 28.2581C45.881 28.6672 47.5833 29.1582 48.7182 29.6492C49.4478 29.9765 51.6364 30.9585 53.0145 31.6131L53.8251 31.9405C54.1494 32.1041 55.4463 32.9224 56.338 33.4952C56.8244 33.8226 57.3108 34.068 57.4729 34.2317C57.554 34.3135 57.8782 34.559 58.1214 34.7227C58.2835 34.8045 58.4456 34.9682 58.5267 35.05C58.5267 35.05 58.6078 35.05 58.6078 35.1318C59.0131 35.3773 59.3373 35.4592 59.6616 35.05C59.9858 34.6409 59.8237 34.3954 59.4994 34.068C59.4994 34.068 59.4994 34.068 59.4184 33.9862C59.3373 33.9044 59.3373 33.9044 59.2563 33.8226C60.1479 33.3316 60.8775 32.8406 61.526 32.3496C62.4177 33.0861 63.1472 33.7407 63.5525 34.1499C62.2555 34.8045 60.5532 35.2955 58.1214 35.541C57.8782 35.541 57.635 35.7047 57.554 35.9501C57.1486 36.032 57.0676 36.2775 56.8244 36.6048C56.9055 36.523 56.9055 36.523 56.8244 36.6048Z" fill="#B68C6E"/>
<path d="M32.5058 36.8503C34.2081 36.8503 35.6672 35.4592 35.6672 33.6589C35.6672 31.8586 34.2892 30.4675 32.5058 30.4675C30.8035 30.4675 29.3444 31.8586 29.3444 33.6589C29.3444 35.4592 30.8035 36.8503 32.5058 36.8503ZM32.5058 31.9405C33.4786 31.9405 34.2081 32.7588 34.2081 33.6589C34.2081 34.6409 33.3975 35.3773 32.5058 35.3773C31.5331 35.3773 30.8035 34.559 30.8035 33.6589C30.8035 32.6769 31.6141 31.9405 32.5058 31.9405Z" fill="#B68C6E"/>
</svg>
