<svg width="101" height="95" viewBox="0 0 101 95" fill="none" xmlns="http://www.w3.org/2000/svg">
<path d="M92.094 24.1152C77.8584 3.65109 23.5839 14.3282 12.9069 38.3512C2.2299 62.3741 18.2452 82.5242 44.9374 82.8382C71.6295 83.1522 106.33 44.5793 92.094 24.1152Z" stroke="#B68C6E" stroke-width="0.591282"/>
<path opacity="0.2" d="M20.5163 77.7657C40.7832 95.6366 88.7326 80.8424 91.3231 51.9906C93.9136 23.1388 74.5344 3.13326 43.7855 10.7617C13.0366 18.3902 0.249406 59.8948 20.5163 77.7657Z" stroke="#B68C6E" stroke-width="0.591282"/>
<path d="M56.3808 47.6847C56.4963 47.8002 56.4963 47.9874 56.3808 48.1028L54.4994 49.9843C54.3839 50.0998 54.1968 50.0998 54.0813 49.9843C53.9658 49.8688 53.9658 49.6817 54.0813 49.5662L55.7537 47.8938L54.0813 46.2214C53.9658 46.1059 53.9658 45.9188 54.0813 45.8033C54.1968 45.6878 54.3839 45.6878 54.4994 45.8033L56.3808 47.6847ZM43.7549 47.5982H56.1718V48.1894H43.7549V47.5982Z" fill="#B68C6E"/>
</svg>
