<svg width="40" height="40" viewBox="0 0 40 40" fill="none" xmlns="http://www.w3.org/2000/svg">
<rect x="0.5" y="0.5" width="39" height="39" stroke="white"/>
<path fill-rule="evenodd" clip-rule="evenodd" d="M25.518 32.4807H14.7494C12.8454 32.4807 11.0194 31.7244 9.67301 30.3783C8.32667 29.0321 7.57031 27.2063 7.57031 25.3025V14.1763C7.57031 12.2725 8.32667 10.4467 9.67301 9.1005C11.0194 7.75432 12.8454 6.99805 14.7494 6.99805H25.518C27.4221 6.99805 29.2481 7.75432 30.5944 9.1005C31.9408 10.4467 32.6971 12.2725 32.6971 14.1763V25.3025C32.6971 27.2063 31.9408 29.0321 30.5944 30.3783C29.2481 31.7244 27.4221 32.4807 25.518 32.4807ZM30.3639 13.6379C30.3639 12.448 29.8912 11.3069 29.0497 10.4655C28.2083 9.62418 27.067 9.15151 25.877 9.15151H14.211C13.021 9.15151 11.8797 9.62418 11.0382 10.4655C10.1968 11.3069 9.72404 12.448 9.72404 13.6379V25.3025C9.72404 26.4924 10.1968 27.6335 11.0382 28.4749C11.8797 29.3162 13.021 29.7889 14.211 29.7889H25.877C27.067 29.7889 28.2083 29.3162 29.0497 28.4749C29.8912 27.6335 30.3639 26.4924 30.3639 25.3025V13.6379ZM26.7744 14.3557C26.4549 14.3557 26.1426 14.261 25.877 14.0835C25.6113 13.9061 25.4043 13.6538 25.282 13.3587C25.1598 13.0636 25.1278 12.7388 25.1901 12.4255C25.2525 12.1122 25.4063 11.8245 25.6322 11.5986C25.8581 11.3727 26.1459 11.2189 26.4592 11.1566C26.7726 11.0942 27.0974 11.1262 27.3925 11.2485C27.6877 11.3707 27.94 11.5777 28.1175 11.8433C28.295 12.1089 28.3897 12.4212 28.3897 12.7406C28.3897 13.169 28.2195 13.5798 27.9166 13.8827C27.6137 14.1856 27.2028 14.3557 26.7744 14.3557ZM20.044 26.1998C18.7483 26.1998 17.4818 25.8156 16.4045 25.0959C15.3272 24.3761 14.4876 23.3532 13.9917 22.1563C13.4959 20.9594 13.3662 19.6424 13.6189 18.3718C13.8717 17.1012 14.4956 15.9341 15.4118 15.018C16.3279 14.102 17.4952 13.4781 18.766 13.2254C20.0367 12.9727 21.3539 13.1024 22.5509 13.5981C23.7479 14.0939 24.7711 14.9334 25.4909 16.0106C26.2107 17.0878 26.5949 18.3542 26.5949 19.6497C26.5949 21.3869 25.9047 23.0529 24.6762 24.2813C23.4477 25.5097 21.7814 26.1998 20.044 26.1998ZM20.044 15.4325C19.2098 15.4325 18.3943 15.6798 17.7007 16.1432C17.0071 16.6066 16.4666 17.2652 16.1473 18.0358C15.8281 18.8064 15.7446 19.6543 15.9073 20.4724C16.0701 21.2904 16.4717 22.0419 17.0616 22.6317C17.6515 23.2215 18.403 23.6231 19.2212 23.7858C20.0393 23.9485 20.8873 23.865 21.658 23.5458C22.4287 23.2267 23.0874 22.6861 23.5509 21.9926C24.0143 21.2991 24.2617 20.4837 24.2617 19.6497C24.2617 18.5312 23.8173 17.4585 23.0264 16.6676C22.2354 15.8768 21.1626 15.4325 20.044 15.4325Z" fill="white"/>
</svg>
