<svg width="96" height="90" viewBox="0 0 96 90" fill="none" xmlns="http://www.w3.org/2000/svg">
<path d="M86.8315 23.0832C73.4094 3.78847 22.2362 13.8555 12.1693 36.5057C2.10246 59.1559 17.2026 78.1545 42.3695 78.4506C67.5364 78.7467 100.254 42.378 86.8315 23.0832Z" stroke="white" stroke-width="0.557494"/>
<path opacity="0.2" d="M19.344 73.6679C38.4528 90.5176 83.6622 76.5689 86.1047 49.3657C88.5472 22.1626 70.2753 3.30019 41.2835 10.4927C12.2917 17.6853 0.235216 56.8182 19.344 73.6679Z" stroke="white" stroke-width="0.557494"/>
<path d="M53.1591 45.3059C53.2679 45.4148 53.2679 45.5913 53.1591 45.7001L51.3851 47.4741C51.2763 47.5829 51.0998 47.5829 50.9909 47.4741C50.8821 47.3652 50.8821 47.1887 50.9909 47.0799L52.5677 45.503L50.9909 43.9262C50.8821 43.8173 50.8821 43.6409 50.9909 43.532C51.0998 43.4231 51.2763 43.4231 51.3851 43.532L53.1591 45.3059ZM41.2546 45.2243H52.962V45.7818H41.2546V45.2243Z" fill="white"/>
</svg>
