<svg width="171" height="161" viewBox="0 0 171 161" fill="none" xmlns="http://www.w3.org/2000/svg">
<path d="M155.753 40.7847C131.677 6.17488 39.8859 24.2325 21.8285 64.8611C3.77116 105.49 30.8569 139.568 75.9998 140.099C121.143 140.63 179.829 75.3944 155.753 40.7847Z" stroke="white"/>
<path opacity="0.2" d="M34.6979 131.52C68.9741 161.744 150.068 136.724 154.449 87.9287C158.83 39.1333 126.055 5.29905 74.0517 18.2006C22.0479 31.1021 0.421671 101.297 34.6979 131.52Z" stroke="white"/>
<path d="M95.3536 80.6464C95.5488 80.8417 95.5488 81.1583 95.3536 81.3536L92.1716 84.5355C91.9763 84.7308 91.6597 84.7308 91.4645 84.5355C91.2692 84.3403 91.2692 84.0237 91.4645 83.8284L94.2929 81L91.4645 78.1716C91.2692 77.9763 91.2692 77.6597 91.4645 77.4645C91.6597 77.2692 91.9763 77.2692 92.1716 77.4645L95.3536 80.6464ZM74 80.5H95V81.5H74V80.5Z" fill="white"/>
</svg>
