<svg width="25" height="24" viewBox="0 0 25 24" fill="none" xmlns="http://www.w3.org/2000/svg">
<path fill-rule="evenodd" clip-rule="evenodd" d="M17.8571 24H7.14286C5.24845 24 3.43163 23.2877 2.09209 22.0199C0.752543 20.752 0 19.0324 0 17.2394V6.76056C0 4.96755 0.752543 3.24797 2.09209 1.98012C3.43163 0.712272 5.24845 0 7.14286 0H17.8571C19.7515 0 21.5684 0.712272 22.9079 1.98012C24.2475 3.24797 25 4.96755 25 6.76056V17.2394C25 18.1272 24.8152 19.0064 24.4563 19.8266C24.0973 20.6468 23.5712 21.3921 22.9079 22.0199C22.2446 22.6477 21.4572 23.1456 20.5906 23.4854C19.724 23.8251 18.7952 24 17.8571 24ZM22.6786 6.25352C22.6786 5.13289 22.2082 4.05815 21.371 3.26575C20.5338 2.47334 19.3983 2.02817 18.2143 2.02817H6.60714C5.42314 2.02817 4.28764 2.47334 3.45043 3.26575C2.61321 4.05815 2.14286 5.13289 2.14286 6.25352V17.2394C2.14286 18.3601 2.61321 19.4348 3.45043 20.2272C4.28764 21.0196 5.42314 21.4648 6.60714 21.4648H18.2143C19.3983 21.4648 20.5338 21.0196 21.371 20.2272C22.2082 19.4348 22.6786 18.3601 22.6786 17.2394V6.25352ZM19.1071 6.92958C18.7893 6.92958 18.4786 6.84036 18.2143 6.67322C17.95 6.50608 17.744 6.26851 17.6223 5.99056C17.5007 5.71261 17.4689 5.40676 17.5309 5.11169C17.5929 4.81662 17.7459 4.54559 17.9707 4.33285C18.1955 4.12012 18.4818 3.97524 18.7936 3.91655C19.1054 3.85786 19.4285 3.88798 19.7222 4.00311C20.0158 4.11824 20.2668 4.31321 20.4434 4.56336C20.62 4.81351 20.7143 5.1076 20.7143 5.40845C20.7143 5.81188 20.545 6.19878 20.2436 6.48405C19.9422 6.76932 19.5334 6.92958 19.1071 6.92958ZM12.4107 18.0845C11.1216 18.0845 9.86144 17.7227 8.78959 17.0448C7.71773 16.367 6.88233 15.4035 6.38901 14.2763C5.89569 13.149 5.7666 11.9086 6.01809 10.712C6.26958 9.51531 6.89035 8.41609 7.80188 7.55334C8.71342 6.69059 9.87479 6.10305 11.1391 5.86501C12.4035 5.62698 13.714 5.74915 14.905 6.21607C16.096 6.68298 17.1139 7.47368 17.8301 8.48817C18.5463 9.50266 18.9286 10.6954 18.9286 11.9155C18.9286 13.5516 18.2419 15.1207 17.0195 16.2776C15.7972 17.4346 14.1394 18.0845 12.4107 18.0845ZM12.4107 7.94366C11.5807 7.94366 10.7694 8.17661 10.0793 8.61304C9.3892 9.04947 8.85134 9.66978 8.53372 10.3955C8.2161 11.1213 8.133 11.9199 8.29492 12.6904C8.45684 13.4608 8.8565 14.1685 9.44338 14.724C10.0303 15.2795 10.778 15.6578 11.592 15.811C12.4061 15.9643 13.2498 15.8856 14.0166 15.585C14.7834 15.2844 15.4388 14.7753 15.8999 14.1221C16.361 13.469 16.6071 12.701 16.6071 11.9155C16.6071 10.8621 16.165 9.85185 15.378 9.10698C14.5911 8.36212 13.5237 7.94366 12.4107 7.94366Z" fill="white"/>
</svg>
