<svg width="56" height="46" viewBox="0 0 56 46" fill="none" xmlns="http://www.w3.org/2000/svg">
<path d="M55.9765 18.9184C55.9648 18.8712 54.3989 14.6448 51.7852 10.7372C49.5365 7.36087 40.93 -1.00917 34.902 0.100544C29.9336 1.00956 0.605869 8.54142 0.311532 8.62405C0.111383 8.67128 -0.0298983 8.87197 0.00542212 9.08447L1.24164 17.5844C1.26518 17.7142 1.33583 17.8205 1.44179 17.8795C1.54775 17.9385 1.67726 17.9503 1.79499 17.9149C1.97159 17.8441 19.5376 11.1622 27.9439 8.7185C28.615 8.52961 29.239 8.34072 29.8159 8.17545C36.5856 6.18033 37.6217 5.87339 43.7557 7.49073C50.2664 9.20252 55.1877 19.1663 55.2348 19.2725C55.3055 19.4142 55.4467 19.5086 55.5998 19.5086C55.6587 19.5086 55.7058 19.4968 55.7646 19.4732C55.953 19.3552 56.0472 19.1191 55.9765 18.9184ZM43.9558 6.66436C37.6099 4.99979 36.3855 5.35395 29.5804 7.36088C29.0035 7.52615 28.3795 7.71504 27.7084 7.90392C20.0557 10.1351 4.86787 15.849 1.97159 16.9351L0.864886 9.30877C4.25565 8.43517 30.4045 1.7415 35.0433 0.891507C40.4356 -0.100148 48.7359 7.65601 51.0906 11.174C51.4791 11.7643 51.8558 12.3546 52.1973 12.9448C50.1134 10.2886 47.2524 7.53796 43.9558 6.66436Z" fill="#B68C6E"/>
<path d="M48.4533 28.8585C48.3356 28.9058 37.0919 33.3328 27.261 34.0293C17.4537 34.7258 4.02018 30.405 3.89067 30.3578C3.69052 30.2988 3.4786 30.3814 3.39618 30.5703C3.31377 30.7592 3.36086 30.9835 3.53747 31.0898C3.61988 31.1488 5.15043 32.1759 7.77592 33.4508C7.1637 35.08 6.08054 37.1459 5.30349 37.205C5.07979 37.2168 4.90319 37.4175 4.92674 37.6418C4.93851 37.8543 5.12689 38.0195 5.33881 38.0195C5.35058 38.0195 5.36236 38.0195 5.37413 38.0195C6.82227 37.9133 8.05848 35.0446 8.52942 33.805C9.08278 34.0647 9.68322 34.3244 10.319 34.596C10.7311 34.773 11.1667 34.9501 11.6258 35.1272C10.7664 37.205 9.12987 40.1917 7.90543 40.3924C7.68173 40.4278 7.52868 40.6403 7.564 40.8646C7.59932 41.0653 7.77592 41.207 7.9643 41.207C7.98784 41.207 8.01139 41.207 8.03494 41.207C9.96579 40.8764 11.826 36.7682 12.3794 35.4105C13.4861 35.8119 14.7105 36.2251 16.0291 36.5911C15.9349 37.2286 15.1579 41.8917 12.6501 42.907C12.4382 42.9896 12.3323 43.2375 12.4264 43.4382C12.4853 43.6035 12.6501 43.6979 12.815 43.6979C12.8621 43.6979 12.9209 43.6861 12.968 43.6625C15.8172 42.5174 16.6884 37.807 16.8415 36.8036C17.9247 37.0869 19.0667 37.3466 20.2676 37.5709V37.5827C20.1852 39.1529 19.5141 43.4382 17.489 44.3236C17.2771 44.4181 17.1829 44.6542 17.2771 44.8667C17.3478 45.0201 17.5008 45.1146 17.6539 45.1146C17.7127 45.1146 17.7598 45.1028 17.8187 45.0792C20.5737 43.875 21.0446 38.48 21.0917 37.7126C22.3279 37.9133 23.623 38.0786 24.9534 38.173C24.7297 39.4008 24.0586 43.2257 23.988 45.575C23.9762 45.7993 24.1646 45.9882 24.3883 46H24.4001C24.6238 46 24.8004 45.8229 24.8121 45.5986C24.8828 43.2729 25.5892 39.3181 25.7893 38.2202C26.2132 38.2438 26.6488 38.2556 27.0844 38.2675C27.261 38.2675 27.4259 38.2675 27.6025 38.2675C28.1911 38.2675 28.768 38.2438 29.3449 38.2084C29.5098 39.4244 29.9572 43.3202 29.3096 45.4451C29.239 45.6576 29.3685 45.8938 29.5804 45.9646C29.6157 45.9764 29.6628 45.9882 29.6981 45.9882C29.8747 45.9882 30.0396 45.8701 30.0867 45.6931C30.7931 43.4146 30.3457 39.4716 30.1691 38.1494C31.0992 38.0668 31.994 37.9369 32.8652 37.7834C33.395 38.964 35.3494 43.2375 36.8682 44.3236C36.9388 44.3709 37.0212 44.4063 37.1037 44.4063C37.2332 44.4063 37.3627 44.3472 37.4451 44.2292C37.5746 44.0403 37.5393 43.7806 37.3509 43.6507C36.1853 42.8243 34.4782 39.3654 33.7011 37.6182C35.1022 37.323 36.409 36.9334 37.6099 36.5084C38.1162 37.5709 39.7174 40.7348 41.5187 42.0098C41.5894 42.057 41.6718 42.0806 41.7542 42.0806C41.8837 42.0806 42.0132 42.0216 42.0956 41.9035C42.2251 41.7146 42.178 41.4549 42.0014 41.3251C40.412 40.1917 38.905 37.264 38.387 36.2015C39.5408 35.7529 40.6004 35.2689 41.5423 34.7849C41.9426 35.7647 43.0375 38.1376 44.521 39.1647C44.5916 39.2119 44.674 39.2355 44.7564 39.2355C44.8859 39.2355 45.0154 39.1765 45.0979 39.0584C45.2274 38.8695 45.1803 38.6098 44.9919 38.48C43.6615 37.5591 42.6254 35.2571 42.2722 34.3953C42.5312 34.2536 42.7785 34.1119 43.0139 33.9703C43.5673 33.6515 44.0853 33.321 44.5563 33.014C44.9448 33.9113 45.8867 35.8237 47.1935 36.8744C47.2642 36.9334 47.3584 36.9689 47.4526 36.9689C47.5703 36.9689 47.6998 36.9098 47.7704 36.8154C47.9117 36.6383 47.8764 36.3786 47.6998 36.2369C46.4636 35.2571 45.557 33.2974 45.2391 32.5536C47.5703 30.9245 48.8536 29.5905 48.9125 29.5196C49.042 29.378 49.0655 29.1655 48.9596 29.0002C48.8418 28.8585 48.6299 28.7877 48.4533 28.8585ZM42.5666 33.2856C39.1993 35.2571 33.7835 37.5709 27.0609 37.4529C18.2896 37.2994 10.837 34.1356 6.92823 32.105C11.5905 33.3564 20.3382 35.3515 27.3199 34.8557C34.7843 34.3244 43.0375 31.68 46.7579 30.3696C45.7807 31.1724 44.3679 32.2349 42.5666 33.2856Z" fill="#B68C6E"/>
<path d="M13.6862 25.4468C13.7098 25.4468 13.7215 25.4468 13.7451 25.435C14.1925 25.3287 14.6516 25.2107 15.1108 25.1044C15.2403 25.0808 15.3109 24.9509 15.2874 24.8211C15.2639 24.6912 15.1343 24.6204 15.0048 24.644C14.5339 24.7502 14.0747 24.8683 13.6273 24.9746C13.4978 25.01 13.4272 25.1398 13.4507 25.2579C13.4861 25.3759 13.5802 25.4468 13.6862 25.4468Z" fill="#B68C6E"/>
<path d="M22.0101 23.8176C22.0218 23.8176 22.0336 23.8176 22.0454 23.8176C22.5163 23.7468 22.9873 23.6878 23.4464 23.6287C23.5759 23.6169 23.6701 23.4989 23.6466 23.369C23.6348 23.2392 23.5171 23.1447 23.3876 23.1683C22.9284 23.2274 22.4574 23.2864 21.9865 23.3572C21.857 23.3808 21.7628 23.4989 21.7864 23.6287C21.7981 23.735 21.8923 23.8176 22.0101 23.8176Z" fill="#B68C6E"/>
<path d="M19.2197 24.2662C19.2315 24.2662 19.2433 24.2662 19.2668 24.2662C19.7378 24.1836 20.1969 24.101 20.6561 24.0301C20.7856 24.0065 20.868 23.8885 20.8563 23.7586C20.8327 23.6287 20.715 23.5461 20.5855 23.5579C20.1263 23.6287 19.6554 23.7114 19.1844 23.794C19.0549 23.8176 18.9725 23.9357 18.996 24.0655C19.0078 24.1836 19.102 24.2662 19.2197 24.2662Z" fill="#B68C6E"/>
<path d="M16.4412 24.8093C16.453 24.8093 16.4765 24.8093 16.4883 24.8093C16.9357 24.7148 17.4066 24.6204 17.8658 24.5259C17.9953 24.5023 18.0777 24.3725 18.0542 24.2544C18.0306 24.1246 17.9011 24.0419 17.7834 24.0655C17.3124 24.16 16.8533 24.2544 16.3941 24.3489C16.2646 24.3725 16.1822 24.5023 16.2175 24.6322C16.2411 24.7384 16.3352 24.8093 16.4412 24.8093Z" fill="#B68C6E"/>
<path d="M8.29395 27.1231C8.3175 27.1231 8.35282 27.1231 8.37637 27.1113C8.78844 26.9461 9.23583 26.7926 9.695 26.6273C9.81273 26.5801 9.88337 26.4502 9.83628 26.3322C9.78918 26.2141 9.65968 26.1433 9.54194 26.1905C9.071 26.344 8.62361 26.5093 8.19977 26.6745C8.08203 26.7218 8.02316 26.8634 8.07026 26.9815C8.10558 27.0641 8.19976 27.1231 8.29395 27.1231Z" fill="#B68C6E"/>
<path d="M10.9665 26.2023C10.9901 26.2023 11.0136 26.2023 11.0372 26.1905C11.4728 26.0607 11.932 25.9308 12.3911 25.8009C12.5206 25.7655 12.5913 25.6357 12.556 25.5058C12.5206 25.3759 12.3911 25.3051 12.2616 25.3405C11.7907 25.4704 11.3315 25.6002 10.8959 25.7419C10.7664 25.7773 10.6957 25.9072 10.7428 26.037C10.7664 26.1433 10.8606 26.2023 10.9665 26.2023Z" fill="#B68C6E"/>
<path d="M42.9198 25.86C42.9433 25.86 42.9551 25.8718 42.9669 25.8718C43.0728 25.8718 43.167 25.8009 43.1906 25.6829C43.2141 25.553 43.1435 25.435 43.0139 25.3995C42.5783 25.3051 42.1192 25.1989 41.6364 25.0808C41.5069 25.0572 41.3892 25.128 41.3539 25.2579C41.3303 25.3877 41.401 25.5058 41.5305 25.5412C42.025 25.6593 42.4841 25.7655 42.9198 25.86Z" fill="#B68C6E"/>
<path d="M24.8121 23.4635C24.8239 23.4635 24.8239 23.4635 24.8357 23.4635C25.3302 23.4162 25.8011 23.369 26.2367 23.3336C26.3662 23.3218 26.4604 23.2155 26.4487 23.0739C26.4369 22.944 26.3309 22.8496 26.1896 22.8614C25.7423 22.8968 25.2713 22.944 24.7768 22.9912C24.6473 23.003 24.5531 23.1211 24.5649 23.251C24.6002 23.369 24.6944 23.4635 24.8121 23.4635Z" fill="#B68C6E"/>
<path d="M45.6748 26.5093C45.6983 26.5093 45.7101 26.5211 45.7336 26.5211C45.8396 26.5211 45.9338 26.4502 45.9573 26.344C45.9926 26.2141 45.9102 26.0843 45.7807 26.0607C45.4157 25.978 44.9448 25.86 44.4032 25.7301C44.2737 25.6947 44.1442 25.7773 44.1207 25.9072C44.0853 26.037 44.1677 26.1669 44.2973 26.1905C44.8388 26.3086 45.3098 26.4266 45.6748 26.5093Z" fill="#B68C6E"/>
<path d="M37.3862 24.6676C37.398 24.6676 37.4215 24.6676 37.4333 24.6676C37.5393 24.6676 37.6452 24.585 37.6688 24.4787C37.6923 24.3489 37.6099 24.2308 37.4804 24.1954C37.0212 24.101 36.5503 24.0065 36.0911 23.9239C35.9616 23.9003 35.8439 23.9829 35.8203 24.1128C35.7968 24.2426 35.8792 24.3607 36.0087 24.3843C36.4679 24.4787 36.9271 24.5732 37.3862 24.6676Z" fill="#B68C6E"/>
<path d="M40.153 25.2461C40.1648 25.2461 40.1883 25.2461 40.2001 25.2461C40.306 25.2461 40.412 25.1752 40.4356 25.0572C40.4591 24.9273 40.3767 24.8093 40.259 24.7739C39.8116 24.6794 39.3406 24.5732 38.8697 24.4787C38.7402 24.4551 38.6224 24.5378 38.5871 24.6558C38.5518 24.7739 38.646 24.9037 38.7637 24.9391C39.2464 25.0454 39.7056 25.1516 40.153 25.2461Z" fill="#B68C6E"/>
<path d="M29.0271 23.3336C29.0388 23.3336 29.0388 23.3336 29.0506 23.3336C29.1683 23.3336 29.2743 23.2392 29.2861 23.1211C29.2978 22.9912 29.2037 22.8732 29.0741 22.8614C28.5443 22.8142 28.0616 22.7906 27.6378 22.7906C27.5083 22.7906 27.4023 22.8968 27.4023 23.0267C27.4023 23.1565 27.5083 23.2628 27.6378 23.2628C28.0381 23.2746 28.509 23.2982 29.0271 23.3336Z" fill="#B68C6E"/>
<path d="M31.8291 23.676C31.8409 23.676 31.8527 23.676 31.8645 23.676C31.9822 23.676 32.0764 23.5933 32.0999 23.4753C32.1235 23.3454 32.0293 23.2274 31.8998 23.2037C31.4053 23.1329 30.9226 23.0621 30.487 23.0149C30.3575 23.0031 30.2397 23.0857 30.2279 23.2155C30.2162 23.3454 30.2986 23.4635 30.4281 23.4753C30.8637 23.5343 31.3347 23.6051 31.8291 23.676Z" fill="#B68C6E"/>
<path d="M34.6077 24.1364C34.6195 24.1364 34.6312 24.1364 34.6548 24.1364C34.7725 24.1364 34.8667 24.0537 34.8902 23.9475C34.9138 23.8176 34.8314 23.6996 34.7019 23.676C34.2192 23.5933 33.7482 23.5107 33.3008 23.428C33.1713 23.4044 33.0536 23.4989 33.03 23.6169C33.0065 23.7468 33.1007 23.8648 33.2184 23.8885C33.6658 23.9711 34.125 24.0537 34.6077 24.1364Z" fill="#B68C6E"/>
</svg>
