<svg width="52" height="60" viewBox="0 0 52 60" fill="none" xmlns="http://www.w3.org/2000/svg">
<path d="M7.53315 19.6648C7.48073 19.133 7.61899 18.5787 8.07932 18.131C8.54422 17.6757 9.37071 17.5587 9.926 17.7605C10.5056 17.9367 10.9416 18.269 11.2926 18.6432C11.6329 19.0295 11.898 19.463 12.0363 19.9873C11.4992 19.859 11.0693 19.6588 10.6552 19.4818C10.2466 19.3047 9.86827 19.1367 9.54162 19.0377C9.20283 18.9365 8.99469 18.9177 8.67564 18.9935C8.349 19.0782 7.98361 19.3595 7.53315 19.6648Z" fill="#B68C6E"/>
<path d="M51.75 18.1602C51.3239 16.8335 50.4001 15.7505 49.1483 15.11C48.0665 14.5557 46.8587 14.3952 45.6858 14.6307C45.657 14.5407 45.6304 14.4455 45.5993 14.3592C43.0051 6.69792 35.9997 1.27014 27.3171 0.193132C20.1074 -0.699373 13.4819 1.54014 9.42996 6.10992C9.4178 6.12492 9.40033 6.13392 9.38894 6.15042C9.38438 6.15717 9.38286 6.16317 9.37906 6.16992C8.88454 6.73317 8.42116 7.32568 8.00792 7.95793C5.82549 11.5842 4.85771 15.8967 4.77187 22.373C4.73465 24.1828 2.94874 26.1313 1.64597 27.554C0.748079 28.5343 0.154804 29.1823 0.0325029 29.7726C-0.0305469 30.0508 -0.0328257 30.4873 0.315847 30.9816C0.896209 31.8036 2.1762 32.3991 3.20094 32.5866C3.11814 32.8948 2.85455 33.4176 2.71402 33.6958C2.58564 33.9508 2.46941 34.1856 2.38206 34.4091C2.26203 34.7766 2.32053 35.1591 2.5469 35.4853C2.81049 35.8633 3.28298 36.1341 3.8003 36.3261C3.17284 36.6674 2.66692 37.1879 2.70946 38.1081C2.7596 38.9556 3.5838 39.2414 4.07756 39.4124C4.1315 39.4311 4.19607 39.4544 4.25836 39.4769C3.82308 40.7706 3.46378 42.5159 4.48549 43.9072C6.13618 45.8197 8.2905 46.1369 14.5051 45.3764C14.5431 45.3719 14.581 45.3644 14.6175 45.3532C14.9601 45.2519 15.3893 45.4844 15.6878 45.6997C17.7001 47.1442 19.9722 51.8759 20.0284 54.7282C20.0307 56.9377 19.6942 57.6217 18.0252 58.7917C17.7852 58.9597 17.6834 59.262 17.773 59.538C17.8619 59.8125 18.1225 60 18.4157 60H45.4716C45.755 60 46.0087 59.8252 46.1059 59.562C46.2032 59.2987 46.1234 59.004 45.9069 58.824C44.1711 57.3787 42.3867 54.942 40.6168 51.6074C36.8437 43.6934 36.5755 40.4211 37.0275 40.1451C41.9971 37.1669 44.8001 30.7993 45.8484 24.872C46.1439 24.9215 46.4394 24.9508 46.7334 24.9508C48.6568 24.9508 50.4746 23.906 51.4051 22.1338C52.0539 20.8978 52.1769 19.4862 51.75 18.1602ZM36.3226 39.0074C34.6749 40.0109 35.7088 44.4412 39.4075 52.1992C40.8827 54.9795 42.3275 57.1125 43.7921 58.6657H20.235C21.1162 57.6855 21.3805 56.6025 21.3783 54.7117C21.3122 51.4064 18.8411 46.3124 16.4817 44.6182C15.7099 44.0639 14.9723 43.8779 14.2871 44.0572C7.62202 44.8672 6.52511 44.2132 5.54518 43.0821C5.01495 42.3576 5.04306 41.2581 5.64393 39.5931C5.93943 38.6429 4.91088 38.2866 4.52347 38.1524C4.38294 38.1036 4.16036 38.0264 4.05857 37.9626C4.08516 37.6131 4.44599 37.4339 5.41604 37.1151C5.77003 36.9989 6.13618 36.8781 6.46738 36.7146C6.74085 36.5789 6.88822 36.2789 6.82593 35.9826C6.76364 35.6864 6.50764 35.4688 6.2015 35.4523C5.02103 35.3886 3.92412 35.0098 3.68939 34.7661C3.75092 34.6266 3.83448 34.4631 3.9226 34.2868C4.36015 33.4176 4.81289 32.5191 4.43535 31.8388C4.33508 31.6588 4.08592 31.3476 3.56177 31.2928C2.75048 31.1856 1.75156 30.6823 1.42264 30.2166C1.35503 30.1206 1.34743 30.0673 1.35199 30.0501C1.41428 29.7921 2.12682 29.0143 2.64717 28.4458C4.09352 26.867 6.07389 24.7048 6.1225 22.3933C6.20454 16.1622 7.11611 12.0485 9.15573 8.65768C9.29474 8.44468 9.44819 8.24293 9.5986 8.03818C10.4615 9.28319 12.53 10.7667 15.185 12.6642C19.0181 15.4055 23.7894 18.8165 25.0427 21.9155L25.3458 22.6648L26.0341 22.229C27.3703 21.3838 28.7315 21.2263 29.5854 21.8173C30.3382 22.3385 30.5911 23.4245 30.2751 24.8075C29.849 26.8235 29.2868 27.1445 28.3548 27.6763C27.5632 28.1278 26.5795 28.6896 25.4454 30.2398C25.2273 30.5383 25.2949 30.9546 25.5973 31.1706C25.7165 31.2561 25.8548 31.2966 25.9915 31.2966C26.2012 31.2966 26.4078 31.2006 26.5392 31.0198C27.5047 29.7006 28.3145 29.2378 29.0301 28.8298C29.2488 28.7046 29.4615 28.5823 29.6659 28.4473C30.8927 32.5438 35.4368 35.1958 39.8184 35.8671C38.8119 37.1316 37.6519 38.2109 36.3226 39.0074ZM40.7004 34.6678C40.6631 34.6573 40.6305 34.6371 40.5902 34.6326C35.5827 34.0783 31.4055 30.9471 30.7848 27.3178C31.1046 26.8055 31.3796 26.1088 31.5946 25.0918C32.0352 23.165 31.5855 21.5735 30.361 20.7268C29.2101 19.9303 27.5769 19.9453 25.9748 20.732C24.2702 17.5145 19.881 14.3765 15.978 11.585C13.7698 10.0062 10.4433 7.62643 10.5208 6.89517C14.2764 2.7229 20.4356 0.682885 27.1485 1.51464C35.3115 2.5279 41.8907 7.61068 44.3223 14.7905C45.8036 18.938 44.8525 28.4451 40.7004 34.6678ZM50.2064 21.5195C49.4058 23.045 47.7247 23.8355 46.0558 23.5468C46.4424 20.6773 46.4113 17.9877 46.0125 15.9245C46.8656 15.7677 47.7422 15.89 48.5276 16.292C49.459 16.769 50.1464 17.5752 50.4632 18.5622C50.7807 19.55 50.6888 20.6 50.2064 21.5195Z" fill="#B68C6E"/>
<path d="M7.53315 22.3295C7.62962 21.8135 8.00564 21.3553 8.55638 21.1243C9.10711 20.8925 9.74673 20.9375 10.2496 21.1243C10.7624 21.3103 11.1779 21.6163 11.5159 21.9725C11.8479 22.3378 12.1175 22.7465 12.2619 23.255C11.7347 23.1575 11.3078 22.985 10.9006 22.8268C10.4988 22.6625 10.1273 22.4998 9.78395 22.3753C9.43679 22.2515 9.1375 22.1668 8.79794 22.142C8.45458 22.106 8.04818 22.1848 7.53315 22.3295Z" fill="#B68C6E"/>
<path d="M11.4795 28.3686C11.2736 28.3686 11.0639 28.3641 10.8512 28.3558C10.479 28.3408 10.1888 28.0303 10.204 27.6628C10.2192 27.2953 10.5314 27.0073 10.9059 27.0238C11.1027 27.0313 11.263 27.0328 11.4886 27.035C11.8578 27.035 12.1912 27.3275 12.1958 27.6928C12.2011 28.0611 11.9352 28.3633 11.5623 28.3686H11.4795ZM8.19783 28.0588C8.15985 28.0588 8.12034 28.0558 8.08084 28.0491C7.85599 28.0101 7.62886 27.9681 7.40021 27.9231C7.03482 27.8511 6.79782 27.4993 6.87074 27.1385C6.94367 26.7778 7.29766 26.5438 7.66532 26.6158C7.88334 26.6593 8.09907 26.699 8.31253 26.7358C8.67944 26.7995 8.92556 27.1445 8.86175 27.5075C8.80478 27.8308 8.51991 28.0588 8.19783 28.0588ZM14.2271 28.0468C13.9285 28.0468 13.6551 27.8496 13.5753 27.5511C13.4796 27.1955 13.6938 26.8303 14.0539 26.735C14.2552 26.6818 14.4519 26.6218 14.6433 26.5535C14.9943 26.4298 15.3809 26.6083 15.507 26.9555C15.6331 27.302 15.4508 27.6838 15.0999 27.8083C14.8727 27.8893 14.6403 27.9606 14.401 28.0236C14.3425 28.0393 14.284 28.0468 14.2271 28.0468ZM17.1577 26.4688C16.9807 26.4688 16.803 26.3998 16.6708 26.2633C16.4125 25.9978 16.4216 25.5755 16.6906 25.3213C16.8334 25.1855 16.9709 25.0408 17.1023 24.887C17.3423 24.605 17.7677 24.569 18.0533 24.806C18.339 25.043 18.3754 25.4638 18.1354 25.745C17.9728 25.9355 17.8034 26.1148 17.6249 26.2828C17.4942 26.4073 17.3256 26.4688 17.1577 26.4688Z" fill="#B68C6E"/>
<path d="M10.1189 14.6772C10.0802 14.6772 10.0407 14.6742 10.0012 14.6675C9.89637 14.6487 9.79002 14.6322 9.68291 14.6157C9.31449 14.5602 9.06153 14.2197 9.11851 13.856C9.17548 13.4922 9.52035 13.2417 9.88802 13.2987C10.005 13.316 10.1205 13.3347 10.2359 13.355C10.6028 13.4187 10.8482 13.7645 10.7836 14.1275C10.7251 14.45 10.4403 14.6772 10.1189 14.6772Z" fill="#B68C6E"/>
<path d="M15.9924 17.8062C15.7995 17.8062 15.6081 17.7252 15.4744 17.5677C15.3376 17.4072 15.1971 17.2535 15.052 17.1072C14.7907 16.844 14.7953 16.4217 15.0619 16.1645C15.3278 15.9065 15.7554 15.911 16.0168 16.1742C16.1862 16.3452 16.351 16.5245 16.5098 16.712C16.749 16.994 16.7118 17.4147 16.4254 17.651C16.2993 17.7552 16.1451 17.8062 15.9924 17.8062ZM13.3474 15.7152C13.2426 15.7152 13.1362 15.6912 13.0367 15.6402C12.8498 15.5442 12.6592 15.455 12.4647 15.3725C12.1221 15.227 11.9641 14.8347 12.1115 14.4965C12.2588 14.1582 12.6561 14.0015 12.9987 14.1477C13.2236 14.2437 13.4439 14.3465 13.6588 14.4567C13.99 14.6262 14.1184 15.029 13.9467 15.3552C13.8267 15.5847 13.5912 15.7152 13.3474 15.7152Z" fill="#B68C6E"/>
<path d="M17.5664 20.402C17.3028 20.402 17.0529 20.249 16.9443 19.994C16.9025 19.8958 16.8592 19.7998 16.8159 19.7045C16.6617 19.3693 16.8129 18.974 17.1524 18.8225C17.4912 18.6702 17.8923 18.8187 18.0457 19.1547C18.0944 19.2605 18.1422 19.3677 18.1886 19.4772C18.3336 19.8163 18.1726 20.207 17.8285 20.3503C17.7427 20.3848 17.6538 20.402 17.5664 20.402Z" fill="#B68C6E"/>
<path d="M7.75496 30.8503C7.57037 30.8503 7.3873 30.7761 7.2536 30.6306C7.17384 30.5436 7.09636 30.4558 7.01811 30.3651C6.77655 30.0846 6.81073 29.6638 7.09484 29.4253C7.37894 29.1861 7.8051 29.2213 8.04666 29.5011C8.11503 29.5806 8.18491 29.6593 8.2548 29.7358C8.50472 30.0088 8.48345 30.4303 8.20694 30.6771C8.07856 30.7933 7.91676 30.8503 7.75496 30.8503Z" fill="#B68C6E"/>
<path d="M16.6169 34.3828C16.2477 34.3828 15.9461 34.0896 15.9416 33.7243C15.937 33.3561 16.2363 33.0538 16.6093 33.0501C16.8326 33.0478 17.059 33.0411 17.2876 33.0291C17.656 33.0163 17.9774 33.2938 17.9956 33.6621C18.0146 34.0296 17.7275 34.3431 17.3552 34.3611C17.1091 34.3731 16.8653 34.3806 16.6245 34.3836C16.6222 34.3828 16.6191 34.3828 16.6169 34.3828ZM13.8115 34.1556C13.7705 34.1556 13.7295 34.1518 13.687 34.1443C13.4408 34.0986 13.1985 34.0476 12.96 33.9898C12.5976 33.9021 12.3766 33.5406 12.4655 33.1836C12.5536 32.8258 12.9197 32.6076 13.2821 32.6946C13.4955 32.7463 13.7128 32.7928 13.9338 32.8333C14.3007 32.9008 14.5423 33.2488 14.4739 33.6103C14.4139 33.9313 14.1306 34.1556 13.8115 34.1556ZM10.498 33.0088C10.3879 33.0088 10.2769 32.9818 10.1736 32.9263C9.95335 32.8071 9.73837 32.6811 9.52719 32.5468C9.21346 32.3473 9.12306 31.9348 9.32513 31.6251C9.52719 31.3168 9.94499 31.2283 10.2587 31.4256C10.4433 31.5426 10.6309 31.6536 10.8239 31.7586C11.1513 31.9356 11.2706 32.3413 11.0905 32.6631C10.9675 32.8836 10.7358 33.0088 10.498 33.0088Z" fill="#B68C6E"/>
<path d="M20.1317 34.0251C19.8127 34.0251 19.5286 33.8008 19.4685 33.4806C19.4009 33.1183 19.6425 32.7703 20.0094 32.7036L20.3345 32.6421C20.7022 32.5708 21.0547 32.8071 21.1268 33.1678C21.1982 33.5293 20.9597 33.8796 20.5943 33.9501L20.2555 34.0138C20.2137 34.0221 20.1727 34.0251 20.1317 34.0251Z" fill="#B68C6E"/>
<path d="M16.4984 42.7229C16.1337 42.7229 15.8337 42.4356 15.8238 42.0741C15.8139 41.7059 16.1087 41.3999 16.4809 41.3901C16.7012 41.3849 16.9177 41.3751 17.1304 41.3624C17.5018 41.3481 17.8232 41.6181 17.8467 41.9864C17.8703 42.3539 17.5869 42.6704 17.2147 42.6936C16.9861 42.7079 16.7528 42.7176 16.5158 42.7244C16.5098 42.7229 16.5037 42.7229 16.4984 42.7229ZM13.8009 42.6464C13.7834 42.6464 13.766 42.6456 13.7485 42.6441C13.5221 42.6269 13.2935 42.6074 13.0618 42.5841C12.6903 42.5474 12.4199 42.2219 12.4563 41.8551C12.4928 41.4891 12.8232 41.2266 13.1947 41.2574C13.4173 41.2791 13.6361 41.2986 13.8533 41.3144C14.2255 41.3429 14.5028 41.6631 14.4747 42.0306C14.4458 42.3801 14.1496 42.6464 13.8009 42.6464ZM19.84 42.3036C19.5384 42.3036 19.2642 42.1034 19.186 41.8019C19.0933 41.4449 19.3121 41.0826 19.6729 40.9911C19.8803 40.9386 20.0823 40.8809 20.2783 40.8179C20.6346 40.7024 21.0144 40.8944 21.1299 41.2446C21.2453 41.5949 21.0524 41.9714 20.6976 42.0854C20.4735 42.1574 20.2434 42.2241 20.0064 42.2834C19.9509 42.2969 19.8947 42.3036 19.84 42.3036ZM10.4517 42.2376C10.4152 42.2376 10.3787 42.2354 10.3415 42.2286C10.1189 42.1926 9.89485 42.1551 9.66772 42.1154C9.30082 42.0516 9.05545 41.7059 9.12002 41.3436C9.18535 40.9814 9.53782 40.7369 9.90245 40.8036C10.1235 40.8419 10.343 40.8786 10.5611 40.9146C10.9287 40.9739 11.1779 41.3166 11.1179 41.6804C11.0632 42.0059 10.776 42.2376 10.4517 42.2376ZM22.8641 40.8854C22.6666 40.8854 22.4714 40.7999 22.3377 40.6364C22.1037 40.3499 22.1501 39.9299 22.4402 39.6989C22.596 39.5751 22.7441 39.4431 22.8831 39.3036C23.1452 39.0426 23.5729 39.0396 23.838 39.2976C24.1031 39.5564 24.1061 39.9786 23.844 40.2411C23.6693 40.4159 23.4832 40.5816 23.2872 40.7376C23.1627 40.8366 23.013 40.8854 22.8641 40.8854ZM24.7632 38.1869C24.6895 38.1869 24.6143 38.1749 24.5406 38.1501C24.1889 38.0294 24.0028 37.6491 24.1259 37.3011C24.1639 37.1939 24.1988 37.0844 24.2322 36.9726C24.3355 36.6186 24.7115 36.4176 25.0686 36.5174C25.4271 36.6201 25.633 36.9891 25.5297 37.3431C25.4902 37.4789 25.4476 37.6101 25.4021 37.7399C25.3033 38.0151 25.042 38.1869 24.7632 38.1869Z" fill="#B68C6E"/>
<path d="M26.1898 54.9337C26.1267 54.9337 26.0629 54.9255 25.9999 54.9067C25.6421 54.8032 25.437 54.4327 25.5418 54.0795C25.5996 53.8845 25.6474 53.6895 25.6846 53.4945C25.7545 53.1322 26.1093 52.899 26.4747 52.9642C26.8408 53.0332 27.0809 53.3827 27.011 53.7442C26.9646 53.9812 26.9069 54.2182 26.837 54.4545C26.7504 54.7455 26.4815 54.9337 26.1898 54.9337ZM26.3167 51.6374C26.0052 51.6374 25.7257 51.4237 25.6573 51.1117C25.6148 50.9167 25.5623 50.7217 25.5008 50.5267C25.3891 50.1757 25.5874 49.8014 25.9429 49.6912C26.2999 49.5817 26.6782 49.7767 26.7892 50.1277C26.8636 50.3617 26.9266 50.5964 26.9768 50.8304C27.0558 51.1904 26.8241 51.5452 26.4595 51.6224C26.4116 51.6329 26.3638 51.6374 26.3167 51.6374ZM24.9486 48.6149C24.7328 48.6149 24.5209 48.5137 24.3902 48.3247C24.2725 48.1544 24.1479 47.9827 24.0157 47.8124C23.7894 47.5192 23.8471 47.1007 24.1433 46.8779C24.4404 46.6544 24.8642 46.7122 25.0898 47.0047C25.2365 47.1944 25.3747 47.3834 25.5054 47.5724C25.7158 47.8762 25.6368 48.2917 25.3284 48.4994C25.2129 48.5774 25.08 48.6149 24.9486 48.6149ZM22.7335 46.1084C22.5679 46.1084 22.4015 46.0484 22.2716 45.9284C22.1159 45.7837 21.9548 45.6389 21.7877 45.4934C21.5082 45.2497 21.4816 44.8282 21.7285 44.5522C21.9753 44.2769 22.4023 44.2491 22.681 44.4936C22.858 44.6481 23.0297 44.8019 23.1953 44.9557C23.4673 45.2077 23.4802 45.6292 23.2249 45.8984C23.0928 46.0387 22.9135 46.1084 22.7335 46.1084Z" fill="#B68C6E"/>
</svg>
