<svg width="171" height="161" viewBox="0 0 171 161" fill="none" xmlns="http://www.w3.org/2000/svg">
<path d="M155.753 40.7847C131.677 6.17491 39.8859 24.2325 21.8285 64.8611C3.77116 105.49 30.8569 139.568 75.9998 140.099C121.143 140.631 179.829 75.3945 155.753 40.7847Z" stroke="#B68C6E"/>
<path opacity="0.2" d="M34.6979 131.52C68.9741 161.744 150.068 136.724 154.449 87.9286C158.83 39.1332 126.055 5.29899 74.0517 18.2005C22.0479 31.1021 0.421671 101.296 34.6979 131.52Z" stroke="#B68C6E"/>
<path d="M99.3536 82.6464C99.5488 82.8417 99.5488 83.1583 99.3536 83.3536L96.1716 86.5355C95.9763 86.7308 95.6597 86.7308 95.4645 86.5355C95.2692 86.3403 95.2692 86.0237 95.4645 85.8284L98.2929 83L95.4645 80.1716C95.2692 79.9763 95.2692 79.6597 95.4645 79.4645C95.6597 79.2692 95.9763 79.2692 96.1716 79.4645L99.3536 82.6464ZM78 82.5H99V83.5H78V82.5Z" fill="#B68C6E"/>
</svg>
