<svg width="52" height="60" viewBox="0 0 52 60" fill="none" xmlns="http://www.w3.org/2000/svg">
<path d="M7.53311 19.6648C7.4807 19.133 7.61895 18.5788 8.07929 18.1311C8.54418 17.6758 9.37066 17.5588 9.92596 17.7606C10.5056 17.9368 10.9416 18.2691 11.2925 18.6433C11.6329 19.0295 11.898 19.463 12.0362 19.9873C11.4992 19.859 11.0692 19.6588 10.6552 19.4818C10.2465 19.3048 9.86822 19.1368 9.54158 19.0378C9.20279 18.9365 8.99465 18.9178 8.6756 18.9935C8.34972 19.0783 7.98434 19.3595 7.53311 19.6648Z" fill="#B68C6E"/>
<path d="M51.7506 18.1596C51.3244 16.8329 50.4007 15.7499 49.1488 15.1094C48.0671 14.5552 46.8593 14.3947 45.6864 14.6302C45.6575 14.5402 45.631 14.4449 45.5998 14.3587C43.0057 6.69842 36.0003 1.27084 27.317 0.193125C20.1073 -0.699347 13.4818 1.54008 9.42992 6.10969C9.41776 6.12469 9.40029 6.13369 9.3889 6.15019C9.38434 6.15694 9.38282 6.16294 9.37902 6.16969C8.8845 6.73292 8.42112 7.3254 8.00788 7.95763C5.82546 11.5838 4.85769 15.8961 4.77185 22.3722C4.73463 24.1819 2.94873 26.1303 1.64596 27.553C0.748076 28.5332 0.154804 29.1812 0.0325029 29.7714C-0.0305466 30.0497 -0.0328261 30.4862 0.315845 30.9804C0.896204 31.8024 2.17619 32.3979 3.20093 32.5854C3.11813 32.8936 2.85454 33.4163 2.71401 33.6946C2.58563 33.9496 2.4694 34.1843 2.38205 34.4078C2.26202 34.7753 2.32052 35.1578 2.54689 35.484C2.81048 35.862 3.28297 36.1327 3.80028 36.3247C3.17282 36.666 2.66691 37.1865 2.70945 38.1067C2.75958 38.9542 3.58378 39.2399 4.07755 39.4109C4.13148 39.4296 4.19605 39.4529 4.25834 39.4754C3.82307 40.7691 3.46376 42.5143 4.48547 43.9055C6.13615 45.8179 8.29047 46.1352 14.505 45.3747C14.543 45.3702 14.581 45.3627 14.6174 45.3515C14.96 45.2502 15.3892 45.4827 15.6878 45.6979C17.7 47.1424 19.9721 51.874 20.0283 54.7262C20.0306 56.9356 19.6941 57.6196 18.0252 58.7895C17.7851 58.9575 17.6833 59.2598 17.773 59.5358C17.8626 59.8125 18.1224 60 18.4164 60H45.4722C45.7555 60 46.0093 59.8253 46.1065 59.562C46.2037 59.2988 46.124 59.004 45.9075 58.824C44.1717 57.3788 42.3873 54.9422 40.6174 51.6078C36.8443 43.694 36.5761 40.4219 37.0281 40.1459C41.9976 37.1677 44.8007 30.8004 45.849 24.8734C46.1445 24.9228 46.44 24.9521 46.7339 24.9521C48.6573 24.9521 50.4751 23.9074 51.4057 22.1352C52.0536 20.8977 52.1767 19.4863 51.7506 18.1596ZM36.3232 39.0067C34.6755 40.0101 35.7094 44.4402 39.4081 52.198C40.8833 54.9782 42.3281 57.1111 43.7927 58.6643H20.2357C21.1169 57.6841 21.3812 56.6011 21.3789 54.7104C21.3128 51.4053 18.8418 46.3114 16.4823 44.6172C15.7106 44.063 14.973 43.877 14.2878 44.0562C7.62275 44.8662 6.52584 44.2122 5.54592 43.0813C5.01569 42.3568 5.0438 41.2573 5.64467 39.5924C5.94016 38.6422 4.91162 38.2859 4.52421 38.1517C4.38368 38.1029 4.16111 38.0257 4.05931 37.9619C4.0859 37.6124 4.44673 37.4332 5.41678 37.1145C5.77077 36.9982 6.13691 36.8775 6.46811 36.714C6.74158 36.5782 6.88895 36.2782 6.82665 35.982C6.76437 35.6858 6.50837 35.4683 6.20224 35.4518C5.02177 35.388 3.92486 35.0093 3.69013 34.7655C3.75166 34.626 3.83522 34.4626 3.92334 34.2863C4.36089 33.4171 4.81363 32.5186 4.43609 31.8384C4.33582 31.6584 4.08666 31.3471 3.56251 31.2924C2.75123 31.1852 1.75231 30.6819 1.42339 30.2162C1.35578 30.1202 1.34819 30.0669 1.35274 30.0497C1.41503 29.7917 2.12757 29.014 2.64792 28.4455C4.09426 26.8668 6.07462 24.7046 6.12323 22.3932C6.20528 16.1624 7.11683 12.0488 9.15645 8.65811C9.29546 8.44512 9.44891 8.24337 9.59931 8.03863C10.4623 9.28359 12.5307 10.767 15.1857 12.6645C19.0188 15.4056 23.79 18.8165 25.0434 21.9154L25.3465 22.6647L26.0347 22.2289C27.3709 21.3837 28.7322 21.2262 29.586 21.8172C30.3388 22.3384 30.5918 23.4244 30.2758 24.8074C29.8496 26.8233 29.2875 27.1443 28.3554 27.676C27.5639 28.1275 26.5801 28.6892 25.446 30.2394C25.228 30.5379 25.2956 30.9542 25.5979 31.1702C25.7172 31.2556 25.8554 31.2961 25.9922 31.2961C26.2018 31.2961 26.4085 31.2002 26.5399 31.0194C27.5054 29.7002 28.3151 29.2375 29.0307 28.8295C29.2495 28.7042 29.4622 28.582 29.6665 28.447C30.8933 32.5434 35.4375 35.1953 39.819 35.8665C38.8125 37.1302 37.6525 38.2102 36.3232 39.0067ZM40.7002 34.6673C40.663 34.6568 40.6303 34.6365 40.59 34.632C35.5825 34.0778 31.4053 30.9467 30.7847 27.3175C31.1045 26.8053 31.3795 26.1086 31.5945 25.0916C32.0351 23.1649 31.5854 21.5735 30.3608 20.7267C29.21 19.9303 27.5768 19.9453 25.9747 20.732C24.2701 17.5146 19.8809 14.3767 15.9779 11.5853C13.7697 10.0066 10.4433 7.62689 10.5207 6.89566C14.2764 2.72355 20.4355 0.68361 27.1483 1.51533C35.3114 2.52855 41.8905 7.61114 44.3221 14.7907C45.8034 18.938 44.8523 28.4447 40.7002 34.6673ZM50.2062 21.5195C49.4056 23.0449 47.7245 23.8354 46.0556 23.5466C46.4422 20.6772 46.4111 17.9878 46.0123 15.9246C46.8654 15.7679 47.742 15.8901 48.5274 16.2921C49.4587 16.7691 50.1462 17.5753 50.463 18.5623C50.7805 19.55 50.6886 20.6 50.2062 21.5195Z" fill="#B68C6E"/>
<path d="M7.53311 22.3294C7.62959 21.8134 8.0056 21.3552 8.55634 21.1242C9.10707 20.8925 9.74668 20.9375 10.2496 21.1242C10.7623 21.3102 11.1778 21.6162 11.5159 21.9724C11.8478 22.3377 12.1175 22.7464 12.2618 23.2549C11.7346 23.1574 11.3077 22.9849 10.9006 22.8267C10.4987 22.6624 10.1273 22.4997 9.7839 22.3752C9.43675 22.2514 9.13746 22.1667 8.7979 22.1419C8.45455 22.1059 8.0489 22.1847 7.53311 22.3294Z" fill="#B68C6E"/>
<path d="M8.7698 42.4205C8.73713 42.4205 8.70371 42.4183 8.66952 42.4131L8.33984 42.3651C7.97066 42.3126 7.71391 41.9751 7.76708 41.6106C7.8195 41.2461 8.16209 40.9933 8.53127 41.0451L8.82297 41.0878C9.19139 41.1433 9.47018 41.4868 9.41396 41.8506C9.36231 42.1806 9.09492 42.4205 8.7698 42.4205Z" fill="#B68C6E"/>
<path d="M24.2541 51.232C23.9662 51.232 23.6996 51.049 23.61 50.7633C23.5439 50.5525 23.474 50.3418 23.4011 50.1311C23.2803 49.7831 23.4687 49.4036 23.8219 49.2851C24.1729 49.1673 24.5588 49.3518 24.6788 49.7006C24.7555 49.9226 24.8292 50.1453 24.8991 50.368C25.0092 50.7198 24.811 51.0933 24.4547 51.2028C24.3886 51.2223 24.321 51.232 24.2541 51.232ZM22.9954 48.0559C22.744 48.0559 22.5032 47.9164 22.3862 47.6786C22.289 47.4791 22.1887 47.2819 22.0869 47.0869C21.9145 46.7607 22.0429 46.3579 22.3741 46.1877C22.7037 46.0174 23.1124 46.1434 23.2849 46.4712C23.3942 46.6774 23.5006 46.8882 23.6047 47.1004C23.7665 47.4326 23.6244 47.8309 23.2887 47.9906C23.1929 48.0349 23.0934 48.0559 22.9954 48.0559ZM21.2331 45.1242C21.0257 45.1242 20.8214 45.0305 20.6892 44.8535C20.557 44.6772 20.4218 44.5055 20.2851 44.3405C20.0488 44.0555 20.0921 43.6348 20.3808 43.4023C20.6687 43.1698 21.0948 43.2118 21.3303 43.4968C21.4807 43.679 21.6289 43.8673 21.7747 44.0615C21.9965 44.3577 21.9327 44.7747 21.6327 44.9937C21.5126 45.0822 21.3721 45.1242 21.2331 45.1242ZM11.6131 42.7528L11.4984 42.752C11.1254 42.7445 10.8292 42.4401 10.8368 42.0726C10.8444 41.7043 11.1687 41.4328 11.525 41.4193L11.6131 41.4201C11.7871 41.4201 11.9625 41.4126 12.1426 41.3976C12.5216 41.3653 12.8422 41.6368 12.8748 42.0028C12.9075 42.3696 12.6333 42.6928 12.2618 42.725C12.0408 42.7445 11.8266 42.7528 11.6131 42.7528ZM18.8 42.7228C18.6701 42.7228 18.5394 42.686 18.424 42.6095C18.25 42.494 18.0745 42.3898 17.896 42.2983C17.5656 42.1281 17.4372 41.7253 17.6096 41.3991C17.7821 41.0713 18.1892 40.9468 18.5204 41.1156C18.7422 41.2296 18.961 41.3593 19.1775 41.5026C19.4867 41.7081 19.5695 42.1221 19.3614 42.4273C19.2307 42.6193 19.0172 42.7228 18.8 42.7228ZM14.6661 40.7519C14.9471 40.6596 15.1932 40.6004 15.4348 40.5621C15.8025 40.5044 16.1489 40.7519 16.2081 41.1156C16.2666 41.4793 16.0159 41.8213 15.6475 41.8783C15.4758 41.9053 15.3011 41.9473 15.1279 42.0043C15.0565 42.0276 14.9828 42.0388 14.9099 42.0388C14.625 42.0388 14.3516 41.8693 14.2566 41.5948C14.1366 41.2491 14.2984 40.8816 14.6471 40.7593L14.6661 40.7519Z" fill="#B68C6E"/>
<path d="M24.969 54.2207C24.6431 54.2207 24.3567 53.9874 24.3035 53.6597L24.2496 53.344C24.1835 52.9817 24.4266 52.6352 24.7942 52.5692C25.1619 52.5032 25.5129 52.7447 25.5782 53.107L25.6367 53.449C25.6959 53.8119 25.4452 54.1539 25.0776 54.2124C25.0411 54.2177 25.0047 54.2207 24.969 54.2207Z" fill="#B68C6E"/>
<path d="M13.1939 56.6221C12.1084 55.1942 11.3518 52.9982 11.0419 51.1225L11.3252 51.3933C11.5949 51.6498 12.021 51.6415 12.2801 51.376C12.5391 51.112 12.5315 50.689 12.2633 50.4333L10.6788 48.9221C10.6658 48.9101 10.6476 48.9063 10.6339 48.8951C10.5777 48.8493 10.517 48.8088 10.4478 48.7826C10.4114 48.7691 10.3734 48.7676 10.3354 48.7601C10.2929 48.7519 10.2541 48.7353 10.2101 48.7353C10.1949 48.7353 10.1827 48.7429 10.1683 48.7436C10.1554 48.7444 10.1432 48.7384 10.1295 48.7399C10.1022 48.7429 10.0802 48.7601 10.0543 48.7661C9.99812 48.7796 9.94495 48.7954 9.89557 48.8223C9.86291 48.8396 9.8348 48.8599 9.80517 48.8824C9.75884 48.9176 9.71934 48.9566 9.68363 49.0023C9.67072 49.0188 9.65097 49.0286 9.63958 49.0458L8.3877 51.004C8.18868 51.3153 8.28287 51.727 8.59812 51.9235C8.70979 51.9932 8.83436 52.0262 8.95818 52.0262C9.18228 52.0262 9.40181 51.916 9.53019 51.715L9.72617 51.409C10.0703 53.4385 10.8816 55.8001 12.1145 57.4223C12.2466 57.5971 12.4495 57.6886 12.6553 57.6886C12.7958 57.6886 12.9387 57.6451 13.0602 57.5551C13.358 57.3353 13.418 56.9176 13.1939 56.6221Z" fill="#B68C6E"/>
</svg>
