<svg width="51" height="60" viewBox="0 0 51 60" fill="none" xmlns="http://www.w3.org/2000/svg">
<path d="M7.38767 19.6658C7.33626 19.1341 7.47186 18.5798 7.92336 18.1321C8.37932 17.6768 9.18993 17.5598 9.73455 17.7616C10.303 17.9378 10.7307 18.2701 11.0749 18.6443C11.4087 19.0306 11.6687 19.4641 11.8043 19.9883C11.2775 19.8601 10.8558 19.6598 10.4498 19.4828C10.049 19.3058 9.67793 19.1378 9.35756 19.0388C9.02527 18.9376 8.82113 18.9188 8.50821 18.9946C8.18785 19.0786 7.82948 19.3606 7.38767 19.6658Z" fill="#B68C6E"/>
<path d="M50.755 18.1606C50.3371 16.8338 49.4311 15.7508 48.2033 15.1103C47.1423 14.5561 45.9577 14.3956 44.8074 14.6311C44.7791 14.5411 44.753 14.4458 44.7224 14.3596C42.1781 6.69909 35.3073 1.2706 26.7915 0.193604C19.7174 -0.700395 13.2199 1.5406 9.24655 6.11184C9.23537 6.12684 9.21898 6.13509 9.20855 6.15084C9.20483 6.15684 9.20333 6.16284 9.19961 6.16959C8.71384 6.73359 8.25937 7.32609 7.85407 7.95834C5.71356 11.5846 4.76438 15.8971 4.68019 22.3726C4.64368 24.1823 2.89209 26.1308 1.61435 27.5536C0.733707 28.5338 0.15183 29.1818 0.0318786 29.7721C-0.0299599 30.0503 -0.0321956 30.4868 0.309778 30.981C0.87899 31.803 2.13438 32.3985 3.13944 32.586C3.05824 32.8943 2.79971 33.417 2.66187 33.6953C2.53596 33.9503 2.42197 34.185 2.33629 34.4085C2.21857 34.776 2.27594 35.1585 2.49796 35.4848C2.75649 35.8628 3.21991 36.1328 3.72728 36.3255C3.11188 36.6668 2.61568 37.1873 2.6574 38.1075C2.70658 38.955 3.51495 39.2408 3.99922 39.4118C4.05212 39.4305 4.11545 39.4538 4.17654 39.4763C3.74963 40.77 3.39723 42.5153 4.39931 43.9065C6.01828 45.819 8.13048 46.1363 14.2264 45.3758C14.2637 45.3713 14.3009 45.3638 14.3367 45.3525C14.6719 45.2513 15.0936 45.4838 15.3864 45.699C17.36 47.1435 19.5885 51.8753 19.6436 54.7275C19.6458 56.937 19.3158 57.621 17.6789 58.791C17.4435 58.959 17.3437 59.2613 17.4316 59.5373C17.518 59.8125 17.7735 60 18.0611 60H44.5973C44.8752 60 45.124 59.8252 45.2194 59.562C45.3147 59.2987 45.2365 59.004 45.0242 58.824C43.3218 57.3788 41.5716 54.942 39.8357 51.6075C36.1351 43.6935 35.8721 40.4213 36.3154 40.1453C41.1894 37.167 43.9386 30.7995 44.9668 24.8723C45.2566 24.9218 45.5464 24.9511 45.8348 24.9511C47.7212 24.9511 49.5041 23.9063 50.4168 22.1341C51.0523 20.8981 51.1737 19.4866 50.755 18.1606ZM35.624 39.0083C34.008 40.0118 35.022 44.442 38.6496 52.2C40.0965 54.9803 41.5135 57.1133 42.95 58.6665H19.8455C20.7098 57.6863 20.969 56.6033 20.9668 54.7125C20.902 51.4073 18.4784 46.3133 16.1643 44.619C15.4073 44.0648 14.6846 43.8788 14.0118 44.058C7.47484 44.868 6.399 44.214 5.4379 43.083C4.91786 42.3585 4.94542 41.259 5.53475 39.594C5.82457 38.6438 4.81579 38.2875 4.43582 38.1533C4.29798 38.1045 4.07969 38.0273 3.97985 37.9635C4.00593 37.614 4.35982 37.4348 5.31124 37.116C5.65843 36.9998 6.01754 36.879 6.34238 36.7155C6.61059 36.5798 6.75513 36.2798 6.69404 35.9835C6.63294 35.6873 6.38186 35.4698 6.08161 35.4533C4.92382 35.3895 3.84798 35.0108 3.61776 34.767C3.67811 34.6275 3.76006 34.464 3.84649 34.2878C4.27563 33.4185 4.71968 32.52 4.34939 31.8398C4.25105 31.6598 4.00667 31.3485 3.49259 31.2938C2.69689 31.1865 1.71716 30.6833 1.39456 30.2176C1.32825 30.1216 1.3208 30.0683 1.32527 30.0511C1.38636 29.7931 2.08521 29.0153 2.59557 28.4468C4.01412 26.8681 5.95645 24.7058 6.00413 22.3943C6.08459 16.1633 6.97864 12.0496 8.97908 8.65884C9.11542 8.44584 9.26592 8.24409 9.41344 8.03934C10.2598 9.28434 12.2886 10.7678 14.8925 12.6653C18.6519 15.4066 23.3308 18.8176 24.5601 21.9166L24.8574 22.6658L25.5317 22.2301C26.8429 21.3848 28.178 21.2273 29.0155 21.8183C29.7538 22.3396 30.0019 23.4256 29.692 24.8086C29.274 26.8246 28.7227 27.1456 27.8085 27.6773C27.0322 28.1288 26.0673 28.6906 24.955 30.2408C24.7412 30.5393 24.8075 30.9555 25.104 31.1715C25.2217 31.257 25.3566 31.2975 25.4914 31.2975C25.6971 31.2975 25.8997 31.2015 26.0286 31.0208C26.9755 29.7016 27.7698 29.2388 28.4716 28.8308C28.6862 28.7056 28.8948 28.5833 29.0952 28.4483C30.2984 32.5448 34.7553 35.1968 39.0527 35.868C38.0655 37.1318 36.9278 38.211 35.624 39.0083ZM39.9177 34.668C39.8811 34.6575 39.8491 34.6373 39.8096 34.6328C34.8983 34.0785 30.8013 30.9473 30.1926 27.3181C30.5063 26.8058 30.776 26.1091 30.9869 25.0921C31.419 23.1653 30.9779 21.5746 29.7769 20.7271C28.6482 19.9306 27.0463 19.9456 25.4743 20.7323C23.8024 17.5148 19.4976 14.3768 15.6695 11.5853C13.5037 10.0066 10.2412 7.62684 10.3172 6.89559C14.0007 2.72335 20.0429 0.684103 26.6254 1.5151C34.6323 2.5291 41.0851 7.61259 43.47 14.7923C44.9228 18.9383 43.9901 28.4453 39.9177 34.668ZM49.2404 21.5198C48.4551 23.0453 46.8056 23.8358 45.1695 23.5478C45.5487 20.6783 45.5181 17.9888 45.127 15.9256C45.9637 15.7688 46.8234 15.8911 47.5938 16.2931C48.5072 16.7701 49.1815 17.5763 49.4922 18.5633C49.8036 19.5503 49.7142 20.6003 49.2404 21.5198Z" fill="#B68C6E"/>
<path d="M7.38767 22.3298C7.48229 21.8138 7.85109 21.3556 8.39124 21.1246C8.9314 20.8928 9.55872 20.9378 10.0519 21.1246C10.5548 21.3106 10.9624 21.6166 11.2939 21.9728C11.6195 22.3381 11.884 22.7468 12.0256 23.2553C11.5085 23.1578 11.0898 22.9853 10.6904 22.8271C10.2963 22.6636 9.93199 22.5001 9.59523 22.3756C9.25474 22.2518 8.9612 22.1671 8.62816 22.1423C8.2914 22.1063 7.89281 22.1851 7.38767 22.3298Z" fill="#B68C6E"/>
<path d="M15.186 16.3073L15.4758 16.4191C15.8156 16.5496 16.1993 16.3793 16.3311 16.0343C16.4615 15.6908 16.2909 15.3053 15.9489 15.1733L13.8449 14.3626C13.8226 14.3543 13.7987 14.3581 13.7757 14.3521C13.725 14.3386 13.6766 14.3296 13.6244 14.3288C13.5857 14.3281 13.5499 14.3303 13.5119 14.3363C13.4612 14.3438 13.4143 14.3573 13.3666 14.3768C13.3458 14.3851 13.3219 14.3843 13.3018 14.3948C13.2847 14.4038 13.275 14.4203 13.2586 14.4308C13.2407 14.4421 13.2199 14.4458 13.202 14.4593C13.1781 14.4781 13.1655 14.5043 13.1446 14.5261C13.1155 14.5553 13.0887 14.5838 13.0656 14.6183C13.0358 14.6626 13.0165 14.7083 12.9978 14.7578C12.9889 14.7818 12.971 14.8013 12.9643 14.8261L12.5121 16.6681C12.4241 17.0258 12.641 17.3866 12.9963 17.4751C13.05 17.4886 13.1029 17.4946 13.1558 17.4946C13.4531 17.4946 13.7235 17.2913 13.798 16.9876L13.8785 16.6591C14.657 18.1388 15.2695 20.0858 15.1793 21.5888C15.157 21.9563 15.4356 22.2721 15.8007 22.2938C15.8141 22.2946 15.8275 22.2953 15.8409 22.2953C16.1888 22.2953 16.4802 22.0223 16.501 21.6691C16.6053 19.9493 15.9959 17.9251 15.186 16.3073Z" fill="#B68C6E"/>
<path d="M7.20662 26.5996C7.06805 26.5996 6.92798 26.5561 6.80877 26.4653C6.71117 26.3911 6.61581 26.3153 6.52342 26.2373C6.24254 26.0018 6.20529 25.5811 6.43923 25.2983C6.67392 25.0148 7.09114 24.9781 7.37202 25.2136C7.44802 25.2773 7.5255 25.3396 7.60597 25.3996C7.89802 25.6208 7.95614 26.0386 7.73635 26.3333C7.60597 26.5073 7.40704 26.5996 7.20662 26.5996Z" fill="#B68C6E"/>
<path d="M10.5168 28.0771C10.4729 28.0771 10.4289 28.0726 10.385 28.0636C10.1294 28.0118 9.87313 27.9473 9.61981 27.8716C9.26965 27.7666 9.06923 27.3953 9.17428 27.0428C9.27858 26.6896 9.64813 26.4886 9.99755 26.5943C10.2129 26.6588 10.4312 26.7136 10.648 26.7578C11.0063 26.8306 11.238 27.1823 11.1658 27.5431C11.1017 27.8588 10.8253 28.0771 10.5168 28.0771ZM13.4016 27.9886C13.1267 27.9886 12.8704 27.8146 12.7758 27.5386C12.6566 27.1906 12.8406 26.8111 13.1863 26.6911C13.3778 26.6243 13.5544 26.5411 13.7108 26.4428C14.0208 26.2486 14.4291 26.3431 14.6228 26.6558C14.8165 26.9686 14.7211 27.3796 14.4112 27.5738C14.1705 27.7246 13.9031 27.8521 13.6177 27.9511C13.5462 27.9766 13.4732 27.9886 13.4016 27.9886Z" fill="#B68C6E"/>
<path d="M15.411 25.1926C15.3961 25.1926 15.3805 25.1918 15.3648 25.1911C14.9998 25.1656 14.7248 24.8476 14.7502 24.4801C14.7569 24.3863 14.7599 24.2903 14.7599 24.1913C14.7599 23.8231 15.0564 23.5246 15.4222 23.5246C15.788 23.5246 16.0845 23.8231 16.0845 24.1913C16.0845 24.3218 16.0801 24.4486 16.0719 24.5723C16.0473 24.9233 15.756 25.1926 15.411 25.1926Z" fill="#B68C6E"/>
</svg>
