<svg width="355" height="1029" viewBox="0 0 355 1029" fill="none" xmlns="http://www.w3.org/2000/svg">
<path opacity="0.3" d="M168.459 236.482C139.81 282.427 106.671 306.119 96.4389 276.029C84.5788 241.149 123.849 226.457 168.459 236.482ZM168.459 236.482C220.042 248.074 278.765 292.714 273.832 377.406C264.632 535.339 184.433 594.821 129.364 717.776C109.653 761.787 127.24 813.72 159.793 858.304M168.459 236.482C208.197 172.752 239.293 66.2089 188.624 1M159.793 858.304C218.186 938.278 324.73 994.607 350.519 939.15C374.454 887.681 271.072 814.713 159.793 858.304ZM159.793 858.304C104.128 880.109 46.4877 931.081 1.81921 1028.5" stroke="#EAD8CD" stroke-width="2"/>
</svg>
