<svg width="52" height="60" viewBox="0 0 52 60" fill="none" xmlns="http://www.w3.org/2000/svg">
<path d="M7.53315 19.6648C7.48073 19.133 7.61899 18.5787 8.07932 18.131C8.54422 17.6757 9.37071 17.5587 9.926 17.7605C10.5056 17.9367 10.9416 18.269 11.2926 18.6432C11.6329 19.0295 11.898 19.463 12.0363 19.9873C11.4992 19.859 11.0693 19.6588 10.6552 19.4818C10.2466 19.3047 9.86827 19.1367 9.54162 19.0377C9.20283 18.9365 8.99469 18.9177 8.67564 18.9935C8.349 19.0782 7.98361 19.3595 7.53315 19.6648Z" fill="#B68C6E"/>
<path d="M51.75 18.1602C51.3239 16.8335 50.4001 15.7505 49.1483 15.11C48.0665 14.5557 46.8587 14.3952 45.6858 14.6307C45.657 14.5407 45.6304 14.4455 45.5993 14.3592C43.0051 6.69792 35.9997 1.27014 27.3171 0.193132C20.1074 -0.699373 13.4819 1.54014 9.42996 6.10992C9.4178 6.12492 9.40033 6.13392 9.38894 6.15042C9.38438 6.15717 9.38286 6.16317 9.37906 6.16992C8.88454 6.73317 8.42116 7.32568 8.00792 7.95793C5.82549 11.5842 4.85771 15.8967 4.77187 22.373C4.73465 24.1828 2.94874 26.1313 1.64597 27.554C0.748079 28.5343 0.154804 29.1823 0.0325029 29.7726C-0.0305469 30.0508 -0.0328257 30.4873 0.315847 30.9816C0.896209 31.8036 2.1762 32.3991 3.20094 32.5866C3.11814 32.8948 2.85455 33.4176 2.71402 33.6958C2.58564 33.9508 2.46941 34.1856 2.38206 34.4091C2.26203 34.7766 2.32053 35.1591 2.5469 35.4853C2.81049 35.8633 3.28298 36.1341 3.8003 36.3261C3.17284 36.6674 2.66692 37.1879 2.70946 38.1081C2.7596 38.9556 3.5838 39.2414 4.07756 39.4124C4.1315 39.4311 4.19607 39.4544 4.25836 39.4769C3.82308 40.7706 3.46378 42.5159 4.48549 43.9072C6.13618 45.8197 8.2905 46.1369 14.5051 45.3764C14.5431 45.3719 14.581 45.3644 14.6175 45.3532C14.9601 45.2519 15.3893 45.4844 15.6878 45.6997C17.7001 47.1442 19.9722 51.8759 20.0284 54.7282C20.0307 56.9377 19.6942 57.6217 18.0252 58.7917C17.7852 58.9597 17.6834 59.262 17.773 59.538C17.8619 59.8125 18.1225 60 18.4157 60H45.4716C45.755 60 46.0087 59.8252 46.1059 59.562C46.2032 59.2987 46.1234 59.004 45.9069 58.824C44.1711 57.3787 42.3867 54.942 40.6168 51.6074C36.8437 43.6934 36.5755 40.4211 37.0275 40.1451C41.9971 37.1669 44.8001 30.7993 45.8484 24.872C46.1439 24.9215 46.4394 24.9508 46.7334 24.9508C48.6568 24.9508 50.4746 23.906 51.4051 22.1338C52.0539 20.8978 52.1769 19.4862 51.75 18.1602ZM36.3226 39.0074C34.6749 40.0109 35.7088 44.4412 39.4075 52.1992C40.8827 54.9795 42.3275 57.1125 43.7921 58.6657H20.235C21.1162 57.6855 21.3805 56.6025 21.3783 54.7117C21.3122 51.4064 18.8411 46.3124 16.4817 44.6182C15.7099 44.0639 14.9723 43.8779 14.2871 44.0572C7.62202 44.8672 6.52511 44.2132 5.54518 43.0821C5.01495 42.3576 5.04306 41.2581 5.64393 39.5931C5.93943 38.6429 4.91088 38.2866 4.52347 38.1524C4.38294 38.1036 4.16036 38.0264 4.05857 37.9626C4.08516 37.6131 4.44599 37.4339 5.41604 37.1151C5.77003 36.9989 6.13618 36.8781 6.46738 36.7146C6.74085 36.5789 6.88822 36.2789 6.82593 35.9826C6.76364 35.6864 6.50764 35.4688 6.2015 35.4523C5.02103 35.3886 3.92412 35.0098 3.68939 34.7661C3.75092 34.6266 3.83448 34.4631 3.9226 34.2868C4.36015 33.4176 4.81289 32.5191 4.43535 31.8388C4.33508 31.6588 4.08592 31.3476 3.56177 31.2928C2.75048 31.1856 1.75156 30.6823 1.42264 30.2166C1.35503 30.1206 1.34743 30.0673 1.35199 30.0501C1.41428 29.7921 2.12682 29.0143 2.64717 28.4458C4.09352 26.867 6.07389 24.7048 6.1225 22.3933C6.20454 16.1622 7.11611 12.0485 9.15573 8.65768C9.29474 8.44468 9.44819 8.24293 9.5986 8.03818C10.4615 9.28319 12.53 10.7667 15.185 12.6642C19.0181 15.4055 23.7894 18.8165 25.0427 21.9155L25.3458 22.6648L26.0341 22.229C27.3703 21.3838 28.7315 21.2263 29.5854 21.8173C30.3382 22.3385 30.5911 23.4245 30.2751 24.8075C29.849 26.8235 29.2868 27.1445 28.3548 27.6763C27.5632 28.1278 26.5795 28.6896 25.4454 30.2398C25.2273 30.5383 25.2949 30.9546 25.5973 31.1706C25.7165 31.2561 25.8548 31.2966 25.9915 31.2966C26.2012 31.2966 26.4078 31.2006 26.5392 31.0198C27.5047 29.7006 28.3145 29.2378 29.0301 28.8298C29.2488 28.7046 29.4615 28.5823 29.6659 28.4473C30.8927 32.5438 35.4368 35.1958 39.8184 35.8671C38.8119 37.1316 37.6519 38.2109 36.3226 39.0074ZM40.7004 34.6678C40.6631 34.6573 40.6305 34.6371 40.5902 34.6326C35.5827 34.0783 31.4055 30.9471 30.7848 27.3178C31.1046 26.8055 31.3796 26.1088 31.5946 25.0918C32.0352 23.165 31.5855 21.5735 30.361 20.7268C29.2101 19.9303 27.5769 19.9453 25.9748 20.732C24.2702 17.5145 19.881 14.3765 15.978 11.585C13.7698 10.0062 10.4433 7.62643 10.5208 6.89517C14.2764 2.7229 20.4356 0.682885 27.1485 1.51464C35.3115 2.5279 41.8907 7.61068 44.3223 14.7905C45.8036 18.938 44.8525 28.4451 40.7004 34.6678ZM50.2064 21.5195C49.4058 23.045 47.7247 23.8355 46.0558 23.5468C46.4424 20.6773 46.4113 17.9877 46.0125 15.9245C46.8656 15.7677 47.7422 15.89 48.5276 16.292C49.459 16.769 50.1464 17.5752 50.4632 18.5622C50.7807 19.55 50.6888 20.6 50.2064 21.5195Z" fill="#B68C6E"/>
<path d="M7.53315 22.3295C7.62962 21.8135 8.00564 21.3553 8.55638 21.1243C9.10711 20.8925 9.74673 20.9375 10.2496 21.1243C10.7624 21.3103 11.1779 21.6163 11.5159 21.9725C11.8479 22.3378 12.1175 22.7465 12.2619 23.255C11.7347 23.1575 11.3078 22.985 10.9006 22.8268C10.4988 22.6625 10.1273 22.4998 9.78395 22.3753C9.43679 22.2515 9.1375 22.1668 8.79794 22.142C8.45458 22.106 8.04818 22.1848 7.53315 22.3295Z" fill="#B68C6E"/>
<path d="M12.2619 40.5261C12.012 40.5261 11.7712 40.3881 11.6549 40.1511C11.4916 39.8204 11.6306 39.4214 11.9664 39.2601C12.0636 39.2136 12.1586 39.1671 12.2535 39.1184C12.5855 38.9496 12.9919 39.0779 13.1636 39.4049C13.3345 39.7326 13.2046 40.1339 12.8734 40.3034C12.7693 40.3559 12.6637 40.4084 12.5574 40.4594C12.4617 40.5044 12.3606 40.5261 12.2619 40.5261Z" fill="#B68C6E"/>
<path d="M14.6927 39.0149C14.4952 39.0149 14.2992 38.9294 14.1655 38.7659C13.9323 38.4786 13.9787 38.0586 14.2696 37.8284C14.4261 37.7046 14.5788 37.5771 14.7277 37.4459C15.0049 37.2006 15.4326 37.2246 15.681 37.4999C15.9286 37.7744 15.9043 38.1959 15.6263 38.4404C15.4592 38.5874 15.289 38.7306 15.1143 38.8686C14.9905 38.9669 14.8408 39.0149 14.6927 39.0149ZM16.8881 36.7611C16.7475 36.7611 16.6062 36.7184 16.4847 36.6291C16.1862 36.4094 16.1246 35.9909 16.3472 35.6961C16.4672 35.5371 16.5834 35.3751 16.6974 35.2093C16.9071 34.9048 17.3264 34.8261 17.6348 35.0316C17.9432 35.2386 18.0245 35.6526 17.8148 35.9579C17.6902 36.1394 17.5611 36.3186 17.4289 36.4926C17.2967 36.6689 17.0939 36.7611 16.8881 36.7611ZM18.4901 34.0603C18.3967 34.0603 18.3025 34.0416 18.2113 34.0011C17.8718 33.8488 17.7214 33.4536 17.8756 33.1183C17.9591 32.9368 18.0397 32.7516 18.1179 32.5633C18.26 32.2236 18.6557 32.0631 18.9991 32.2011C19.344 32.3413 19.508 32.7313 19.366 33.0711C19.2817 33.2736 19.1943 33.4731 19.1047 33.6688C18.993 33.9148 18.7469 34.0603 18.4901 34.0603ZM19.5475 31.1068C19.4898 31.1068 19.4313 31.0993 19.3728 31.0843C19.0128 30.9891 18.7985 30.6238 18.8943 30.2683C18.9467 30.0741 18.9968 29.8768 19.0454 29.6773C19.1313 29.3188 19.4944 29.0983 19.8582 29.1831C20.2206 29.2678 20.4447 29.6271 20.3588 29.9856C20.3079 30.1971 20.2548 30.4056 20.1993 30.6118C20.1188 30.9096 19.8453 31.1068 19.5475 31.1068ZM20.1659 28.0311C20.1347 28.0311 20.1036 28.0288 20.0725 28.0251C19.7033 27.9748 19.445 27.6381 19.4959 27.2736C19.524 27.0725 19.5506 26.8693 19.5749 26.6645C19.6189 26.2985 19.9562 26.0375 20.3247 26.0803C20.6946 26.1238 20.9597 26.4553 20.9164 26.8205C20.8906 27.0343 20.864 27.2465 20.8344 27.4558C20.7873 27.7896 20.4978 28.0311 20.1659 28.0311ZM20.4492 24.9073C20.4386 24.9073 20.4287 24.9073 20.4181 24.9065C20.0459 24.8893 19.7572 24.578 19.7739 24.2105C19.7838 24.0065 19.7914 23.801 19.7975 23.594C19.8081 23.2265 20.1279 22.9445 20.4918 22.9475C20.8648 22.958 21.158 23.2655 21.1466 23.633C21.1405 23.8475 21.1321 24.0598 21.1223 24.2705C21.1063 24.6283 20.8078 24.9073 20.4492 24.9073Z" fill="#B68C6E"/>
<path d="M20.4743 21.7588C20.1089 21.7588 19.8081 21.4708 19.7997 21.1078L19.7899 20.7823C19.777 20.414 20.0687 20.1058 20.4409 20.0923C20.8344 20.0795 21.1261 20.3675 21.1397 20.735L21.1496 21.0763C21.1587 21.4445 20.8632 21.7498 20.4903 21.758C20.4849 21.7588 20.4796 21.7588 20.4743 21.7588Z" fill="#B68C6E"/>
<path d="M16.2424 28.0303L15.1827 25.964C15.1728 25.9453 15.1538 25.934 15.1424 25.916C15.1113 25.8673 15.0756 25.8253 15.033 25.7855C15.0057 25.7608 14.9799 25.7375 14.9495 25.7173C14.9016 25.6858 14.85 25.6648 14.7953 25.646C14.7702 25.6378 14.7504 25.619 14.7246 25.613C14.7125 25.61 14.6995 25.6153 14.6874 25.613C14.6722 25.6108 14.66 25.6018 14.6449 25.6003C14.5978 25.5958 14.556 25.6093 14.5112 25.6145C14.4755 25.6183 14.4413 25.616 14.4063 25.6258C14.3281 25.6468 14.2582 25.682 14.1936 25.7278C14.183 25.7353 14.1701 25.736 14.1602 25.7435L14.1519 25.7495C14.1503 25.7503 14.1496 25.7518 14.1481 25.7525L12.4389 27.101C12.1472 27.3305 12.1001 27.7505 12.3325 28.0378C12.5657 28.3258 12.9904 28.3723 13.2813 28.1428L13.5897 27.8998C13.1028 29.7388 12.1403 31.8553 10.9242 33.1761C10.6735 33.4491 10.6932 33.8698 10.969 34.1181C11.0989 34.2336 11.2614 34.2913 11.4232 34.2913C11.6071 34.2913 11.7901 34.2178 11.9231 34.0731C13.3049 32.5723 14.3364 30.2968 14.8727 28.3086L15.0383 28.6318C15.1576 28.8636 15.3946 28.9971 15.6415 28.9971C15.744 28.9971 15.8481 28.9738 15.9461 28.9251C16.2773 28.7593 16.411 28.3588 16.2424 28.0303Z" fill="#B68C6E"/>
</svg>
