<svg width="52" height="48" viewBox="0 0 52 48" fill="none" xmlns="http://www.w3.org/2000/svg">
<path d="M51.9841 23.0091C51.9899 22.9866 51.9932 22.9654 51.9958 22.9423C52.0023 22.8929 52.001 22.8441 51.9938 22.7933C51.9919 22.7792 51.9964 22.7657 51.9932 22.7516C51.9919 22.7452 51.9873 22.7413 51.986 22.7349C51.9841 22.7266 51.9854 22.7176 51.9828 22.7092C51.9652 22.6508 51.9379 22.5962 51.9041 22.5481C51.8976 22.5384 51.8879 22.532 51.8807 22.523C51.8463 22.4794 51.8066 22.4415 51.7611 22.4094C51.7416 22.3959 51.7215 22.3863 51.7007 22.3753C51.661 22.3542 51.6201 22.3375 51.5759 22.3259C51.5525 22.3195 51.5297 22.3143 51.5057 22.3111C51.4907 22.3092 51.4771 22.3028 51.4615 22.3015C45.8703 21.9837 41.163 20.591 37.4717 18.1626C34.3238 16.079 31.0959 15.4382 28.611 16.4039C27.4664 16.8495 26.5733 17.604 26 18.5889C25.4274 17.604 24.5336 16.8495 23.389 16.4039C20.906 15.4369 17.6762 16.079 14.5296 18.1613C10.837 20.5903 6.12974 21.983 0.538509 22.3009C0.52291 22.3015 0.50861 22.3086 0.49301 22.3105C0.47091 22.3137 0.45011 22.3188 0.428661 22.324C0.380561 22.3362 0.336362 22.3542 0.294112 22.3773C0.276563 22.3869 0.259013 22.3953 0.242113 22.4068C0.194013 22.4402 0.152414 22.4794 0.116664 22.5256C0.110815 22.5333 0.102365 22.5391 0.0965146 22.5468C0.061415 22.5969 0.0334653 22.6521 0.0159155 22.7124C0.0139655 22.7201 0.0146157 22.7272 0.0133157 22.7349C0.0120158 22.7407 0.00746567 22.7446 0.00681568 22.7503C0.00356572 22.7645 0.00811571 22.7786 0.00616573 22.7927C-0.000984182 22.8434 -0.00228403 22.8929 0.0042159 22.943C0.00746586 22.9654 0.0107159 22.9866 0.0165658 23.0085C0.0282656 23.0553 0.0471152 23.099 0.0705149 23.1414C0.0802648 23.1587 0.0867649 23.176 0.0978148 23.1921C0.135514 23.2467 0.180364 23.2961 0.236913 23.3359C0.236913 23.3359 0.238213 23.3372 0.239513 23.3378L0.240163 23.3385C8.93251 29.4364 17.6112 32.4845 26.2177 32.4845C34.8236 32.4845 43.3574 29.4358 51.7579 23.3391C51.7592 23.3378 51.7605 23.3372 51.7618 23.3359C51.7644 23.334 51.767 23.3321 51.7696 23.3301C51.8235 23.291 51.8671 23.2428 51.9035 23.1902C51.9145 23.1748 51.9204 23.1568 51.9295 23.1401C51.9542 23.0996 51.9724 23.056 51.9841 23.0091ZM15.1724 19.1116C18.0005 17.2399 20.8404 16.6402 22.9665 17.4672C24.2496 17.9667 25.1277 18.9633 25.4384 20.2731C25.4995 20.5313 25.7329 20.7136 26.0013 20.7136C26.2697 20.7136 26.5024 20.5313 26.5642 20.2731C26.8749 18.9633 27.753 17.9667 29.0361 17.4672C31.1609 16.6402 34.0014 17.2399 36.8308 19.1129C39.8214 21.0796 43.4347 22.3901 47.5992 23.0386C33.2513 25.6385 18.7552 25.6385 4.40531 23.0386C8.56851 22.3901 12.1818 21.079 15.1724 19.1116ZM3.29578 23.9973C10.8363 25.4208 18.4185 26.1361 26.0007 26.1361C33.6205 26.1361 41.2397 25.4124 48.8167 23.9748C33.939 33.752 18.6479 33.759 3.29578 23.9973Z" fill="#B68C6E"/>
<path d="M6.67573 30.2802C6.54119 30.2802 6.40664 30.2346 6.29679 30.1402L6.07839 29.9527C5.83724 29.7459 5.8119 29.3857 6.02119 29.1475C6.22984 28.9086 6.59514 28.883 6.83628 29.0904L7.05468 29.2778C7.29583 29.4846 7.32118 29.8448 7.11188 30.083C6.99878 30.214 6.83758 30.2802 6.67573 30.2802Z" fill="#B68C6E"/>
<path d="M27.2766 38.6595C26.9704 38.6595 26.715 38.4219 26.7 38.1163C26.6844 37.8016 26.9301 37.5339 27.2493 37.5178C27.4391 37.5088 27.6282 37.4973 27.818 37.4832C28.1352 37.4613 28.4141 37.695 28.4375 38.0097C28.4615 38.3243 28.223 38.5985 27.9045 38.6216C27.7049 38.6364 27.5047 38.6486 27.3052 38.6582C27.2961 38.6595 27.2863 38.6595 27.2766 38.6595ZM24.9366 38.6492C24.9256 38.6492 24.9139 38.6486 24.9022 38.6479C24.7026 38.637 24.5024 38.6229 24.3029 38.6062C23.985 38.5799 23.7484 38.3038 23.7751 37.9898C23.8017 37.6758 24.0806 37.4369 24.3991 37.469C24.5895 37.4844 24.7793 37.4973 24.9691 37.5088C25.2876 37.5268 25.5307 37.7971 25.5125 38.1118C25.4956 38.4155 25.2408 38.6492 24.9366 38.6492ZM30.184 38.3314C29.9097 38.3314 29.666 38.1381 29.6159 37.8613C29.5594 37.5512 29.768 37.2539 30.0826 37.1987C30.2691 37.166 30.4563 37.1294 30.6422 37.0921C30.9549 37.0305 31.2604 37.2282 31.3241 37.5371C31.3878 37.8459 31.1863 38.1477 30.8736 38.2106C30.6786 38.2505 30.4823 38.2877 30.2867 38.323C30.2522 38.3282 30.2178 38.3314 30.184 38.3314ZM22.0318 38.298C21.9967 38.298 21.9603 38.2948 21.9245 38.2877C21.7276 38.2517 21.5313 38.2126 21.3344 38.1708C21.0224 38.1047 20.8235 37.801 20.8911 37.4928C20.958 37.1852 21.2635 36.9868 21.5775 37.0549C21.7647 37.0947 21.9518 37.1313 22.1384 37.1666C22.4517 37.2244 22.6584 37.5236 22.5992 37.8331C22.5472 38.1066 22.3041 38.298 22.0318 38.298ZM33.0245 37.6437C32.7781 37.6437 32.5493 37.4864 32.4726 37.2417C32.3777 36.9406 32.5487 36.6208 32.8535 36.5277C33.0349 36.4719 33.2156 36.4147 33.3982 36.3537C33.7005 36.2542 34.0287 36.4147 34.1301 36.7133C34.2315 37.0119 34.0684 37.3355 33.7661 37.4363C33.5757 37.4992 33.3859 37.5602 33.1954 37.618C33.1382 37.6353 33.0804 37.6437 33.0245 37.6437ZM19.192 37.5923C19.1348 37.5923 19.0763 37.584 19.0191 37.566C18.8286 37.5076 18.6388 37.4453 18.449 37.3817C18.1468 37.2803 17.9856 36.956 18.0883 36.6574C18.191 36.3589 18.5186 36.197 18.8215 36.3011C19.0028 36.3621 19.1835 36.4205 19.3649 36.4764C19.6691 36.5707 19.8387 36.8905 19.7438 37.1916C19.6658 37.4363 19.4377 37.5923 19.192 37.5923ZM35.7674 36.6337C35.5445 36.6337 35.3326 36.5059 35.2377 36.2914C35.1096 36.0025 35.2435 35.666 35.5354 35.5402C35.7096 35.4651 35.8844 35.388 36.058 35.3084C36.3498 35.1748 36.6917 35.3007 36.8256 35.5858C36.9602 35.8715 36.8341 36.2112 36.5448 36.3441C36.3628 36.4269 36.1808 36.5072 35.9988 36.5862C35.9228 36.6183 35.8441 36.6337 35.7674 36.6337ZM16.4516 36.5759C16.3743 36.5759 16.2956 36.5611 16.2202 36.5277C16.0382 36.4494 15.8575 36.3691 15.6762 36.2863C15.3863 36.1547 15.2589 35.8156 15.3921 35.5293C15.5254 35.2435 15.8686 35.117 16.1585 35.2493C16.3333 35.3283 16.5075 35.406 16.683 35.4818C16.9755 35.6076 17.1094 35.9447 16.9814 36.233C16.8865 36.4487 16.6746 36.5759 16.4516 36.5759ZM38.3895 35.3482C38.1861 35.3482 37.9891 35.2423 37.8838 35.0541C37.7285 34.778 37.8299 34.4306 38.1087 34.2778C38.2751 34.1866 38.4408 34.0935 38.6072 33.9972C38.8835 33.8393 39.2371 33.9311 39.3976 34.2027C39.5582 34.4756 39.4646 34.8249 39.1896 34.9835C39.0167 35.083 38.8432 35.18 38.6696 35.275C38.5806 35.3257 38.4844 35.3482 38.3895 35.3482ZM13.8276 35.2936C13.7327 35.2936 13.6365 35.2705 13.5475 35.2217C13.3752 35.1273 13.2023 35.0316 13.0301 34.9334C12.7532 34.7767 12.6576 34.4274 12.8162 34.1539C12.9748 33.881 13.3284 33.786 13.6046 33.9433C13.7723 34.0383 13.94 34.1314 14.1077 34.2239C14.3866 34.3767 14.4873 34.7241 14.3326 35.0002C14.228 35.1877 14.031 35.2936 13.8276 35.2936ZM40.8835 33.8348C40.697 33.8348 40.5143 33.7462 40.4032 33.5824C40.2251 33.3205 40.2959 32.966 40.5605 32.7901C40.7191 32.6848 40.8777 32.5782 41.0356 32.4691C41.2969 32.2893 41.657 32.3528 41.8403 32.611C42.0223 32.8691 41.9586 33.2254 41.6967 33.4059C41.5329 33.5182 41.3691 33.6293 41.2046 33.7378C41.1065 33.8033 40.994 33.8348 40.8835 33.8348ZM11.3258 33.7918C11.2159 33.7918 11.1048 33.7609 11.006 33.6961C10.8422 33.5882 10.6784 33.4797 10.5146 33.3693C10.2513 33.1914 10.1831 32.8363 10.3631 32.5756C10.5432 32.3149 10.9026 32.2482 11.1665 32.4254C11.3264 32.5333 11.4863 32.6398 11.6469 32.7452C11.9127 32.9198 11.9849 33.2742 11.8074 33.5362C11.6956 33.7025 11.5123 33.7918 11.3258 33.7918ZM43.2514 32.1339C43.0798 32.1339 42.9095 32.0588 42.7951 31.9149C42.5988 31.6671 42.643 31.3075 42.8946 31.1129C43.0454 30.9967 43.1968 30.8779 43.347 30.7585C43.5953 30.5601 43.9599 30.5999 44.1595 30.8452C44.359 31.0911 44.32 31.45 44.0717 31.6478C43.9164 31.7711 43.7617 31.8925 43.607 32.0125C43.501 32.0941 43.3756 32.1339 43.2514 32.1339ZM8.94421 32.1101C8.82136 32.1101 8.69786 32.0716 8.59256 31.992C8.43591 31.8738 8.28056 31.7538 8.12457 31.6324C7.87367 31.4379 7.83077 31.0789 8.02837 30.8304C8.22597 30.5832 8.59061 30.5408 8.84021 30.7354C8.99231 30.8535 9.1444 30.9704 9.29715 31.086C9.55 31.278 9.5981 31.6363 9.40375 31.8867C9.2887 32.0331 9.1171 32.1101 8.94421 32.1101Z" fill="#B68C6E"/>
<path d="M45.5128 30.266C45.3529 30.266 45.1936 30.2005 45.0792 30.0734C44.868 29.8371 44.8907 29.4763 45.1299 29.2669L45.3418 29.0801C45.5797 28.8688 45.9444 28.8881 46.1582 29.1237C46.3714 29.3588 46.3519 29.719 46.114 29.9302L45.895 30.1235C45.7851 30.2192 45.6486 30.266 45.5128 30.266Z" fill="#B68C6E"/>
<path d="M45.7273 19.7742C45.6707 19.7742 45.6135 19.7659 45.5563 19.7485L45.2755 19.6606C44.972 19.5643 44.8043 19.2426 44.9018 18.9427C44.9986 18.6429 45.3236 18.4772 45.6285 18.5735L45.8982 18.6583C46.2031 18.7514 46.3734 19.0711 46.2791 19.3723C46.2031 19.6169 45.9743 19.7742 45.7273 19.7742Z" fill="#B68C6E"/>
<path d="M43.1624 18.8201C43.0831 18.8201 43.0031 18.804 42.9264 18.77C42.7347 18.6852 42.5449 18.5979 42.3564 18.508C42.0685 18.3713 41.9476 18.0297 42.086 17.7459C42.2251 17.462 42.5715 17.3426 42.8575 17.4794C43.0369 17.5648 43.2176 17.6476 43.3996 17.7279C43.6908 17.8569 43.8215 18.1947 43.6902 18.4823C43.594 18.6942 43.3834 18.8201 43.1624 18.8201ZM40.4636 17.3914C40.3583 17.3914 40.2517 17.3632 40.1562 17.3035C39.9787 17.193 39.8026 17.08 39.6284 16.9644C39.3638 16.7885 39.293 16.4341 39.4711 16.1721C39.6485 15.9107 40.006 15.8401 40.2732 16.0161C40.4383 16.1259 40.6047 16.2331 40.7724 16.3377C41.0428 16.506 41.1234 16.8585 40.9531 17.1249C40.8432 17.297 40.6554 17.3914 40.4636 17.3914ZM37.9976 15.5993C37.865 15.5993 37.7317 15.555 37.6225 15.4632C37.4633 15.329 37.3053 15.1929 37.1493 15.0542C36.9121 14.8429 36.8939 14.4821 37.1071 14.2477C37.3216 14.0127 37.6869 13.9947 37.9235 14.206C38.071 14.3376 38.2211 14.4667 38.3719 14.5932C38.6144 14.7974 38.6443 15.1582 38.4376 15.3977C38.3232 15.5313 38.1607 15.5993 37.9976 15.5993ZM35.7122 13.5832C35.5815 13.5832 35.4502 13.5395 35.3417 13.4502C35.1857 13.3212 35.031 13.1966 34.8776 13.0753C34.6273 12.8788 34.587 12.5192 34.7853 12.2733C34.9855 12.0274 35.3488 11.9863 35.5971 12.1828C35.7583 12.3099 35.9202 12.4402 36.0827 12.5744C36.3277 12.7767 36.3596 13.1369 36.1548 13.3783C36.0417 13.5132 35.8779 13.5832 35.7122 13.5832ZM33.2409 11.7969C33.1369 11.7969 33.0323 11.7692 32.9374 11.7115C32.7671 11.6074 32.5974 11.5086 32.4304 11.4161C32.1522 11.2614 32.0527 10.914 32.2094 10.6385C32.366 10.3631 32.7183 10.2655 32.9959 10.4202C33.1779 10.521 33.3605 10.6276 33.5458 10.7406C33.8175 10.9063 33.9007 11.2581 33.733 11.5265C33.6238 11.7012 33.4346 11.7969 33.2409 11.7969ZM27.0569 11.2703C26.9184 11.2703 26.78 11.2215 26.6688 11.1227C26.4322 10.9108 26.414 10.5499 26.6279 10.3162C26.7962 10.1326 26.9828 9.96946 27.183 9.83141C27.4436 9.65034 27.805 9.71327 27.9877 9.97203C28.1703 10.2302 28.1073 10.5859 27.8453 10.7669C27.7166 10.8562 27.5944 10.9621 27.4846 11.0829C27.3708 11.2074 27.2142 11.2703 27.0569 11.2703ZM30.4628 10.5486C30.4147 10.5486 30.366 10.5422 30.3172 10.53C30.132 10.4825 29.952 10.4459 29.7778 10.4202C29.4619 10.374 29.2441 10.0838 29.2909 9.7717C29.3377 9.45964 29.6322 9.24711 29.9474 9.29077C30.1612 9.32223 30.3822 9.36718 30.6078 9.42497C30.9172 9.50394 31.1024 9.816 31.0218 10.121C30.9536 10.3778 30.7196 10.5486 30.4628 10.5486Z" fill="#B68C6E"/>
<path d="M26.0007 13.7475C25.7179 13.7475 25.4768 13.5453 25.4306 13.2698C25.4157 13.1806 25.3994 13.0932 25.3819 13.0072C25.3195 12.6984 25.5216 12.3972 25.8349 12.3349C25.8908 12.324 25.948 12.3208 26.0007 12.3259C26.054 12.3202 26.1098 12.3234 26.1664 12.3349C26.479 12.3966 26.6825 12.6977 26.6188 13.0072C26.6019 13.0926 26.5856 13.1799 26.57 13.2698C26.5245 13.5459 26.2834 13.7475 26.0007 13.7475Z" fill="#B68C6E"/>
<path d="M9.01116 18.7424C8.79211 18.7424 8.58281 18.6185 8.48531 18.4085C8.35271 18.1215 8.48076 17.7831 8.77066 17.6515C8.95006 17.5706 9.12815 17.4871 9.3043 17.401C9.5916 17.2617 9.93674 17.3779 10.0784 17.6605C10.2195 17.9436 10.1018 18.2859 9.81585 18.4252C9.6293 18.5164 9.44145 18.6043 9.25165 18.6897C9.173 18.7257 9.09175 18.7424 9.01116 18.7424ZM11.6761 17.3041C11.4857 17.3041 11.2998 17.2116 11.1893 17.0415C11.017 16.7763 11.0944 16.4231 11.3628 16.2523C11.5286 16.147 11.693 16.0398 11.8562 15.93C12.1201 15.7528 12.4795 15.8196 12.6596 16.0796C12.8396 16.3397 12.772 16.6954 12.5081 16.8732C12.3365 16.9895 12.163 17.1025 11.9875 17.2136C11.8913 17.2746 11.7834 17.3041 11.6761 17.3041ZM14.1103 15.5101C13.9478 15.5101 13.7866 15.4427 13.6723 15.3117C13.4636 15.0728 13.4909 14.7126 13.7327 14.5065C13.8822 14.3794 14.0304 14.2497 14.1766 14.118C14.4139 13.9061 14.7792 13.9241 14.993 14.1566C15.2075 14.3903 15.19 14.7511 14.954 14.963C14.8 15.1011 14.644 15.2372 14.4873 15.3707C14.3781 15.4645 14.2436 15.5101 14.1103 15.5101ZM16.3775 13.51C16.2111 13.51 16.0467 13.44 15.9323 13.3032C15.7288 13.0605 15.7626 12.7003 16.0083 12.4993C16.1702 12.367 16.3307 12.238 16.4906 12.1134C16.7409 11.9176 17.1049 11.9593 17.3025 12.2065C17.5007 12.4544 17.4585 12.8133 17.2082 13.0085C17.0548 13.1286 16.9008 13.2518 16.7461 13.3783C16.6382 13.4669 16.5075 13.51 16.3775 13.51ZM18.8377 11.75C18.6427 11.75 18.4529 11.653 18.3444 11.4771C18.178 11.2081 18.2631 10.8568 18.5355 10.6918C18.7194 10.5807 18.9021 10.4761 19.0815 10.3772C19.3597 10.225 19.712 10.3239 19.8673 10.5994C20.0227 10.8748 19.9213 11.2222 19.6424 11.3756C19.4767 11.4668 19.3083 11.5638 19.1393 11.6659C19.0451 11.723 18.9411 11.75 18.8377 11.75ZM24.9685 11.2973C24.8086 11.2973 24.65 11.2325 24.5356 11.1047C24.4264 10.9827 24.3068 10.8748 24.1807 10.7849C23.922 10.6 23.8648 10.243 24.052 9.98744C24.2392 9.73189 24.6006 9.67602 24.8593 9.8603C25.0536 9.99964 25.2356 10.1634 25.4007 10.3477C25.6126 10.5833 25.5905 10.9442 25.3513 11.1535C25.2421 11.2504 25.105 11.2973 24.9685 11.2973ZM21.6022 10.5319C21.3428 10.5319 21.1075 10.3586 21.0419 10.0985C20.9652 9.79224 21.1537 9.48275 21.4637 9.40634C21.6893 9.35112 21.9089 9.30875 22.1215 9.28049C22.438 9.23555 22.7292 9.45643 22.7721 9.76913C22.815 10.0818 22.5934 10.3695 22.2775 10.4119C22.1039 10.435 21.9258 10.4697 21.7426 10.5146C21.6951 10.5268 21.6483 10.5319 21.6022 10.5319Z" fill="#B68C6E"/>
<path d="M6.45864 19.7171C6.21424 19.7171 5.98674 19.5623 5.90809 19.3196C5.81125 19.0191 5.97894 18.6981 6.28249 18.6018L6.55029 18.5157C6.85253 18.4156 7.18013 18.5767 7.28153 18.8759C7.38293 19.1745 7.21913 19.4981 6.91688 19.5983L6.63544 19.6895C6.57629 19.7081 6.51649 19.7171 6.45864 19.7171Z" fill="#B68C6E"/>
<path d="M28.2087 1.94394L26.4095 0.166623C26.3562 0.113972 26.2925 0.0722355 26.2216 0.0433413C26.0806 -0.0144471 25.9214 -0.0144471 25.7797 0.0433413C25.7088 0.0722355 25.6451 0.113972 25.5918 0.166623L23.7926 1.94394C23.5671 2.16674 23.5671 2.52824 23.7926 2.75105C24.0182 2.97386 24.3841 2.97386 24.6097 2.75105L25.4222 1.94843V5.53966C25.4222 5.85493 25.6809 6.11048 26 6.11048C26.3191 6.11048 26.5778 5.85493 26.5778 5.53966V1.94843L27.3903 2.75105C27.5034 2.86277 27.651 2.91799 27.7992 2.91799C27.9474 2.91799 28.0949 2.86213 28.208 2.75105C28.4342 2.52824 28.4342 2.16674 28.2087 1.94394Z" fill="#B68C6E"/>
<path d="M46.0809 8.93633L45.4666 6.49638C45.4666 6.49509 45.4653 6.49445 45.4647 6.49317C45.4465 6.4219 45.414 6.35448 45.3691 6.29476C45.336 6.25046 45.2918 6.21835 45.2482 6.18561C45.232 6.17341 45.2216 6.15607 45.2034 6.14515C45.1897 6.13681 45.1748 6.13681 45.1605 6.13039C45.1065 6.10406 45.0513 6.07966 44.9915 6.07067C44.9154 6.05911 44.8387 6.06232 44.7653 6.08094L42.2966 6.68708C41.9866 6.76349 41.7981 7.07298 41.8748 7.37926C41.9521 7.68554 42.266 7.87046 42.5754 7.79598L43.6908 7.5218L41.8163 10.5987C41.6512 10.869 41.7396 11.2196 42.0132 11.3821C42.1062 11.4373 42.2089 11.4636 42.3109 11.4636C42.5065 11.4636 42.6983 11.3654 42.8062 11.1869L44.6808 8.10996L44.9583 9.21243C45.024 9.47248 45.2599 9.64585 45.5186 9.64585C45.5648 9.64585 45.6116 9.64071 45.6584 9.62915C45.9691 9.5521 46.1576 9.24261 46.0809 8.93633Z" fill="#B68C6E"/>
<path d="M10.1844 10.5981L8.30982 7.52116L9.4252 7.79469C9.73265 7.86853 10.0485 7.68425 10.1259 7.37797C10.2026 7.07169 10.0141 6.76221 9.70405 6.6858L7.23473 6.07966C7.23278 6.07902 7.23083 6.07966 7.22888 6.07966C7.15803 6.06297 7.08393 6.05911 7.01048 6.07003C6.93573 6.08095 6.86293 6.10599 6.79728 6.14515C6.73098 6.18432 6.67443 6.23633 6.62959 6.29669C6.59189 6.34741 6.56849 6.40584 6.54964 6.46492C6.54639 6.47583 6.53729 6.48482 6.53469 6.49638L5.92109 8.93633C5.84439 9.24261 6.03289 9.5521 6.34294 9.62851C6.38974 9.64007 6.43654 9.6452 6.48269 9.6452C6.74203 9.6452 6.97733 9.47184 7.04298 9.21179L7.31988 8.10996L9.19445 11.1862C9.303 11.3641 9.4941 11.463 9.6904 11.463C9.7918 11.463 9.8945 11.4366 9.98809 11.3814C10.2611 11.219 10.3488 10.8677 10.1844 10.5981Z" fill="#B68C6E"/>
<path d="M28.2087 45.248C27.9831 45.0252 27.6172 45.0252 27.3916 45.248L26.5791 46.0506V42.46C26.5791 42.1448 26.3204 41.8892 26.0013 41.8892C25.6822 41.8892 25.4235 42.1448 25.4235 42.46V46.0506L24.611 45.248C24.3854 45.0252 24.0195 45.0252 23.7939 45.248C23.5684 45.4708 23.5684 45.8323 23.7939 46.0551L25.5925 47.8318C25.6458 47.8844 25.7101 47.9262 25.781 47.9557C25.8518 47.9846 25.9266 48 26.002 48C26.0774 48 26.1521 47.9846 26.2229 47.9557C26.2938 47.9268 26.3575 47.8851 26.4114 47.8318L28.21 46.0551C28.4342 45.8323 28.4342 45.4714 28.2087 45.248Z" fill="#B68C6E"/>
<path d="M45.659 38.3705C45.349 38.2967 45.0357 38.481 44.9583 38.7873L44.6808 39.8897L42.8062 36.8128C42.6411 36.5431 42.2856 36.4552 42.0132 36.6183C41.7396 36.7807 41.6512 37.1313 41.8163 37.4016L43.6908 40.4785L42.5754 40.2043C42.2654 40.1292 41.9521 40.3148 41.8748 40.6211C41.7981 40.9273 41.9866 41.2368 42.2966 41.3132L44.7659 41.92C44.8114 41.9309 44.8582 41.9367 44.905 41.9367C45.0064 41.9367 45.1091 41.9104 45.2027 41.8545C45.269 41.8154 45.3256 41.7634 45.3704 41.7036C45.4153 41.6439 45.4471 41.5759 45.4653 41.5046L45.466 41.5039L46.0802 39.064C46.1576 38.7564 45.9691 38.4469 45.659 38.3705Z" fill="#B68C6E"/>
<path d="M9.98744 36.6183C9.7151 36.4552 9.35955 36.5431 9.19445 36.8128L7.31988 39.8891L7.04298 38.7873C6.96563 38.481 6.65103 38.2973 6.34229 38.3705C6.03224 38.4469 5.84375 38.7564 5.92044 39.0627L6.53404 41.5027C6.53664 41.5142 6.54509 41.5226 6.54899 41.5335C6.56784 41.5932 6.59189 41.6516 6.62959 41.7024C6.67443 41.7627 6.73098 41.8141 6.79728 41.8539C6.84278 41.8809 6.89088 41.9014 6.94158 41.9149C6.99228 41.9284 7.04363 41.9354 7.09498 41.9354C7.14178 41.9354 7.18858 41.9297 7.23408 41.9187L9.7034 41.312C10.0134 41.2355 10.2019 40.9261 10.1246 40.6198C10.0479 40.3135 9.73265 40.1286 9.42455 40.2031L8.30917 40.4772L10.1837 37.401C10.3488 37.1313 10.2611 36.7801 9.98744 36.6183Z" fill="#B68C6E"/>
</svg>
