<svg width="153" height="98" viewBox="0 0 153 98" fill="none" xmlns="http://www.w3.org/2000/svg">
<g opacity="0.3">
<path d="M35.5146 0C15.9269 0 0 15.8706 0 35.3889C0 52.7294 12.4848 67.3478 29.4225 70.2606C30.3513 82.7283 20.0248 93.2361 19.9155 93.345C19.0413 94.2433 18.8501 95.5772 19.4784 96.6389C19.9975 97.51 20.899 98 21.8551 98C22.0737 98 22.3196 97.9728 22.5654 97.8911C72.1493 84.1711 71.1112 37.8661 71.0292 35.3344C70.9746 15.8433 55.075 0 35.5146 0Z" fill="white"/>
<path d="M152.986 35.3344C152.931 15.8433 137.032 0 117.471 0C97.8837 0 81.9568 15.8706 81.9568 35.3889C81.9568 52.7294 94.4416 67.3478 111.379 70.2606C112.308 82.7283 101.982 93.2361 101.872 93.345C100.998 94.2433 100.807 95.5772 101.435 96.6389C101.954 97.51 102.856 98 103.812 98C104.031 98 104.276 97.9728 104.522 97.8911C154.106 84.1711 153.068 37.8661 152.986 35.3344Z" fill="white"/>
</g>
</svg>
