<svg width="28" height="15" viewBox="0 0 28 15" fill="none" xmlns="http://www.w3.org/2000/svg">
<path fill-rule="evenodd" clip-rule="evenodd" d="M22.7728 14.9297H22.5638C21.139 14.7158 20.2577 13.7977 19.43 12.942C18.9555 12.461 18.1917 11.2225 17.3407 11.3519C16.1306 11.5335 16.8057 13.5125 16.2961 14.3334C15.892 14.9893 14.1461 14.8502 12.9533 14.7309C9.17178 14.3616 7.12056 12.5608 5.43203 10.5568C3.61857 8.41864 2.313 6.07397 1.04462 3.59991C0.626773 2.78913 0 1.99983 0 1.01592C0.614865 0.557168 1.70461 0.618389 2.71602 0.618389C3.56676 0.618389 4.80526 0.524968 5.43203 0.817157C5.80329 0.993265 6.17601 2.01334 6.47666 2.60607C7.06331 3.79067 7.76264 4.92174 8.5659 5.98512C8.9311 6.46216 9.58733 7.30017 10.2373 7.17773C10.876 7.06046 10.8367 5.7142 10.8641 4.79251C10.8973 3.74441 10.9834 2.36953 10.6551 1.811C10.3505 1.28744 9.75865 1.32918 9.19267 1.01592C9.6615 0.141346 10.9685 0.0220853 12.5355 0.0220853C13.8492 0.0220853 15.5682 -0.176683 16.0872 0.618389C16.6026 1.43831 16.3352 3.09603 16.2961 4.19621C16.257 5.43175 16.0013 6.60468 16.9229 7.17773C17.6357 7.10736 17.9756 6.48204 18.3853 5.98512C19.2931 4.89389 19.9828 4.00738 20.6835 2.60607C20.9685 2.02109 21.209 1.00261 21.7281 0.817157C22.5208 0.545242 23.7027 0.618389 24.862 0.618389C25.8187 0.618389 27.4836 0.41326 27.7869 1.01592C28.0329 1.49714 27.39 2.85453 27.1602 3.20237C26.2781 4.52577 25.3927 5.43076 24.4442 6.58143C24.0614 7.04654 23.3486 7.63728 23.3995 8.37034C23.433 8.93603 23.9737 9.36537 24.4442 9.76171C25.3563 10.553 26.1951 11.4175 26.9513 12.3457C27.2613 12.711 28.0644 13.462 27.9959 13.9358C27.8026 15.4159 22.7753 14.9156 22.7728 14.9297Z" fill="#B68C6E"/>
</svg>
