<svg width="23" height="22" viewBox="0 0 23 22" fill="none" xmlns="http://www.w3.org/2000/svg">
<path fill-rule="evenodd" clip-rule="evenodd" d="M16.4286 22H6.57143C4.82858 22 3.1571 21.3471 1.92472 20.1849C0.69234 19.0227 0 17.4464 0 15.8028V6.19718C0 4.55359 0.69234 2.97731 1.92472 1.81511C3.1571 0.652916 4.82858 0 6.57143 0H16.4286C18.1714 0 19.8429 0.652916 21.0753 1.81511C22.3077 2.97731 23 4.55359 23 6.19718V15.8028C23 16.6166 22.83 17.4225 22.4998 18.1744C22.1695 18.9263 21.6855 19.6094 21.0753 20.1849C20.4651 20.7603 19.7406 21.2168 18.9434 21.5283C18.1461 21.8397 17.2915 22 16.4286 22ZM20.8643 5.73239C20.8643 4.70515 20.4316 3.71997 19.6613 2.9936C18.8911 2.26723 17.8464 1.85915 16.7571 1.85915H6.07857C4.98929 1.85915 3.94463 2.26723 3.17439 2.9936C2.40415 3.71997 1.97143 4.70515 1.97143 5.73239V15.8028C1.97143 16.8301 2.40415 17.8152 3.17439 18.5416C3.94463 19.268 4.98929 19.6761 6.07857 19.6761H16.7571C17.8464 19.6761 18.8911 19.268 19.6613 18.5416C20.4316 17.8152 20.8643 16.8301 20.8643 15.8028V5.73239ZM17.5786 6.35211C17.2861 6.35211 17.0003 6.27033 16.7571 6.11712C16.514 5.9639 16.3245 5.74613 16.2125 5.49135C16.1006 5.23656 16.0714 4.9562 16.1284 4.68572C16.1855 4.41524 16.3263 4.16679 16.5331 3.97178C16.7398 3.77678 17.0033 3.64397 17.2901 3.59017C17.5769 3.53637 17.8742 3.56398 18.1444 3.66952C18.4146 3.77506 18.6455 3.95378 18.808 4.18308C18.9704 4.41238 19.0571 4.68197 19.0571 4.95775C19.0571 5.32756 18.9014 5.68222 18.6241 5.94371C18.3468 6.20521 17.9707 6.35211 17.5786 6.35211ZM11.4179 16.5775C10.2319 16.5775 9.07253 16.2458 8.08642 15.6244C7.10031 15.0031 6.33174 14.1199 5.87789 13.0866C5.42403 12.0533 5.30527 10.9163 5.53664 9.81931C5.76801 8.72236 6.33912 7.71475 7.17773 6.9239C8.01635 6.13304 9.08481 5.59446 10.248 5.37626C11.4112 5.15807 12.6169 5.27005 13.7126 5.69806C14.8083 6.12607 15.7448 6.85088 16.4037 7.78082C17.0626 8.71077 17.4143 9.8041 17.4143 10.9225C17.4143 12.4223 16.7825 13.8607 15.658 14.9212C14.5334 15.9817 13.0082 16.5775 11.4179 16.5775ZM11.4179 7.28169C10.6543 7.28169 9.90785 7.49522 9.27296 7.89528C8.63807 8.29534 8.14323 8.86397 7.85102 9.52924C7.55881 10.1945 7.48236 10.9266 7.63132 11.6328C7.78029 12.3391 8.14798 12.9878 8.68791 13.497C9.22784 14.0062 9.91577 14.3529 10.6647 14.4934C11.4136 14.6339 12.1898 14.5618 12.8953 14.2862C13.6007 14.0107 14.2037 13.544 14.6279 12.9453C15.0521 12.3465 15.2786 11.6426 15.2786 10.9225C15.2786 9.95692 14.8718 9.03086 14.1478 8.34807C13.4238 7.66528 12.4418 7.28169 11.4179 7.28169Z" fill="#B68C6E"/>
</svg>
