<svg width="260" height="94" viewBox="0 0 260 94" fill="none" xmlns="http://www.w3.org/2000/svg">
<path d="M11.414 71.6724C10.0791 71.6572 9.06059 71.1961 8.35841 70.2892C7.65624 69.3823 7.46643 67.9218 7.78898 65.9079C8.17815 63.8914 9.21164 61.2829 10.8894 58.0825C12.5672 54.882 15.1212 51.0473 18.5514 46.5784C18.0953 46.8628 17.3049 47.1268 16.1802 47.3704C15.122 47.6114 13.8934 47.7589 12.4945 47.8129C11.1621 47.8644 9.75933 47.8184 8.28604 47.6752C6.87936 47.5293 5.63152 47.1772 4.5425 46.6188C3.45348 46.0604 2.65653 45.2905 2.15164 44.3093C1.58012 43.3306 1.46336 42.0341 1.80134 40.4199C2.02924 39.4104 2.59279 38.4546 3.492 37.5525C4.3912 36.6505 5.42879 35.8766 6.60475 35.2307C7.78071 34.5849 8.96568 34.1722 10.1596 33.9927C11.4202 33.8106 12.4938 33.9693 13.3804 34.4688C14.1338 34.9735 14.5938 35.6562 14.7604 36.5171C14.9912 37.3088 14.9926 38.2094 14.7647 39.219C14.6008 40.1593 14.3063 41.1714 13.8811 42.2553C13.4534 43.2726 12.9885 44.1912 12.4864 45.0111C13.6163 44.9008 14.7129 44.7918 15.7762 44.684C16.837 44.5096 17.8016 44.439 18.6702 44.4722C19.6029 44.4362 20.3728 44.5066 20.9801 44.6833C21.654 44.8574 22.1677 45.2045 22.5214 45.7246C21.7606 46.7547 20.8435 48.0577 19.7701 49.6336C18.7634 51.207 17.7272 52.8815 16.6616 54.6573C15.6626 56.4305 14.7635 58.1998 13.9643 59.9653C13.1652 61.7307 12.6927 63.3168 12.5468 64.7235C12.3907 65.8637 12.4151 66.4966 12.6201 66.6221C12.8943 66.8116 13.5207 66.6207 14.4994 66.0492C15.8701 65.2624 17.5225 63.9977 19.4568 62.2551C21.4576 60.51 23.4853 58.597 25.5399 56.5162C27.6611 54.4328 29.6824 52.3533 31.6038 50.2776C33.5918 48.1994 35.2582 46.4338 36.6032 44.9808C36.7979 44.8399 37.0016 44.9321 37.2143 45.2575C37.4911 45.5136 37.5039 45.8467 37.2529 46.2567C36.5049 47.6199 35.4649 49.1945 34.1328 50.9806C32.8007 52.7666 31.3033 54.5924 29.6407 56.4579C28.0447 58.3209 26.3488 60.1877 24.553 62.0584C22.8212 63.8599 21.115 65.4602 19.4344 66.8594C17.7563 68.3252 16.1999 69.4861 14.7652 70.3421C13.3997 71.2621 12.2826 71.7055 11.414 71.6724ZM11.7781 37.0325C11.1683 36.7892 10.4355 36.8175 9.57974 37.1174C8.79062 37.4147 8.00793 37.8786 7.23167 38.509C6.51946 39.0702 5.94562 39.7595 5.51016 40.577C5.07213 41.3277 4.86726 42.0695 4.89555 42.8023C4.98788 43.4659 5.41073 44.05 6.16409 44.5547C6.98149 44.9901 8.29081 45.2065 10.092 45.2036C10.3354 44.5938 10.6081 43.8828 10.9104 43.0705C11.2766 42.189 11.5443 41.3448 11.7133 40.5376C11.9489 39.728 12.0884 39.022 12.1319 38.4199C12.1728 37.7512 12.0549 37.2887 11.7781 37.0325ZM42.8767 63.3525C44.706 62.3479 46.6223 61.0063 48.6257 59.3278C50.6291 57.6492 52.53 55.9079 54.3284 54.1039C56.1243 52.2332 57.7229 50.4369 59.1241 48.7149C60.592 46.9903 61.6718 45.5809 62.3635 44.4868C62.6145 44.0768 62.872 43.8333 63.1359 43.7564C63.4664 43.677 63.7354 43.7333 63.943 43.9254C64.2146 44.0484 64.3888 44.2418 64.4657 44.5057C64.6093 44.767 64.6196 45.0335 64.4966 45.3051C63.4181 46.7478 62.1821 48.43 60.7885 50.3519C59.4616 52.2712 58.0014 54.1956 56.408 56.1252C54.812 57.9881 53.1135 59.7883 51.3125 61.5257C49.5756 63.194 47.7937 64.5637 45.967 65.635C44.2044 66.6371 42.4916 67.2036 40.8288 67.3345C39.1659 67.4654 37.6875 67.1889 36.3935 66.5049C35.0994 65.821 34.0245 64.7617 33.1685 63.327C32.3125 61.8923 31.8126 60.1769 31.6689 58.181C31.4533 56.0544 31.5696 53.8816 32.0177 51.6627C32.4657 49.4438 33.188 47.4144 34.1844 45.5746C35.2449 43.6656 36.5834 42.0461 38.2 40.7161C39.8166 39.386 41.6856 38.5467 43.8071 38.1979C45.2009 38.0107 46.4103 38.2308 47.4352 38.8584C48.4602 39.486 48.9446 40.8017 48.8886 42.8053C48.8477 43.4741 48.5519 44.4529 48.0012 45.7417C47.5171 47.028 46.732 48.2926 45.6458 49.5354C44.6262 50.7757 43.335 51.893 41.7722 52.8873C40.2068 53.8151 38.3236 54.2881 36.1227 54.3063C35.9846 55.9128 35.9438 57.4489 36.0004 58.9145C36.121 60.3108 36.4337 61.4997 36.9386 62.4809C37.441 63.3956 38.1636 63.9681 39.1065 64.1986C40.1161 64.4265 41.3728 64.1444 42.8767 63.3525ZM43.3846 40.2157C42.7235 40.3747 42.0408 40.8347 41.3363 41.5957C40.6984 42.3542 40.0682 43.3126 39.4458 44.4708C38.8208 45.5624 38.2342 46.7859 37.6861 48.1414C37.202 49.4277 36.8511 50.7089 36.6335 51.9849C37.8993 51.936 39.179 51.3862 40.4728 50.3356C41.8332 49.2823 42.9219 48.1061 43.7391 46.8069C44.6203 45.4386 45.1031 44.119 45.1875 42.8481C45.2718 41.5772 44.6709 40.6998 43.3846 40.2157ZM78.0096 43.8828C77.8478 41.4205 77.357 39.9384 76.537 39.4363C75.7144 38.8676 74.6832 38.9408 73.4432 39.6558C72.2698 40.3683 70.9811 41.5522 69.5773 43.2076C68.24 44.8604 66.9759 46.6772 65.7847 48.6579C64.468 50.8437 63.5126 52.882 62.9185 54.773C62.3883 56.5948 62.1836 58.2039 62.3042 59.6003C62.4223 60.9301 62.7645 62.0177 63.3308 62.8631C63.9638 63.706 64.7851 64.2414 65.7946 64.4693C66.6017 64.6383 68.0558 64.2819 70.1566 63.4002C72.2575 62.5185 74.5415 61.1961 77.0087 59.433C79.5399 57.6006 82.089 55.3673 84.6559 52.733C87.2229 50.0987 89.4106 47.1454 91.2191 43.8732C91.7826 42.9175 92.2297 42.3998 92.5602 42.3203C92.9573 42.2383 93.1969 42.3958 93.2789 42.793C93.4276 43.1875 93.4469 43.6872 93.3368 44.2919C93.2267 44.8966 92.9795 45.4065 92.5953 45.8216C90.0105 49.7242 87.2438 53.2335 84.2952 56.3496C81.3465 59.4657 78.4759 62.0116 75.6834 63.9875C72.9601 66.0274 70.4467 67.4587 68.1434 68.2815C65.8427 69.1709 64.0479 69.3403 62.759 68.7896C61.1985 68.116 59.9609 67.163 59.046 65.9307C58.1977 64.6958 57.6761 63.2816 57.4812 61.6879C57.2836 60.0276 57.4115 58.1546 57.8647 56.0689C58.382 53.914 59.1016 51.8181 60.0237 49.781C61.0099 47.6747 62.1998 45.6606 63.5933 43.7388C64.9869 41.8169 66.492 40.191 68.1085 38.861C69.7251 37.531 71.4237 36.5981 73.2044 36.0623C75.0516 35.524 76.8542 35.5545 78.6119 36.1538C79.2192 36.3305 79.633 36.6815 79.8535 37.2067C80.0739 37.7319 80.197 38.3276 80.2227 38.9938C80.2484 39.66 80.1742 40.33 80 41.0039C79.8925 41.6752 79.7478 42.2479 79.566 42.7219C79.1869 43.2703 78.6681 43.6572 78.0096 43.8828ZM98.4017 61.2091C100.231 60.2044 102.147 58.8628 104.151 57.1843C106.154 55.5058 108.055 53.7645 109.853 51.9604C111.649 50.0898 113.248 48.2934 114.649 46.5714C116.117 44.8469 117.197 43.4375 117.889 42.3433C118.14 41.9334 118.397 41.6899 118.661 41.613C118.991 41.5335 119.26 41.5899 119.468 41.782C119.74 41.9049 119.914 42.0984 119.991 42.3623C120.134 42.6236 120.145 42.8901 120.022 43.1617C118.943 44.6043 117.707 46.2866 116.314 48.2085C114.987 50.1277 113.526 52.0522 111.933 53.9817C110.337 55.8447 108.639 57.6449 106.838 59.3823C105.101 61.0506 103.319 62.4203 101.492 63.4916C99.7294 64.4936 98.0167 65.0601 96.3538 65.191C94.691 65.3219 93.2125 65.0454 91.9185 64.3615C90.6245 63.6776 89.5495 62.6183 88.6935 61.1835C87.8375 59.7488 87.3377 58.0335 87.1939 56.0376C86.9784 53.911 87.0946 51.7382 87.5427 49.5193C87.9908 47.3003 88.7131 45.2709 89.7095 43.4311C90.77 41.5221 92.1085 39.9026 93.7251 38.5726C95.3416 37.2426 97.2106 36.4032 99.3321 36.0545C100.726 35.8672 101.935 36.0874 102.96 36.715C103.985 37.3426 104.47 38.6582 104.414 40.6619C104.373 41.3306 104.077 42.3094 103.526 43.5983C103.042 44.8846 102.257 46.1491 101.171 47.392C100.151 48.6322 98.86 49.7495 97.2972 50.7439C95.7318 51.6716 93.8487 52.1446 91.6478 52.1629C91.5096 53.7694 91.4688 55.3054 91.5254 56.771C91.646 58.1674 91.9588 59.3562 92.4637 60.3375C92.966 61.2521 93.6886 61.8247 94.6316 62.0551C95.6411 62.283 96.8978 62.001 98.4017 61.2091ZM98.9096 38.0723C98.2486 38.2312 97.5658 38.6912 96.8613 39.4523C96.2234 40.2108 95.5933 41.1692 94.9708 42.3274C94.3458 43.419 93.7592 44.6425 93.2111 45.998C92.727 47.2843 92.3762 48.5654 92.1586 49.8414C93.4243 49.7926 94.7041 49.2428 95.9978 48.1921C97.3582 47.1389 98.447 45.9626 99.2641 44.6635C100.145 43.2951 100.628 41.9755 100.713 40.7047C100.797 39.4338 100.196 38.5563 98.9096 38.0723ZM153.404 40.572C153.932 40.4182 154.465 40.3976 155.003 40.5103C155.539 40.5563 155.912 40.7087 156.122 40.9675C156.396 41.1571 156.438 41.3889 156.249 41.6631C156.126 41.9347 155.667 42.1526 154.873 42.3167C153.681 42.5628 152.365 43.014 150.922 43.6701C149.477 44.2596 148.001 44.917 146.495 45.6423C144.988 46.3676 143.517 47.125 142.079 47.9143C140.639 48.6371 139.331 49.3214 138.155 49.9672C137.538 51.2587 136.825 52.6539 136.015 54.1529C135.203 55.5853 134.289 56.9549 133.272 58.2618C132.255 59.5687 131.131 60.7128 129.902 61.6943C128.672 62.6758 127.362 63.2935 125.97 63.5474C125.243 63.7089 124.638 63.5988 124.156 63.2171C123.677 62.902 123.487 62.3089 123.587 61.4377C123.646 59.5007 124.406 57.6033 125.869 55.7455C127.399 53.8851 129.762 52.0259 132.959 50.1678C133.254 49.1557 133.514 48.1116 133.739 47.0354C133.962 45.8926 134.153 44.7844 134.311 43.7109C134.636 41.7635 134.808 40.1557 134.826 38.8874C134.841 37.5525 134.608 36.6942 134.126 36.3125C133.711 35.9282 132.982 36.0565 131.939 36.6972C130.896 37.3379 129.512 38.6256 127.785 40.5603C126.253 42.354 124.701 44.4822 123.128 46.9447C121.552 49.3406 120.017 51.9017 118.521 54.6281C117.022 57.2879 115.594 60.045 114.237 62.8995C112.879 65.754 111.684 68.5021 110.652 71.1439C109.622 73.8523 108.817 76.3186 108.235 78.5426C107.59 80.8359 107.265 82.7832 107.26 84.3846C107.186 85.922 106.966 87.1313 106.6 88.0128C106.233 88.8942 105.814 89.2774 105.343 89.1621C104.2 88.9394 103.446 88.4014 103.079 87.5483C102.715 86.7617 102.669 85.5626 102.94 83.9509C103.147 82.4085 103.67 80.3868 104.507 77.886C105.281 75.4543 106.335 72.5115 107.669 69.0574C108.458 67.0255 109.331 64.59 110.289 61.7509C111.181 58.9144 112.101 55.9767 113.051 52.9378C114.066 49.8297 115.048 46.7562 115.998 43.7173C116.948 40.6784 117.778 37.9777 118.487 35.6152C119.261 33.1836 119.92 31.2567 120.466 29.8346C121.009 28.3459 121.347 27.599 121.48 27.5938C124.347 27.5499 125.873 28.1915 126.058 29.5187C126.24 30.7793 125.743 32.5998 124.567 34.9802C123.456 37.2915 121.996 40.0832 120.187 43.3554C118.443 46.5584 117.045 50.115 115.996 54.0251C116.036 53.3563 116.367 52.4095 116.987 51.1847C117.673 49.9573 118.488 48.5915 119.43 47.0874C120.44 45.5807 121.548 44.0368 122.754 42.4557C124.025 40.8055 125.299 39.2552 126.578 37.8048C128.563 35.6599 130.241 34.1941 131.612 33.4073C133.049 32.618 134.239 32.3385 135.182 32.569C136.122 32.7328 136.845 33.3054 137.35 34.2866C137.922 35.2653 138.302 36.4849 138.492 37.9453C138.746 39.3365 138.872 40.8662 138.869 42.5342C138.864 44.1355 138.79 45.6729 138.647 47.1462C140.218 46.3517 142.345 45.3021 145.03 43.9976C147.713 42.6264 150.504 41.4846 153.404 40.572ZM129.179 58.5199C129.504 58.3072 129.79 57.9292 130.036 57.386C130.282 56.8427 130.649 55.9946 131.138 54.8415C130.17 55.6795 129.465 56.4406 129.025 57.1248C128.582 57.7423 128.633 58.2074 129.179 58.5199ZM141.839 27.2082C140.486 26.7267 139.594 26.094 139.164 25.31C138.664 24.462 138.692 23.4601 139.248 22.3045C139.937 21.1437 141.065 20.1328 142.633 19.2717C144.135 18.4131 145.874 17.6788 147.852 17.0687C149.83 16.4586 151.945 15.9433 154.197 15.5228C156.516 15.0997 158.771 14.7458 160.961 14.4611L165.003 5.0982C165.633 4.13984 166.25 3.6824 166.852 3.72588C167.454 3.76935 167.933 4.08443 168.289 4.67113C168.645 5.25782 168.875 6.01621 168.978 6.94627C169.147 7.87377 169.079 8.71034 168.774 9.45598C168.654 9.79421 168.403 10.2042 168.021 10.686C167.639 11.1677 167.112 12.1888 166.438 13.7493C168.501 13.603 170.566 13.5232 172.633 13.5101C174.699 13.4304 176.633 13.4225 178.437 13.4863C180.241 13.5501 181.847 13.6882 183.256 13.9006C184.663 14.0465 185.773 14.2705 186.585 14.5728C187.059 14.7546 187.302 15.0121 187.315 15.3452C187.392 15.6091 187.301 15.8461 187.042 16.0562C186.85 16.2638 186.556 16.4086 186.158 16.4906C185.761 16.5727 185.359 16.5215 184.952 16.3371C182.266 15.907 179.125 15.7614 175.528 15.9003C171.995 15.9699 168.502 16.2382 165.051 16.705C163.944 19.1495 162.691 22.1001 161.29 25.5567C159.955 29.0107 158.626 32.598 157.302 36.3185C156.044 40.0365 154.851 43.6852 153.721 47.2648C152.659 50.8418 151.846 53.9755 151.282 56.6659C150.786 59.3537 150.599 61.4291 150.722 62.8921C150.912 64.3525 151.629 64.7919 152.874 64.2101C153.466 63.9871 154.337 63.2196 155.488 61.9075C156.707 60.6596 158.017 59.1746 159.419 57.4526C160.884 55.6614 162.379 53.769 163.903 51.7754C165.427 49.7818 166.857 47.9252 168.191 46.2058C169.523 44.4198 170.633 42.9092 171.519 41.6741C172.472 40.4364 173.045 39.7138 173.237 39.5062C173.362 39.3012 173.656 39.1231 174.117 38.9719C174.644 38.8181 174.912 38.8411 174.92 39.0409C174.677 39.6508 174.12 40.7731 173.249 42.4079C172.375 43.9761 171.312 45.8185 170.059 47.935C168.804 49.985 167.386 52.1413 165.806 54.4039C164.289 56.5974 162.733 58.6256 161.137 60.4886C159.61 62.4156 158.103 63.9749 156.614 65.1665C155.192 66.3556 153.947 66.9374 152.879 66.9119C150.878 66.9224 149.412 66.1117 148.482 64.4797C147.62 62.9118 147.114 61.0299 146.963 58.8341C146.937 56.4333 147.327 53.5828 148.134 50.2826C148.938 46.9157 149.935 43.3746 151.126 39.6592C152.381 35.8747 153.736 32.0863 155.191 28.294C156.71 24.4325 158.171 20.8068 159.574 17.4168C157.456 17.8322 155.438 18.277 153.521 18.7513C151.605 19.2255 149.891 19.7587 148.379 20.3508C146.865 20.8763 145.619 21.4248 144.64 21.9963C143.595 22.5704 142.884 23.1649 142.507 23.7799C142.254 24.1232 142.233 24.4576 142.446 24.783C142.659 25.1084 142.905 25.4324 143.184 25.7552C143.804 26.265 144.186 26.6506 144.329 26.9119C144.406 27.1758 144.346 27.3449 144.149 27.4193C143.951 27.4936 143.652 27.5052 143.249 27.454C142.781 27.4054 142.31 27.3234 141.839 27.2082ZM188.593 16.2966C188.348 16.8398 187.944 17.6226 187.383 18.645C186.822 19.6674 186.196 20.7257 185.504 21.8198C184.877 22.8448 184.245 23.7699 183.61 24.595C183.039 25.3509 182.586 25.7353 182.253 25.7482C181.574 25.4408 181.11 24.6581 180.862 23.4001C180.61 22.0755 180.921 20.6291 181.795 19.0609C181.979 18.6534 182.257 18.0756 182.629 17.3274C183 16.5792 183.477 15.9604 184.058 15.4709C184.637 14.9148 185.294 14.6559 186.03 14.6943C186.829 14.6634 187.684 15.1975 188.593 16.2966ZM174.649 36.1492C175.307 35.9237 175.768 35.7724 176.032 35.6955C176.296 35.6186 176.695 35.5699 177.228 35.5493C178.627 35.4953 179.311 35.9359 179.28 36.8711C179.247 37.7397 178.814 38.6237 177.981 39.5232C177.277 40.2843 176.552 41.3797 175.807 42.8095C175.061 44.2394 174.417 45.6986 173.874 47.1873C173.329 48.6094 172.946 49.9252 172.725 51.1346C172.569 52.2748 172.696 52.9704 173.106 53.2215C175.199 52.1399 177.445 50.6855 179.843 48.8583C182.241 47.0311 184.476 45.3103 186.549 43.6958C188.619 42.0147 190.367 40.6463 191.794 39.5904C193.221 38.5346 193.976 38.2052 194.058 38.6024C194.148 39.1994 193.811 39.9796 193.047 40.9431C192.351 41.904 191.391 42.9752 190.169 44.1565C189.011 45.2687 187.656 46.4552 186.104 47.716C184.551 48.9768 182.997 50.2043 181.442 51.3985C179.951 52.5236 178.524 53.5794 177.161 54.566C175.796 55.4861 174.689 56.196 173.841 56.6957C172.993 57.1955 172.001 57.4339 170.866 57.411C169.731 57.3881 168.938 56.7182 168.487 55.4013C168.033 54.0177 168.183 51.8437 168.936 48.8791C169.753 45.8453 171.657 41.602 174.649 36.1492ZM202.768 48.3737C202.128 50.8002 200.951 53.1473 199.237 55.4151C197.587 57.6137 195.817 59.2832 193.926 60.4237C192.038 61.6308 190.255 62.0999 188.576 61.8311C186.898 61.5623 185.742 60.1392 185.109 57.5617C184.637 55.7118 184.588 53.5788 184.962 51.1626C185.269 48.7489 185.913 46.4224 186.894 44.1829C187.939 41.8742 189.263 39.8549 190.864 38.1252C192.465 36.3955 194.292 35.3243 196.344 34.9114C197.402 34.6705 198.231 34.5384 198.83 34.5152C199.43 34.4921 199.777 34.8456 199.872 35.5758C199.946 35.7731 200.222 35.996 200.698 36.2445C201.175 36.4929 201.689 36.84 202.24 37.2858C202.788 37.6649 203.275 38.1798 203.7 38.8306C204.126 39.4813 204.293 40.3422 204.2 41.4132C204.139 41.549 204.081 41.7848 204.028 42.1204C203.974 42.4561 203.953 42.7904 203.966 43.1235C203.979 43.4566 204.024 43.7551 204.101 44.019C204.178 44.2829 204.316 44.411 204.516 44.4033C205.787 44.4876 207.637 44.0159 210.066 42.9882C212.558 41.8912 215.735 40.3675 219.596 38.4171C219.947 38.8706 220.031 39.301 219.846 39.7084C219.729 40.1133 219.508 40.4554 219.185 40.7347C217.833 41.9878 216.34 43.0795 214.708 44.0098C213.143 44.9376 211.606 45.7308 210.097 46.3895C208.588 47.0482 207.172 47.5365 205.85 47.8544C204.595 48.1697 203.567 48.3428 202.768 48.3737ZM197.775 48.6665C197.163 48.3565 196.774 47.7711 196.607 46.9102C196.44 46.0494 196.37 45.0847 196.395 44.0162C196.487 42.9452 196.614 41.9062 196.775 40.8993C196.934 39.8257 197.067 38.9532 197.174 38.2819C196.262 38.8509 195.266 39.8234 194.185 41.1994C193.17 42.5729 192.229 44.1104 191.361 45.8118C190.559 47.5106 189.893 49.271 189.363 51.0928C188.899 52.912 188.728 54.5198 188.848 55.9162C188.918 57.7149 189.418 58.5629 190.348 58.4603C191.278 58.3577 192.256 57.7861 193.284 56.7457C194.378 55.7028 195.361 54.3972 196.235 52.829C197.175 51.2582 197.689 49.8707 197.775 48.6665ZM233.046 50.9076C233.125 49.5035 233.367 47.993 233.772 46.3762C234.243 44.7568 234.717 43.2041 235.193 41.7179C235.669 40.2318 236.151 38.8789 236.638 37.6592C237.122 36.3729 237.483 35.3582 237.721 34.6151C237.78 34.4127 237.74 34.2474 237.602 34.1194C237.463 33.9913 237.232 34.0336 236.906 34.2463C235.164 35.7813 233.241 37.8236 231.138 40.3733C229.099 42.8538 227.133 45.4983 225.24 48.3068C223.347 51.1152 221.618 53.8506 220.053 56.513C218.487 59.1753 217.305 61.3892 216.506 63.1547C215.307 63.201 214.338 63.1717 213.601 63.0667C212.932 63.0258 212.458 62.844 212.178 62.5212C211.832 62.201 211.683 61.7731 211.729 61.2376C211.775 60.7021 211.88 59.9641 212.043 59.0238C212.343 58.1449 212.732 56.9957 213.211 55.5762C213.69 54.1566 214.199 52.6359 214.736 51.0139C215.272 49.3254 215.806 47.6035 216.338 45.8483C216.871 44.0931 217.341 42.4404 217.748 40.8902C218.153 39.2734 218.464 37.827 218.681 36.551C218.899 35.275 218.962 34.3052 218.869 33.6416C218.821 32.3759 219.596 31.7121 221.194 31.6504C222.926 31.5836 223.936 31.8115 224.223 32.3341C224.577 32.8542 224.491 34.0917 223.966 36.0468C223.738 37.0563 223.383 38.2376 222.902 39.5905C222.42 40.9434 221.908 42.3642 221.365 43.8529C220.822 45.3416 220.282 46.897 219.744 48.5189C219.204 50.0743 218.76 51.5591 218.415 52.9735C219.603 50.9261 221.147 48.5649 223.045 45.8896C224.943 43.2144 226.946 40.6686 229.055 38.2521C231.163 35.8357 233.286 33.7856 235.422 32.1019C237.559 30.4183 239.493 29.543 241.225 29.4761C242.025 29.4453 242.471 29.7616 242.563 30.4252C242.722 31.0863 242.685 31.8549 242.452 32.7312C242.285 33.605 242.05 34.4147 241.745 35.1603C241.44 35.906 241.257 36.3467 241.196 36.4825C240.65 37.9046 240.048 39.5957 239.39 41.5559C238.732 43.5161 238.171 45.4058 237.707 47.225C237.241 48.9777 236.966 50.4894 236.882 51.7603C236.861 52.9619 237.218 53.5486 237.95 53.5204C238.417 53.5023 239.073 53.2102 239.918 52.6438C240.828 52.0082 241.832 51.2356 242.931 50.3259C244.094 49.3469 245.287 48.2668 246.509 47.0854C247.797 45.9015 249.019 44.7202 250.175 43.5414C251.33 42.3626 252.388 41.2543 253.349 40.2165C254.376 39.1761 255.175 38.2779 255.747 37.522C255.939 37.3144 256.265 37.135 256.726 36.9838C257.188 36.8325 257.388 36.8248 257.326 36.9606C256.788 38.5826 255.758 40.4237 254.237 42.4839C252.779 44.4749 251.12 46.4404 249.261 48.3802C247.467 50.3175 245.666 52.055 243.858 53.5925C242.113 55.0609 240.718 56.0822 239.673 56.6563C238.753 57.0253 237.86 57.2266 236.994 57.26C236.195 57.2909 235.486 57.0847 234.869 56.6416C234.251 56.1984 233.758 55.5169 233.389 54.5971C233.086 53.6748 232.972 52.4449 233.046 50.9076Z" fill="#1D1D1A"/>
</svg>
