<svg width="30" height="17" viewBox="0 0 30 17" fill="none" xmlns="http://www.w3.org/2000/svg">
<path fill-rule="evenodd" clip-rule="evenodd" d="M24.3994 16.9203H24.1755C22.6489 16.6779 21.7047 15.6374 20.8178 14.6676C20.3095 14.1224 19.4911 12.7188 18.5793 12.8654C17.2828 13.0713 18.0061 15.3141 17.4601 16.2445C17.0272 16.9879 15.1565 16.8302 13.8786 16.695C9.82691 16.2765 7.62917 14.2355 5.82004 11.9644C3.87704 9.54112 2.47822 6.88383 1.11924 4.07989C0.671543 3.16102 0 2.26647 0 1.15138C0.658783 0.631458 1.82637 0.700841 2.91002 0.700841C3.82153 0.700841 5.14849 0.594964 5.82004 0.926111C6.21781 1.1257 6.61716 2.28179 6.93928 2.95354C7.56783 4.2961 8.31711 5.57797 9.17775 6.78314C9.56904 7.32379 10.2721 8.27353 10.9685 8.13476C11.6528 8.00185 11.6108 6.47609 11.6401 5.43152C11.6757 4.24367 11.7679 2.68547 11.4162 2.05246C11.0899 1.4591 10.4557 1.50641 9.84929 1.15138C10.3516 0.160192 11.752 0.02503 13.4309 0.02503C14.8384 0.02503 16.6802 -0.20024 17.2363 0.700841C17.7885 1.63008 17.502 3.50883 17.4601 4.75571C17.4183 6.15599 17.1443 7.4853 18.1317 8.13476C18.8954 8.05501 19.2596 7.34631 19.6986 6.78314C20.6712 5.5464 21.4101 4.5417 22.1609 2.95354C22.4662 2.29057 22.7239 1.13629 23.2801 0.926111C24.1294 0.617941 25.3957 0.700841 26.6379 0.700841C27.6629 0.700841 29.4467 0.468362 29.7717 1.15138C30.0352 1.69676 29.3464 3.23513 29.1002 3.62935C28.1551 5.1292 27.2064 6.15486 26.1902 7.45895C25.7801 7.98608 25.0163 8.65558 25.0709 9.48638C25.1067 10.1275 25.6861 10.6141 26.1902 11.0633C27.1674 11.96 28.0662 12.9398 28.8763 13.9918C29.2085 14.4058 30.069 15.2569 29.9956 15.7939C29.7885 17.4713 24.4021 16.9043 24.3994 16.9203Z" fill="white"/>
</svg>
