<svg width="24" height="24" viewBox="0 0 24 24" fill="none" xmlns="http://www.w3.org/2000/svg">
<path fill-rule="evenodd" clip-rule="evenodd" d="M6.5068 9.31511C6.46544 8.76567 6.57327 8.21528 6.81904 7.7217C6.89392 7.52505 6.99799 7.34072 7.1278 7.17486C7.35949 6.86261 7.66907 6.61612 8.02584 6.4598C8.02584 6.4598 9.0862 6.35609 9.17794 6.49812C9.66933 7.34798 10.0804 8.24148 10.4059 9.16711C10.5682 9.77248 9.71607 10.4635 9.71607 10.4635C9.71607 10.4635 9.17619 10.7377 9.71607 11.4167C10.1183 11.9235 10.8029 12.8066 11.214 13.1326C11.6482 13.4867 12.1102 13.8055 12.5954 14.0862C13.5993 14.6408 13.7863 14.5817 13.7863 14.5817C13.7863 14.5817 13.9716 14.6571 14.4762 13.9718C14.7461 13.6079 15.0408 13.1808 15.3213 13.0947C15.6459 12.9957 18.2677 14.4958 18.1636 14.391C18.3471 14.5754 18.2024 15.1665 18.2024 15.1665C18.2024 15.1665 18.2589 15.8278 17.2603 16.5903C16.6022 17.0932 15.5136 17.2129 15.5136 17.2129C14.8282 17.1641 14.1545 17.0099 13.5164 16.7559C12.4525 16.3564 11.3286 16.0201 9.86954 14.697C8.85594 13.7801 7.97536 12.727 7.2531 11.5682C6.48562 10.2497 6.5068 9.31511 6.5068 9.31511ZM12.2302 23.4662C10.1959 23.4691 8.19574 22.9455 6.4256 21.9468L0 24L2.11187 17.7483C0.779137 15.5247 0.222353 12.9241 0.528302 10.3522C0.834252 7.78027 1.98573 5.38146 3.80326 3.52975C5.62079 1.67805 8.00222 0.477515 10.5763 0.115318C13.1503 -0.246879 15.7723 0.249615 18.0335 1.5274C20.2947 2.80518 22.0679 4.79244 23.0768 7.17936C24.0858 9.56627 24.2736 12.2187 23.6112 14.7231C22.9487 17.2276 21.4731 19.4432 19.4145 21.0247C17.3558 22.6062 14.8298 23.4646 12.2302 23.4662ZM12.2108 1.99824C10.4028 1.99154 8.6281 2.48166 7.08162 3.41471C5.53514 4.34776 4.27684 5.6876 3.4451 7.28691C2.61336 8.88622 2.24038 10.6831 2.36717 12.4799C2.49396 14.2767 3.11563 16.0038 4.16379 17.4715L3.22693 20.3015L3.23046 20.3041L2.95699 21.1023L4.54663 20.6321C4.5441 20.6291 4.54111 20.6265 4.5378 20.6244L6.71851 19.9406C7.9953 20.7999 9.45665 21.3488 10.9851 21.543C12.5135 21.7373 14.0663 21.5715 15.5188 21.0591C16.9712 20.5467 18.2827 19.7019 19.3478 18.5926C20.4129 17.4834 21.2019 16.1406 21.6514 14.6722C22.1009 13.2039 22.1982 11.651 21.9357 10.1384C21.6732 8.62571 21.0581 7.19553 20.1399 5.9628C19.2217 4.73007 18.0259 3.7292 16.6488 3.04063C15.2717 2.35207 13.7516 1.99504 12.2108 1.99824Z" fill="white"/>
</svg>
